<svg width="1195" height="844" viewBox="0 0 1195 844" fill="none" xmlns="http://www.w3.org/2000/svg">
<path d="M204.828 843.9H209.025C208.126 842.901 207.327 841.802 206.627 840.703C206.027 841.802 205.528 842.801 204.828 843.9Z" fill="white"/>
<path d="M332.521 509.561C332.421 509.061 332.321 508.661 332.221 508.361C332.221 508.261 332.121 508.161 332.121 508.061C332.121 508.061 332.121 508.061 332.121 507.961C332.121 507.861 332.021 507.861 332.021 507.761C332.021 507.761 332.021 507.661 331.921 507.661L331.821 507.561C331.821 507.561 331.721 507.561 331.721 507.461C331.721 507.461 331.722 507.461 331.622 507.461C331.522 507.461 331.522 507.461 331.422 507.461C330.822 507.461 330.422 508.561 330.223 510.06C331.122 510.46 331.921 510.96 332.721 511.56C332.721 510.86 332.621 510.16 332.521 509.561Z" fill="#1E98F5"/>
<path d="M363.395 296.759C365.293 295.46 367.091 294.361 368.89 293.461C367.091 294.261 365.193 295.36 363.395 296.759Z" fill="#1E98F5"/>
<path d="M879.664 469.178C886.658 463.78 893.652 458.483 900.846 453.385C885.159 451.086 874.668 448.188 874.668 448.188L879.664 469.178Z" fill="#1E98F5"/>
<path d="M904.743 0.199612C908.14 12.5937 909.938 25.588 909.938 39.0816C909.938 120.943 843.594 187.411 761.663 187.411C679.731 187.411 613.387 121.043 613.387 39.0816C613.387 25.588 615.185 12.5937 618.582 0.199612H0V582.025C16.8859 586.023 30.9741 597.217 38.9674 612.209C45.8616 609.411 53.3554 607.912 61.2488 607.912C72.8391 607.912 83.6301 611.21 92.8225 616.907C97.6184 612.909 103.713 610.511 110.408 610.511C114.404 610.511 118.301 611.41 121.698 612.909C121.698 612.609 121.698 612.31 121.698 612.01C121.698 603.015 128.992 595.717 137.985 595.717C141.981 595.717 145.578 597.117 148.476 599.516L211.523 479.272L211.123 479.573L226.111 430.196C226.51 427.997 227.31 425.798 228.409 423.799C230.607 419.601 233.904 416.303 237.701 414.104L234.504 412.405L251.689 395.013L257.484 384.018L257.884 384.218C254.287 376.422 254.187 367.126 258.484 358.93L303.246 273.87C310.54 259.976 327.626 254.679 341.514 261.976C354.204 268.673 359.699 283.465 355.003 296.559C360.798 290.062 368.592 285.364 379.083 285.864C385.677 286.164 391.872 288.064 397.168 291.162L443.828 275.47L500.781 201.005L500.881 201.104C501.58 199.405 502.08 198.006 502.18 197.406C502.879 193.708 505.877 185.512 507.275 183.613C508.674 181.714 513.47 172.418 515.569 170.719C517.667 169.02 518.366 168.02 519.365 166.921C520.365 165.721 521.464 162.823 524.961 161.623C528.458 160.424 529.057 159.924 531.255 158.025C533.453 156.026 539.648 149.329 541.147 149.129C545.643 148.529 545.343 153.028 545.144 154.527C544.944 156.526 538.349 163.523 538.349 163.523C538.349 163.523 535.052 169.32 533.653 171.519C532.254 173.718 530.956 183.413 531.255 185.012C531.355 185.612 534.653 181.014 534.852 180.614C536.251 178.315 537.45 175.917 539.349 174.018C541.047 172.318 547.042 167.42 549.041 170.719C550.44 173.018 547.542 178.515 546.543 180.714C544.944 184.013 543.045 187.011 541.247 190.21C537.55 196.707 534.253 204.203 528.558 209.201C524.661 212.599 520.864 218.796 517.767 224.494C509.873 242.685 486.093 294.561 467.109 306.655C454.82 314.451 430.54 325.046 410.456 333.242L383.779 390.115L385.377 390.915L378.983 403.009L377.684 402.309C368.192 423.199 356.302 448.288 342.214 474.076C342.214 474.276 342.214 474.475 342.214 474.675C342.214 474.775 342.214 474.875 342.214 474.975C342.214 475.474 342.214 475.974 342.114 476.474C342.114 476.574 342.114 476.574 342.114 476.674C342.114 477.174 342.114 477.773 342.114 478.273C342.114 479.672 342.114 480.972 342.214 482.372C342.313 485.07 342.513 487.769 342.713 490.467C342.813 491.867 342.913 493.167 343.013 494.566C343.413 499.963 343.712 505.461 343.613 510.858C343.613 511.858 343.612 513.057 343.712 514.356C343.712 514.556 343.712 514.856 343.712 515.156C343.712 515.656 343.712 516.155 343.712 516.655C343.712 516.955 343.712 517.155 343.712 517.455C343.712 518.454 343.513 519.454 343.313 520.354C343.113 521.053 342.813 521.653 342.513 522.153C342.413 522.252 342.413 522.353 342.314 522.353C342.314 522.353 342.214 522.352 342.214 522.452C342.114 522.552 342.014 522.552 341.914 522.652C341.914 522.652 341.814 522.652 341.814 522.752C341.714 522.852 341.514 522.953 341.314 523.052C340.715 523.352 339.916 523.652 339.116 523.852C339.116 524.252 339.116 524.551 339.116 524.951L338.617 530.149L362.996 532.447C365.194 532.647 366.793 534.646 366.593 536.745L360.898 596.717C360.698 598.916 358.8 600.516 356.602 600.316L284.062 593.419C281.065 599.016 278.467 603.814 276.069 607.612C270.374 617.008 267.876 632.8 286.061 651.191C298.55 663.885 287.459 678.979 287.459 678.979L254.387 663.385C254.987 661.686 255.286 659.887 255.486 658.088C255.586 655.989 255.286 653.79 254.587 651.691C253.788 649.692 252.589 647.793 251.09 646.294C248.392 643.495 246.194 640.397 244.795 636.798C243.396 633.3 242.697 629.402 242.697 625.604C242.697 621.805 243.296 617.907 244.396 614.208C245.495 610.51 246.993 606.812 248.792 603.414C250.39 599.816 252.189 596.317 254.787 593.218C251.49 595.617 248.892 598.816 246.594 602.214C244.595 605.812 243.097 609.611 241.898 613.51C240.799 617.408 240.099 621.505 240.099 625.604C240.099 629.702 240.799 633.899 242.397 637.697C243.896 641.596 246.394 644.995 249.192 647.993C250.49 649.293 251.49 650.792 252.189 652.491C252.789 654.19 253.088 655.989 252.988 657.788C252.788 661.487 251.29 665.085 249.291 668.383C247.593 671.881 245.495 675.28 243.097 678.378L212.822 643.595L203.43 639.197L205.128 634.699L181.848 607.912L254.787 504.561C254.787 504.561 286.66 431.695 305.245 390.814C300.648 396.012 294.454 399.211 287.759 400.111L282.164 410.705L277.568 434.694L274.47 433.095C274.87 437.493 273.971 442.09 271.773 446.288C270.574 448.487 269.175 450.486 267.476 452.186L209.325 523.452L159.966 617.508C161.865 620.206 162.964 623.404 162.964 626.903C162.964 628.902 162.564 630.801 161.965 632.501C164.862 635.399 166.761 639.497 166.761 643.995C166.761 651.292 161.965 657.488 155.27 659.587C162.264 664.585 166.86 672.782 166.86 681.977C166.86 691.872 161.565 700.568 153.771 705.466C160.366 710.464 164.662 718.46 164.662 727.456C164.662 730.754 164.063 733.952 162.964 736.851C168.959 741.948 172.855 749.445 172.855 757.941C172.855 760.74 172.456 763.338 171.656 765.837C191.54 769.935 207.327 785.528 211.723 805.318C216.619 800.82 223.213 798.022 230.307 798.022C245.495 798.022 257.884 810.316 257.884 825.608C257.884 832.605 255.286 838.902 251.09 843.8H649.556C670.838 734.951 720.197 636.199 789.739 555.337L726.792 567.431C726.792 567.431 722.495 531.049 742.279 528.35C770.955 524.452 779.947 501.663 782.245 489.568C795.734 420.701 786.842 381.319 821.313 363.428C827.208 360.429 832.903 358.13 838.498 356.431C835.501 354.732 832.603 353.233 829.905 351.733C827.008 350.134 825.209 346.936 825.509 343.637L828.706 271.771C828.806 269.272 831.404 267.773 833.602 268.773L906.242 302.356C907.541 302.956 908.34 304.356 908.24 305.755L902.145 384.118L825.509 343.637L902.145 384.118C901.945 385.118 901.945 385.917 901.845 386.717C903.044 387.116 904.243 387.116 905.542 386.816L941.312 377.921C941.712 378.521 942.311 379.02 942.911 379.52C943.41 379.92 944.01 380.22 944.609 380.42C945.309 380.62 946.008 380.819 946.807 380.72C948.206 380.72 949.505 380.119 950.504 379.32C950.704 379.12 950.904 378.92 951.104 378.82C952.303 377.621 953.202 376.321 953.802 374.822L954.701 374.623H954.801L954.102 374.223C954.201 374.023 954.301 373.823 954.401 373.523L961.895 356.83L986.674 361.929C991.37 365.427 996.266 368.625 1001.16 371.724C1002.46 372.523 1003.66 373.323 1004.96 374.022C1006.26 374.722 1007.56 375.522 1008.86 376.222C1010.15 376.921 1011.45 377.721 1012.75 378.421C1014.05 379.12 1015.45 379.72 1016.75 380.319C1022.14 382.718 1027.74 385.017 1033.44 386.717C1034.13 386.917 1034.83 387.116 1035.63 387.316C1040.63 388.715 1045.72 389.616 1050.92 389.915C1045.03 389.116 1039.43 387.516 1033.83 385.517C1028.34 383.518 1023.04 380.919 1017.85 378.221C1015.25 376.821 1012.65 375.422 1010.15 374.022C1008.86 373.323 1007.66 372.523 1006.36 371.823C1005.06 371.124 1003.86 370.324 1002.56 369.525C997.565 366.426 992.669 363.128 987.973 359.63L987.773 359.43L987.474 359.329L961.495 354.032L960.496 353.832L960.097 354.732L952.203 372.323C951.504 374.222 950.505 376.022 949.106 377.122C947.707 378.221 946.008 378.321 944.609 377.221C943.211 376.222 942.311 374.323 941.912 372.424C941.412 370.525 941.312 368.425 941.512 366.326C941.612 364.227 942.012 362.229 942.511 360.13C943.011 358.031 943.51 355.931 944.01 353.832C945.109 349.634 946.308 345.536 947.607 341.438L948.007 340.239L946.807 339.939C945.808 339.639 945.109 339.639 944.21 339.639C943.411 339.639 942.511 339.739 941.712 339.939C940.113 340.339 938.614 341.138 937.415 342.238C936.116 343.337 935.217 344.637 934.418 345.936C933.619 347.236 933.019 348.535 932.32 349.934C931.12 352.633 930.021 355.332 928.822 357.931C927.623 360.529 926.524 363.228 924.926 365.427C924.126 366.526 923.327 367.626 922.328 368.225C922.128 368.425 921.829 368.426 921.629 368.626C921.429 368.626 921.129 368.725 920.929 368.725C920.43 368.825 919.93 368.625 919.43 368.426C917.332 367.426 916.533 364.727 916.433 362.028C916.333 359.329 916.733 356.431 917.232 353.732C917.832 350.934 918.631 348.235 919.53 345.536C920.43 342.837 921.529 340.139 922.628 337.54C923.827 334.941 925.126 332.343 926.525 329.944C927.224 328.744 928.023 327.545 928.922 326.646C929.122 326.446 929.322 326.145 929.622 326.045L929.822 325.946L930.022 325.746C930.221 325.646 930.321 325.445 930.521 325.345C930.721 325.145 930.821 325.046 931.021 324.746L931.221 324.346C931.321 324.146 931.32 324.046 931.42 323.846C931.52 323.546 931.52 323.047 931.42 322.647C931.32 322.448 931.321 322.248 931.221 322.148C931.121 321.948 931.021 321.847 930.921 321.747C930.121 320.848 929.422 320.548 928.723 320.149C928.023 319.849 927.324 319.548 926.625 319.249C925.226 318.749 923.827 318.349 922.428 317.949L922.128 317.849C921.928 317.749 921.629 317.749 921.429 317.749C921.029 317.749 920.629 317.95 920.43 318.15C919.93 318.449 919.63 318.849 919.43 319.149C918.931 319.849 918.531 320.448 918.132 321.048C917.432 322.347 916.733 323.647 916.033 324.946C914.634 327.545 913.236 330.043 911.637 332.342C910.538 333.941 909.239 335.441 907.74 336.54L910.238 304.855C910.238 304.655 910.238 304.456 910.238 304.256C912.037 303.256 913.835 302.257 915.634 301.457C918.232 300.258 921.029 299.158 923.727 298.459C926.425 297.759 929.322 297.658 932.22 297.858C935.118 297.858 937.915 298.159 940.812 298.659C941.512 298.759 942.211 298.958 942.911 299.058C943.61 299.258 944.31 299.358 944.909 299.558C946.108 300.058 947.507 300.657 948.806 301.257L956.799 304.956L972.686 312.552C993.868 322.747 1014.95 333.142 1036.03 343.437L1039.63 345.236L1037.63 341.738L1021.45 313.251C1020.05 310.953 1018.85 308.454 1017.35 306.155L1012.95 299.258C1010.05 294.66 1007.16 290.063 1004.16 285.465C1006.56 290.363 1009.06 295.26 1011.55 300.058L1015.25 307.354C1016.45 309.853 1017.95 312.052 1019.25 314.451L1033.44 339.339C1013.55 329.543 993.668 319.849 973.785 310.153L957.898 302.556L949.905 298.758L947.907 297.858C947.207 297.559 946.608 297.259 945.808 296.959C945.009 296.66 944.31 296.559 943.51 296.359C942.811 296.159 942.011 296.06 941.312 295.96C939.813 295.66 938.314 295.559 936.816 295.36C935.317 295.26 933.818 295.06 932.32 295.06C929.322 295.16 926.225 295.46 923.327 296.559C920.429 297.559 917.832 298.958 915.234 300.458C913.536 301.457 911.837 302.656 910.238 303.756C910.039 302.656 909.339 301.657 908.24 301.257L868.973 283.166C872.669 282.267 876.566 281.666 880.563 281.366C892.453 280.567 927.324 289.663 947.307 295.26C947.906 289.063 948.406 282.766 949.106 276.669C953.102 240.886 958.398 211.9 997.765 217.297C1001.46 217.597 1005.06 218.397 1008.76 219.496C1009.45 219.696 1010.25 219.896 1010.95 220.095C1016.55 221.595 1021.84 223.594 1026.34 227.092L1026.44 226.893C1026.44 226.893 1072.9 260.876 1085.69 325.946C1088.49 340.539 1088.69 352.733 1086.69 362.628C1121.66 352.233 1157.83 344.837 1195 340.639V0H904.743V0.199612ZM164.163 170.619C151.473 170.619 141.282 160.324 141.282 147.73C141.282 135.136 151.573 124.841 164.163 124.841C176.752 124.841 187.043 135.136 187.043 147.73C187.043 160.324 176.852 170.619 164.163 170.619ZM427.542 252.28L420.348 253.98L421.647 259.377L422.246 261.776L424.145 269.872C421.547 273.27 417.75 275.769 413.254 276.769C402.763 279.268 392.172 272.771 389.774 262.276L388.974 258.977C388.775 259.377 388.575 259.676 388.175 259.876C386.576 260.876 383.879 259.577 382.08 256.878C380.382 254.179 380.282 251.181 381.88 250.081C382.78 249.482 384.078 249.682 385.377 250.481C386.077 250.881 386.876 250.381 386.776 249.581C385.877 239.986 392.172 231.09 401.764 228.792C412.255 226.293 422.846 232.79 425.244 243.285L427.542 252.28ZM560.731 516.455C531.555 516.455 507.975 492.866 507.975 463.68C507.975 434.494 531.555 410.905 560.731 410.905C589.906 410.905 613.487 434.494 613.487 463.68C613.487 492.866 589.806 516.455 560.731 516.455ZM907.041 337.74C908.939 336.54 910.538 334.941 912.037 333.242C913.935 330.943 915.534 328.444 917.032 325.946C917.832 324.746 918.531 323.447 919.33 322.247C919.73 321.648 920.13 321.048 920.53 320.648C920.729 320.448 920.929 320.249 921.029 320.149H921.129C922.528 320.648 923.827 321.148 925.126 321.648C925.825 321.948 926.425 322.147 927.024 322.447C927.624 322.747 928.223 323.046 928.323 323.346C928.323 323.346 928.223 323.546 928.123 323.546C928.023 323.646 927.923 323.746 927.823 323.846L927.424 324.246C927.024 324.546 926.824 324.846 926.525 325.146C925.425 326.346 924.626 327.544 923.827 328.844C922.228 331.343 920.929 334.042 919.73 336.74C919.231 337.74 918.831 338.839 918.431 339.839C914.634 341.438 910.538 343.138 906.441 344.637L907.041 337.74ZM928.423 323.447C928.423 323.447 928.523 323.447 928.423 323.447V323.447ZM933.918 351.434C935.417 349.634 936.816 347.435 937.915 344.937C938.015 344.837 938.115 344.736 938.314 344.536C939.314 343.737 940.413 343.037 941.612 342.738C942.211 342.538 942.811 342.538 943.51 342.438C943.71 342.438 943.91 342.438 944.01 342.438C942.911 346.136 941.812 349.834 940.812 353.532C940.213 355.631 939.713 357.731 939.314 359.93C938.914 361.829 938.514 363.728 938.314 365.727L929.722 360.929C930.022 360.329 930.221 359.73 930.521 359.13C931.62 356.631 932.719 354.032 933.918 351.434ZM1006.66 173.518C1005.96 177.016 1003.56 179.515 1001.46 179.115C1001.06 179.015 1000.66 178.815 1000.36 178.516L1000.86 182.314C1002.36 194.308 993.868 205.303 981.878 206.802C976.782 207.502 971.886 206.302 967.79 203.803L966.591 194.408C969.788 193.908 972.686 192.309 974.684 189.71C975.084 189.21 974.984 188.411 974.484 187.911C973.985 187.511 973.186 187.611 972.686 188.111C971.087 190.21 968.789 191.509 966.192 191.809L965.392 185.512L957.199 186.512L955.9 176.316C954.401 164.322 962.894 153.327 974.884 151.828C985.875 150.429 995.866 157.425 998.764 167.72C998.964 168.52 1000.06 168.82 1000.66 168.12C1001.66 166.821 1002.96 166.021 1004.16 166.321C1006.26 166.721 1007.36 169.92 1006.66 173.518Z" fill="#1E98F5"/>
<path d="M827.209 538.945L827.908 537.146C828.408 535.947 828.708 534.647 829.108 533.448C829.308 532.848 829.407 532.149 829.607 531.549L829.807 530.649L830.007 529.649C830.506 527.151 830.606 524.552 830.406 521.953C830.306 520.654 830.007 519.454 829.807 518.155L829.607 517.455L825.91 541.644C826.11 541.344 826.21 540.944 826.41 540.644C826.61 540.145 826.91 539.545 827.209 538.945Z" fill="white"/>
<path d="M1050.22 390.116C1045.02 389.816 1039.93 388.816 1034.93 387.517C1032.93 397.112 1030.44 405.909 1026.34 413.405C1024.04 419.402 1021.44 424.5 1018.15 428.098C988.971 460.483 933.617 458.184 900.844 453.386C893.65 458.484 886.557 463.781 879.662 469.178L902.243 564.733L806.324 600.916C806.324 600.916 806.324 600.916 806.324 600.816C803.926 596.119 802.327 590.821 801.728 585.423C801.228 580.026 801.927 574.229 804.825 569.331L805.325 568.431L805.924 567.532C806.323 566.933 806.823 566.432 807.223 565.932C807.623 565.433 808.222 564.933 808.722 564.433L810.12 563.034C812.019 561.135 813.817 559.235 815.516 557.236C817.714 554.738 819.712 552.039 821.511 549.24L789.038 555.437C719.396 636.299 670.138 735.053 648.855 843.901H1194.2V340.939C1157.03 345.137 1120.86 352.534 1085.89 362.929C1081.89 382.02 1069.1 391.716 1050.22 390.116Z" fill="white"/>
<path d="M761.662 187.412C843.493 187.412 909.938 121.043 909.938 39.0815C909.938 25.5878 908.139 12.5934 904.742 0.199219H618.582C615.185 12.5934 613.387 25.5878 613.387 39.0815C613.487 121.043 679.831 187.412 761.662 187.412Z" fill="white"/>
<path d="M560.732 410.906C531.557 410.906 507.977 434.495 507.977 463.681C507.977 492.867 531.557 516.456 560.732 516.456C589.908 516.456 613.488 492.867 613.488 463.681C613.488 434.595 589.808 410.906 560.732 410.906Z" fill="white"/>
<path d="M164.162 124.84C151.473 124.84 141.281 135.135 141.281 147.729C141.281 160.323 151.573 170.618 164.162 170.618C176.751 170.618 187.043 160.323 187.043 147.729C187.043 135.135 176.851 124.84 164.162 124.84Z" fill="white"/>
<path d="M919.829 336.84C921.028 334.141 922.327 331.543 923.926 328.944C924.725 327.645 925.525 326.445 926.624 325.246C926.924 324.946 927.223 324.646 927.523 324.346L927.923 323.946C928.023 323.847 928.123 323.747 928.223 323.647C928.323 323.547 928.422 323.447 928.422 323.447C928.222 323.247 927.623 322.847 927.123 322.547C926.524 322.247 925.925 321.947 925.225 321.747C923.926 321.248 922.527 320.748 921.229 320.248H921.128C921.029 320.348 920.829 320.548 920.629 320.748C920.229 321.248 919.829 321.747 919.43 322.347C918.63 323.546 917.931 324.746 917.132 326.045C915.633 328.544 914.034 331.043 912.136 333.341C910.737 335.041 909.139 336.74 907.14 337.839L906.641 344.836C910.737 343.237 914.834 341.638 918.631 340.038C918.93 338.939 919.33 337.839 919.829 336.84Z" fill="#1E2B3C"/>
<path d="M929.621 361.128L938.215 365.926C938.415 363.927 938.814 361.928 939.214 360.129C939.714 358.03 940.213 355.93 940.713 353.731C941.712 350.033 942.811 346.335 943.91 342.637C943.71 342.637 943.51 342.637 943.411 342.637C942.811 342.637 942.212 342.736 941.512 342.936C940.313 343.236 939.214 343.836 938.215 344.735C938.115 344.835 938.014 344.936 937.815 345.136C936.616 347.634 935.317 349.833 933.818 351.633C932.619 354.231 931.519 356.93 930.42 359.528C930.22 359.928 929.921 360.528 929.621 361.128Z" fill="#1E2B3C"/>
<path d="M824.608 544.242C825.008 543.442 825.508 542.543 825.907 541.743L829.604 517.556L828.805 514.357C826.107 503.962 823.609 493.567 821.211 483.072C818.913 472.577 816.815 462.082 815.616 451.387C814.317 440.692 813.717 429.797 815.416 419.002C816.315 413.604 817.714 408.307 820.112 403.309C822.51 398.311 825.708 393.714 829.604 389.916C833.701 386.118 838.597 383.519 843.593 381.42C848.588 379.321 853.684 377.822 858.88 376.422C853.784 378.221 848.888 380.22 844.092 382.519C839.396 384.918 834.8 387.717 831.403 391.615C829.604 393.414 827.806 395.413 826.307 397.512C824.808 399.611 823.509 401.91 822.41 404.209C820.212 408.907 818.813 414.004 817.914 419.202C816.315 429.597 816.915 440.292 818.214 450.887C819.513 461.482 821.511 471.977 823.809 482.372C826.107 492.767 828.705 503.162 831.303 513.557L832.302 517.455C832.602 518.854 832.901 520.254 833.001 521.653C833.201 524.452 833.101 527.25 832.602 529.949L832.402 530.949L832.202 531.948C832.002 532.648 831.902 533.248 831.703 533.947C831.303 535.247 830.903 536.546 830.403 537.846L829.604 539.744C829.305 540.344 829.005 540.944 828.705 541.644C828.206 542.943 827.506 544.143 826.807 545.342C824.209 550.14 821.011 554.538 817.514 558.636C815.716 560.735 813.917 562.734 812.019 564.633L810.62 566.033C810.221 566.532 809.721 566.932 809.321 567.431C808.522 568.431 807.723 569.431 807.123 570.53C804.325 574.728 803.127 580.025 803.226 585.223C803.326 587.821 803.626 590.521 804.126 593.119C804.625 595.718 805.424 598.317 806.423 600.816C806.423 600.816 806.423 600.815 806.423 600.715V600.816L902.343 564.633L879.762 469.079L874.767 448.088C874.767 448.088 885.258 450.986 900.944 453.285C933.717 458.083 989.071 460.282 1018.25 427.997C1021.44 424.399 1024.14 419.301 1026.44 413.304C1030.54 405.808 1033.03 397.012 1035.03 387.417C1034.33 387.217 1033.63 387.017 1032.83 386.817C1027.14 385.118 1021.64 382.819 1016.15 380.42C1014.85 379.821 1013.45 379.121 1012.15 378.521C1010.85 377.821 1009.55 377.121 1008.25 376.322C1006.96 375.622 1005.66 374.823 1004.36 374.124C1003.06 373.424 1001.76 372.623 1000.56 371.824C995.565 368.725 990.769 365.527 986.073 362.029L961.294 356.931L953.8 373.624C953.7 373.824 953.6 374.023 953.501 374.323L954.2 374.723H954.1L953.401 378.221L950.403 378.921C950.203 379.121 950.003 379.321 949.803 379.421C948.804 380.22 947.506 380.82 946.107 380.82C945.407 380.82 944.608 380.72 943.909 380.52L904.142 390.416C903.343 390.615 902.643 390.616 901.844 390.616C900.745 391.815 864.375 371.224 837.897 356.531C832.302 358.23 826.607 360.429 820.712 363.528C786.141 381.419 795.133 420.701 781.644 489.668C779.246 501.763 770.354 524.552 741.678 528.45C721.894 531.149 726.191 567.532 726.191 567.532L789.138 555.437L821.611 549.24C822.61 547.541 823.609 545.941 824.608 544.242Z" fill="#1E2B3C"/>
<path d="M804.027 593.219C803.427 590.62 803.127 588.022 803.127 585.323C803.027 580.125 804.226 574.828 807.024 570.63C807.723 569.53 808.423 568.531 809.222 567.532C809.622 567.032 810.121 566.632 810.521 566.132L811.92 564.732C813.818 562.833 815.717 560.834 817.415 558.735C820.912 554.637 824.11 550.139 826.708 545.441C827.307 544.242 828.007 543.042 828.606 541.743C828.906 541.143 829.205 540.544 829.505 539.844L830.305 537.945C830.804 536.646 831.204 535.347 831.604 534.047C831.803 533.348 831.903 532.748 832.103 532.048L832.303 531.049L832.503 530.049C833.002 527.351 833.202 524.551 832.902 521.752C832.802 520.353 832.503 518.955 832.203 517.555L831.204 513.657C828.506 503.262 826.008 492.966 823.71 482.471C821.412 472.076 819.414 461.581 818.115 450.986C816.816 440.491 816.317 429.696 817.815 419.301C818.615 414.103 820.013 409.006 822.311 404.308C823.411 401.909 824.709 399.711 826.208 397.612C827.707 395.513 829.406 393.514 831.304 391.714C834.801 387.916 839.297 385.118 843.993 382.619C848.789 380.22 853.685 378.221 858.781 376.521C853.585 377.821 848.489 379.42 843.493 381.519C838.498 383.618 833.602 386.117 829.505 390.015C825.509 393.813 822.411 398.412 820.013 403.409C817.715 408.407 816.217 413.704 815.317 419.102C813.719 429.897 814.318 440.791 815.517 451.486C816.816 462.181 818.914 472.676 821.112 483.171C823.41 493.666 826.008 504.061 828.706 514.456L829.505 517.655L829.705 518.355C830.005 519.654 830.205 520.853 830.305 522.153C830.505 524.652 830.404 527.25 829.905 529.849L829.705 530.849L829.505 531.748C829.305 532.347 829.205 533.048 829.006 533.647C828.606 534.847 828.306 536.146 827.807 537.346L827.107 539.145C826.808 539.744 826.608 540.344 826.308 540.944C826.108 541.243 826.008 541.643 825.809 541.943C825.409 542.743 825.009 543.642 824.509 544.442C823.61 546.141 822.511 547.74 821.512 549.44C819.713 552.238 817.715 554.837 815.517 557.436C813.818 559.435 812.02 561.434 810.122 563.233L808.723 564.633C808.223 565.132 807.724 565.632 807.224 566.132C806.824 566.632 806.324 567.231 805.925 567.731L805.326 568.631L804.826 569.531C802.028 574.428 801.329 580.225 801.729 585.623C802.228 591.02 803.827 596.218 806.325 601.016C806.325 601.016 806.325 601.015 806.325 601.115C805.326 598.417 804.626 595.817 804.027 593.219Z" fill="#1E98F5"/>
<path d="M1004.16 166.322C1002.96 166.022 1001.66 166.821 1000.66 168.121C1000.17 168.82 999.066 168.62 998.766 167.721C995.968 157.326 985.877 150.429 974.886 151.828C962.896 153.328 954.403 164.323 955.902 176.317L957.201 186.512L965.394 185.513L966.194 191.81C968.791 191.41 971.09 190.11 972.688 188.111C973.088 187.611 973.887 187.512 974.486 187.911C974.986 188.311 975.086 189.111 974.686 189.71C972.688 192.309 969.79 193.909 966.593 194.408L967.792 203.804C971.888 206.303 976.784 207.502 981.88 206.802C993.87 205.303 1002.36 194.308 1000.86 182.314L1000.36 178.516C1000.66 178.816 1001.06 179.015 1001.46 179.115C1003.56 179.515 1005.86 177.117 1006.66 173.518C1007.36 169.92 1006.26 166.721 1004.16 166.322Z" fill="#1E2B3C"/>
<path d="M954.101 374.723L953.202 374.923C952.502 376.322 951.703 377.721 950.504 378.921L953.501 378.221L954.101 374.723Z" fill="#E5AA20"/>
<path d="M1085.99 362.928C1088.09 353.133 1087.89 340.839 1084.99 326.246C1072.2 261.076 1025.74 227.192 1025.74 227.192L1025.64 227.393C1021.15 223.894 1015.85 221.895 1010.25 220.396C1009.45 220.196 1008.76 219.996 1008.06 219.796C1004.36 218.697 1000.66 217.897 997.066 217.597C957.698 212.199 952.403 241.286 948.406 276.969C947.707 283.066 947.107 289.363 946.608 295.56C926.625 289.963 891.753 280.867 879.863 281.667C875.867 281.967 871.97 282.566 868.273 283.466L907.54 301.557C908.54 302.057 909.339 302.956 909.539 304.056C911.137 302.856 912.836 301.757 914.535 300.758C917.032 299.258 919.73 297.859 922.628 296.859C925.525 295.86 928.623 295.46 931.62 295.36C933.119 295.36 934.618 295.461 936.117 295.66C937.615 295.76 939.114 295.96 940.613 296.26C941.312 296.36 942.111 296.56 942.811 296.66C943.61 296.86 944.21 296.959 945.109 297.259C945.908 297.559 946.508 297.859 947.207 298.159L949.206 299.058L957.199 302.856L973.086 310.453C992.969 320.149 1012.85 329.844 1032.74 339.64L1018.55 314.751C1017.25 312.352 1015.75 310.054 1014.55 307.655L1010.85 300.357C1008.36 295.46 1005.86 290.662 1003.46 285.765C1006.46 290.363 1009.35 294.96 1012.25 299.558L1016.65 306.455C1018.15 308.754 1019.35 311.153 1020.75 313.551L1036.93 342.038L1038.93 345.536L1035.33 343.737C1014.25 333.342 993.169 323.047 971.986 312.852L956.1 305.256L948.107 301.557C946.808 300.957 945.409 300.357 944.21 299.858C943.71 299.658 942.911 299.458 942.212 299.358C941.512 299.258 940.813 299.059 940.113 298.959C937.316 298.459 934.418 298.159 931.52 298.159C928.623 298.059 925.825 298.059 923.027 298.759C920.23 299.458 917.532 300.558 914.934 301.757C913.136 302.657 911.237 303.556 909.539 304.556C909.539 304.756 909.539 304.956 909.539 305.156L907.041 336.84C908.54 335.641 909.838 334.142 910.937 332.643C912.636 330.344 914.035 327.845 915.334 325.246C916.033 323.947 916.733 322.647 917.432 321.348C917.832 320.748 918.232 320.049 918.731 319.449C919.031 319.149 919.231 318.749 919.73 318.449C919.93 318.25 920.33 318.149 920.73 318.049C920.929 318.049 921.229 318.05 921.429 318.15L921.729 318.249C923.128 318.649 924.526 319.049 925.925 319.549C926.624 319.748 927.324 320.049 928.023 320.449C928.723 320.848 929.422 321.148 930.222 322.047C930.322 322.147 930.421 322.248 930.521 322.448C930.621 322.647 930.721 322.747 930.721 322.947C930.821 323.247 930.821 323.747 930.721 324.147C930.721 324.347 930.621 324.547 930.521 324.647L930.321 325.046C930.121 325.346 930.021 325.446 929.822 325.646C929.622 325.846 929.522 325.946 929.322 326.045L929.122 326.246L928.922 326.345C928.723 326.545 928.523 326.746 928.223 326.945C927.324 327.945 926.524 329.044 925.825 330.244C924.326 332.643 923.027 335.241 921.928 337.84C920.729 340.438 919.73 343.137 918.831 345.836C917.931 348.535 917.132 351.334 916.533 354.032C915.933 356.831 915.534 359.629 915.734 362.328C915.834 365.027 916.633 367.726 918.731 368.725C919.231 368.925 919.73 369.125 920.23 369.025C920.43 369.025 920.729 368.926 920.929 368.926C921.129 368.826 921.429 368.725 921.629 368.525C922.628 367.926 923.427 366.926 924.227 365.727C925.725 363.428 926.924 360.829 928.123 358.23C929.322 355.632 930.321 352.933 931.62 350.234C932.22 348.935 932.919 347.536 933.719 346.236C934.518 344.937 935.417 343.637 936.716 342.538C937.915 341.438 939.414 340.639 941.012 340.239C941.812 340.039 942.611 339.939 943.51 339.939C944.41 339.939 945.109 340.039 946.108 340.239L947.307 340.539L946.907 341.738C945.608 345.836 944.409 349.935 943.31 354.133C942.811 356.232 942.211 358.331 941.811 360.43C941.312 362.529 940.912 364.528 940.812 366.627C940.612 368.726 940.813 370.725 941.212 372.724C941.712 374.623 942.611 376.522 943.91 377.521C945.309 378.621 947.007 378.521 948.406 377.422C949.805 376.322 950.804 374.523 951.504 372.624L959.397 355.032L959.796 354.133L960.796 354.332L986.774 359.63L987.074 359.73L987.273 359.93C991.97 363.428 996.866 366.726 1001.86 369.825C1003.06 370.624 1004.36 371.325 1005.66 372.124C1006.96 372.824 1008.16 373.623 1009.46 374.322C1012.05 375.722 1014.65 377.121 1017.15 378.521C1022.34 381.219 1027.64 383.818 1033.14 385.817C1038.63 387.816 1044.33 389.416 1050.22 390.215C1069.1 391.715 1081.89 382.019 1085.99 362.928Z" fill="#1E2B3C"/>
<path d="M901.644 384.217L907.739 305.854C907.839 304.455 907.039 303.056 905.741 302.456L833.101 268.872C830.903 267.872 828.305 269.371 828.205 271.87L825.008 343.737L901.644 384.217Z" fill="#E5AA20"/>
<path d="M901.943 390.615C901.943 390.515 901.943 390.615 901.943 390.615C902.643 390.615 903.442 390.614 904.241 390.414L944.008 380.519C943.408 380.319 942.809 380.02 942.309 379.62C941.71 379.12 941.211 378.62 940.711 378.02L904.941 386.916C903.742 387.216 902.443 387.215 901.244 386.816C901.244 386.016 901.344 385.217 901.544 384.217L824.907 343.736C824.608 347.035 826.407 350.233 829.304 351.832C832.002 353.331 834.899 354.831 837.897 356.53C864.474 371.223 900.844 391.814 901.943 390.615Z" fill="#E5AA20"/>
<path d="M413.253 318.748C413.253 323.645 410.356 332.541 410.356 332.541L410.156 332.941C430.339 324.745 454.519 314.149 466.809 306.353C485.793 294.259 509.573 242.384 517.466 224.192C520.664 218.495 524.46 212.198 528.257 208.9C533.952 203.902 537.25 196.406 540.947 189.909C542.745 186.71 544.643 183.712 546.242 180.413C547.241 178.314 550.139 172.717 548.74 170.418C546.842 167.12 540.747 172.017 539.048 173.716C537.25 175.615 535.951 178.114 534.552 180.313C534.252 180.713 531.055 185.411 530.955 184.711C530.655 183.112 531.954 173.416 533.353 171.217C534.752 169.018 538.049 163.221 538.049 163.221C538.049 163.221 544.544 156.225 544.843 154.225C545.043 152.726 545.343 148.228 540.847 148.828C539.348 149.028 533.253 155.825 530.955 157.724C528.757 159.723 528.157 160.123 524.66 161.322C521.163 162.522 520.064 165.52 519.065 166.62C518.066 167.819 517.366 168.719 515.268 170.418C513.17 172.117 508.274 181.413 506.975 183.312C505.676 185.211 502.679 193.407 501.879 197.105C501.779 197.705 501.28 199.104 500.581 200.804L500.481 200.703L443.528 275.169L396.867 290.86C406.759 296.958 413.253 306.953 413.253 318.748Z" fill="#1E2B3C"/>
<path d="M315.335 525.051C314.636 524.951 314.036 524.751 313.437 524.451C312.837 524.151 312.238 523.851 311.639 523.451C311.139 523.051 310.739 522.652 310.34 522.152C309.141 522.552 307.842 522.751 306.643 522.751C305.344 522.751 303.946 522.752 302.647 522.552C301.947 522.452 301.348 522.352 300.649 522.252C300.049 522.152 299.35 522.052 298.65 521.752C297.252 521.252 295.953 520.253 295.253 518.953C294.953 518.354 294.654 517.854 294.454 517.254C293.854 518.153 293.455 519.253 293.355 520.453L292.855 525.65L315.635 527.85C316.035 526.95 316.434 526.05 316.834 525.25C316.434 525.15 315.835 525.151 315.335 525.051Z" fill="#1E2B3C"/>
<path d="M358.1 392.014L364.695 380.019L378.283 387.117L403.861 332.443C404.661 329.644 405.061 326.745 405.061 323.747C405.061 306.355 390.972 292.262 373.687 292.262C372.188 292.262 370.49 292.661 368.891 293.361C367.093 294.26 365.194 295.361 363.396 296.66C359.599 299.459 355.902 303.357 352.405 307.455C354.903 304.556 357.601 301.857 360.298 299.159C353.504 307.155 347.409 315.55 341.914 324.346C336.119 332.942 331.023 342.038 326.827 351.533C322.73 361.028 319.533 370.924 317.934 381.119C316.336 391.314 316.336 401.709 316.536 412.104C316.835 422.499 317.135 432.994 316.236 443.489C315.836 448.786 315.037 453.984 314.038 459.082L313.238 462.979L312.839 464.879C312.639 465.579 312.539 466.178 312.339 466.878C311.44 469.377 310.541 471.775 309.642 474.274C307.743 479.171 305.845 484.07 303.746 488.867C301.548 493.565 299.55 498.362 297.951 503.26C297.152 505.659 296.653 508.158 296.153 510.657C295.753 513.056 295.653 515.654 296.653 517.753C297.152 518.752 297.951 519.552 299.05 519.952C299.55 520.152 300.15 520.352 300.849 520.552C301.448 520.752 302.048 520.852 302.747 520.952C304.046 521.251 305.245 521.351 306.544 521.451C307.843 521.451 309.142 521.452 310.241 521.052L310.541 520.952L310.641 521.152C310.94 521.651 311.34 522.151 311.84 522.651C312.339 523.051 312.839 523.45 313.438 523.75C314.038 524.05 314.637 524.35 315.237 524.45C315.836 524.65 316.536 524.65 317.235 524.75C322.131 524.75 323.63 523.75 323.63 523.75C323.63 523.75 324.329 524.45 325.228 524.95C325.528 525.15 325.828 525.25 326.128 525.449C326.627 525.649 327.127 525.75 327.626 525.85C328.326 525.85 328.925 525.749 329.625 525.249C330.824 524.25 331.023 522.252 330.823 520.552C330.624 518.853 330.124 517.453 330.124 517.453C330.124 517.453 329.924 512.755 330.324 509.757C330.524 508.257 330.923 507.158 331.523 507.158C331.623 507.158 331.623 507.158 331.723 507.158C331.723 507.158 331.723 507.158 331.823 507.158C331.823 507.158 331.922 507.158 331.922 507.258L332.022 507.359C332.022 507.359 332.023 507.458 332.122 507.458C332.122 507.558 332.222 507.558 332.222 507.658C332.222 507.658 332.222 507.658 332.222 507.758C332.222 507.858 332.322 507.958 332.322 508.058C332.422 508.358 332.522 508.757 332.622 509.257C332.722 509.857 332.822 510.556 332.922 511.256C333.921 511.956 334.82 512.755 335.519 513.755C337.818 516.454 338.917 519.852 338.817 523.351C339.616 523.151 340.415 522.851 341.015 522.551C341.215 522.451 341.315 522.351 341.514 522.251C341.514 522.251 341.614 522.251 341.614 522.151C341.714 522.051 341.814 522.051 341.914 521.951C341.914 521.951 342.014 521.951 342.014 521.852C342.114 521.752 342.214 521.651 342.214 521.651C342.613 521.152 342.813 520.452 343.013 519.852C343.313 518.953 343.413 517.953 343.413 516.954C343.413 516.654 343.413 516.454 343.413 516.154C343.413 515.654 343.413 515.155 343.413 514.655C343.413 514.355 343.413 514.155 343.413 513.855C343.313 512.656 343.313 511.457 343.313 510.357C343.513 504.86 343.113 499.462 342.713 494.065C342.613 492.666 342.513 491.366 342.414 489.966C342.214 487.268 342.014 484.569 341.914 481.871C341.914 480.471 341.814 479.171 341.814 477.772C341.814 477.272 341.814 476.773 341.814 476.173C341.814 476.073 341.814 476.073 341.814 475.973C341.814 475.473 341.814 474.974 341.914 474.474C341.914 474.374 341.914 474.274 341.914 474.174C341.914 473.974 341.914 473.775 341.914 473.575C356.002 447.787 367.892 422.699 377.384 401.809L358.1 392.014Z" fill="#1E2B3C"/>
<path d="M256.484 590.621C254.286 590.421 252.687 588.422 252.887 586.323L258.582 526.352C258.782 524.153 260.78 522.553 262.879 522.753L285.16 524.852L285.66 519.655C286.159 514.257 289.656 509.759 294.252 507.66C294.652 505.961 295.052 504.361 295.551 502.762C297.15 497.665 299.248 492.868 301.446 488.07C303.544 483.372 305.443 478.474 307.241 473.676C308.141 471.278 309.04 468.779 309.939 466.38C310.139 465.88 310.239 465.181 310.339 464.581L310.738 462.682L311.438 458.884C312.337 453.786 313.236 448.688 313.536 443.491C314.435 433.195 314.036 422.8 313.836 412.305C313.636 401.91 313.536 391.315 315.235 380.82C315.734 377.322 316.533 373.923 317.433 370.525L316.334 369.926L308.34 385.119C307.241 387.218 305.942 389.017 304.444 390.716C285.859 431.696 253.986 504.462 253.986 504.462L181.047 607.813L204.327 634.6L202.629 639.098L212.021 643.496L242.296 678.28C244.694 675.081 246.892 671.783 248.49 668.284C250.489 664.986 251.988 661.387 252.188 657.689C252.287 655.89 252.088 653.991 251.388 652.392C250.689 650.692 249.69 649.193 248.391 647.894C245.493 644.995 243.095 641.497 241.596 637.599C239.998 633.701 239.298 629.603 239.298 625.505C239.298 621.407 239.998 617.308 241.097 613.41C242.196 609.512 243.794 605.714 245.793 602.116C248.091 598.717 250.689 595.519 253.986 593.12C251.388 596.218 249.59 599.717 247.991 603.315C246.092 606.714 244.594 610.312 243.595 614.11C242.496 617.808 241.896 621.707 241.896 625.505C241.896 629.303 242.595 633.2 243.994 636.699C245.393 640.297 247.591 643.396 250.289 646.194C251.788 647.694 253.087 649.493 253.786 651.592C254.585 653.591 254.885 655.791 254.685 657.989C254.586 659.789 254.186 661.588 253.586 663.287L286.659 678.879C286.659 678.879 297.749 663.686 285.26 651.092C267.075 632.701 269.673 616.909 275.268 607.513C277.566 603.615 280.264 598.817 283.261 593.32L256.484 590.621Z" fill="#1E2B3C"/>
<path d="M401.863 228.791C392.271 231.09 385.976 240.085 386.876 249.581C386.976 250.38 386.076 250.88 385.477 250.481C384.178 249.681 382.879 249.481 381.98 250.08C380.381 251.08 380.381 254.178 382.18 256.877C383.878 259.576 386.576 260.975 388.275 259.876C388.574 259.676 388.874 259.376 389.074 258.977L389.873 262.275C392.371 272.77 402.862 279.267 413.353 276.768C417.85 275.668 421.547 273.169 424.244 269.871L422.346 261.775C421.547 261.975 420.647 262.075 419.848 262.075C417.75 262.075 415.752 261.475 413.953 260.375C413.354 259.976 413.154 259.277 413.554 258.677C413.953 258.077 414.652 257.877 415.252 258.277C417.25 259.476 419.548 259.876 421.746 259.376L420.448 253.979L427.642 252.28L425.543 243.284C422.946 232.789 412.354 226.292 401.863 228.791Z" fill="#1E2B3C"/>
<path d="M415.153 258.378C414.553 257.978 413.754 258.178 413.454 258.778C413.054 259.378 413.254 260.178 413.854 260.477C415.652 261.577 417.65 262.177 419.749 262.177C420.548 262.177 421.447 262.076 422.246 261.876L421.647 259.478C419.349 259.878 417.051 259.577 415.153 258.378Z" fill="#F45F63"/>
<path d="M204.93 528.249L208.727 523.552L266.878 452.285C268.576 450.585 270.075 448.587 271.174 446.388C273.372 442.19 274.272 437.592 273.872 433.194L276.969 434.793L281.565 410.804L287.161 400.21C293.755 399.31 300.05 396.112 304.646 390.914C306.145 389.215 307.444 387.415 308.543 385.316L316.536 370.124L317.635 370.724C319.434 363.927 321.732 357.23 324.63 350.733C328.826 341.138 334.021 331.942 339.917 323.147C343.014 318.849 346.211 314.75 349.609 310.752C350.508 309.653 351.407 308.653 352.406 307.553C355.903 303.455 359.7 299.557 363.397 296.759C365.295 295.359 367.094 294.16 368.892 293.46C370.591 292.761 372.19 292.36 373.688 292.36C391.074 292.36 405.062 306.454 405.062 323.845C405.062 326.844 404.662 329.743 403.863 332.542L378.285 387.216L364.696 380.12L358.102 392.114L377.385 402.308L378.684 403.008L385.079 390.914L383.48 390.115L410.158 333.241L410.358 332.841C410.358 332.841 413.255 323.946 413.255 319.048C413.255 307.254 406.761 297.259 396.969 291.461C391.673 288.363 385.578 286.464 378.884 286.164C368.393 285.664 360.599 290.361 354.804 296.858C359.5 283.764 353.905 268.972 341.316 262.275C327.427 254.978 310.341 260.276 303.048 274.17L258.285 359.229C253.989 367.425 254.089 376.721 257.686 384.517L257.286 384.317L251.491 395.312L234.305 412.704L237.502 414.403C233.705 416.602 230.408 419.901 228.21 424.099C227.111 426.198 226.412 428.296 225.912 430.495L210.925 479.872L211.324 479.572L230.308 464.879L204.93 528.249Z" fill="#E5AA20"/>
<path d="M229.808 798.222C222.614 798.222 216.119 801.02 211.223 805.518C206.827 785.728 191.04 770.135 171.157 766.037C171.956 763.538 172.356 760.839 172.356 758.14C172.356 749.644 168.559 742.048 162.464 737.051C163.563 734.152 164.163 730.953 164.163 727.655C164.163 718.659 159.866 710.763 153.272 705.665C161.165 700.767 166.361 692.072 166.361 682.176C166.361 672.881 161.765 664.785 154.771 659.787C161.365 657.688 166.261 651.591 166.261 644.194C166.261 639.696 164.462 635.698 161.465 632.7C162.164 630.901 162.464 629.002 162.464 627.103C162.464 623.604 161.365 620.406 159.467 617.707L208.825 523.652L205.028 528.35L230.507 464.779L211.523 479.473L148.476 599.715C145.678 597.316 141.981 595.917 137.985 595.917C128.992 595.917 121.698 603.214 121.698 612.209C121.698 612.509 121.698 612.81 121.698 613.109C118.201 611.51 114.404 610.71 110.408 610.71C103.713 610.71 97.6184 613.109 92.8224 617.108C83.6301 611.41 72.8391 608.112 61.2488 608.112C53.3554 608.112 45.8616 609.611 38.9674 612.41C30.9741 597.417 16.8859 586.222 0 582.224V844H204.829C205.428 843 206.028 841.901 206.627 840.801C207.327 841.901 208.126 843 209.025 844H250.49C254.687 839.102 257.285 832.805 257.285 825.808C257.285 810.516 244.995 798.222 229.808 798.222Z" fill="white"/>
<path d="M335.42 514.058C334.62 513.158 333.721 512.258 332.822 511.559C332.023 510.959 331.223 510.459 330.324 510.059C329.825 513.058 330.124 517.755 330.124 517.755C330.124 517.755 330.624 519.155 330.824 520.854C331.223 521.854 331.323 522.853 331.223 523.952L330.724 529.15L315.736 527.75L292.955 525.552L293.455 520.354C293.555 519.155 293.955 518.055 294.554 517.156C294.254 516.356 294.154 515.556 294.054 514.756C293.855 513.357 293.955 511.958 294.054 510.659C294.154 509.659 294.354 508.66 294.554 507.66C289.858 509.759 286.461 514.157 285.961 519.654L285.462 524.852L263.18 522.753C260.982 522.553 259.084 524.153 258.884 526.351L253.189 586.323C252.989 588.522 254.587 590.421 256.786 590.621L283.863 593.219L356.402 600.116C358.6 600.316 360.499 598.717 360.699 596.518L366.394 536.547C366.594 534.348 364.995 532.448 362.797 532.248L338.417 529.949L338.917 524.752C338.917 524.352 338.917 524.052 338.917 523.653C338.817 520.154 337.718 516.756 335.42 514.058Z" fill="#E5AA20"/>
<path d="M314.039 412.405C314.338 422.801 314.638 433.296 313.739 443.591C313.339 448.788 312.54 453.885 311.641 458.983L310.941 462.781L310.541 464.681C310.442 465.28 310.242 465.98 310.142 466.479C309.243 468.878 308.443 471.377 307.444 473.776C305.645 478.673 303.647 483.472 301.649 488.169C299.451 492.967 297.352 497.765 295.754 502.863C295.254 504.462 294.755 506.061 294.455 507.76C294.255 508.759 294.055 509.759 293.955 510.758C293.855 512.158 293.755 513.458 293.955 514.857C294.055 515.657 294.255 516.456 294.455 517.255C294.655 517.855 294.855 518.455 295.254 518.955C296.054 520.254 297.253 521.253 298.651 521.753C299.351 522.053 300.05 522.153 300.65 522.253C301.349 522.353 301.949 522.454 302.648 522.553C303.947 522.753 305.346 522.853 306.645 522.753C307.944 522.653 309.143 522.553 310.342 522.153C310.741 522.653 311.141 523.053 311.641 523.452C312.14 523.852 312.739 524.252 313.439 524.452C314.038 524.752 314.738 524.952 315.337 525.052C315.837 525.152 316.336 525.152 316.936 525.152C316.536 526.051 316.137 526.951 315.737 527.75L330.724 529.15L331.224 523.952C331.324 522.853 331.224 521.854 330.825 520.854C331.024 522.553 330.924 524.553 329.626 525.552C329.026 526.052 328.327 526.151 327.627 526.151C327.128 526.151 326.628 525.951 326.128 525.751C325.829 525.651 325.529 525.451 325.229 525.251C324.33 524.652 323.631 524.053 323.631 524.053C323.631 524.053 322.132 525.052 317.236 525.052C316.536 525.052 315.937 524.952 315.237 524.752C314.638 524.652 313.938 524.353 313.439 524.053C312.839 523.753 312.34 523.353 311.84 522.953C311.341 522.553 310.941 522.053 310.641 521.453L310.541 521.253L310.242 521.354C309.143 521.654 307.744 521.753 306.545 521.753C305.246 521.753 304.047 521.553 302.748 521.253C302.148 521.153 301.549 520.954 300.85 520.854C300.25 520.654 299.651 520.554 299.051 520.254C297.952 519.754 297.153 519.055 296.653 518.056C295.654 516.057 295.754 513.457 296.154 510.958C296.553 508.46 297.153 505.961 297.952 503.562C299.451 498.665 301.549 493.867 303.747 489.169C305.845 484.371 307.744 479.474 309.642 474.576C310.542 472.077 311.441 469.678 312.34 467.179C312.54 466.38 312.74 465.78 312.84 465.18L313.239 463.281L314.039 459.383C314.938 454.186 315.837 448.988 316.237 443.79C317.136 433.295 316.736 422.801 316.536 412.405C316.237 402.01 316.336 391.615 317.935 381.42C319.534 371.225 322.731 361.329 326.828 351.834C331.024 342.338 336.12 333.343 341.915 324.647C347.311 315.851 353.506 307.355 360.3 299.459C357.502 302.058 354.904 304.856 352.406 307.755C351.507 308.854 350.508 309.854 349.609 310.954C346.212 314.952 343.014 319.049 339.917 323.347C334.022 332.043 328.926 341.239 324.63 350.935C321.832 357.332 319.434 364.028 317.636 370.925C316.736 374.324 316.037 377.722 315.437 381.22C313.839 391.415 313.839 402.01 314.039 412.405Z" fill="#1E98F5"/>
</svg>
