<svg width="1195" height="844" viewBox="0 0 1195 844" fill="none" xmlns="http://www.w3.org/2000/svg">
<path d="M606.082 107.294C612.736 109.235 619.528 109.235 625.905 107.71C629.925 126.432 643.788 142.244 663.473 148.068C690.227 155.974 718.368 142.104 728.627 116.724C733.479 119.914 738.885 122.41 744.846 124.074C752.747 126.432 760.649 127.126 768.412 126.432C767.58 123.659 767.026 120.608 767.026 117.418V112.148C766.61 112.564 766.194 112.98 765.501 113.257C762.729 114.228 758.986 111.178 757.461 106.462C755.936 101.747 756.768 97.1697 759.679 96.1989C761.342 95.6441 763.144 96.3373 764.808 98.0016C765.64 98.8337 767.165 98.2795 767.303 97.17C769.383 82.4691 781.997 71.0971 797.385 71.0971C807.782 71.0971 816.931 76.3672 822.476 84.2724C822.892 83.3015 823.169 82.1918 823.447 81.221C833.289 47.6587 814.159 12.5706 780.611 2.58513C747.064 -7.26165 711.992 11.8777 702.01 45.44C701.872 45.9947 701.733 46.5484 701.595 47.1031C699.099 45.9936 696.604 45.0234 693.97 44.1912C678.028 39.4759 661.532 42.527 648.64 51.1256C643.926 43.4978 636.579 37.6727 627.291 34.8989C607.329 29.0741 586.397 40.447 580.574 60.4179C574.752 80.3888 586.12 101.469 606.082 107.294Z" fill="#F45F63"/>
<path d="M184.522 357.762L208.088 274.412C208.088 274.412 202.543 312.69 196.582 359.982H386.084C376.38 311.858 368.339 277.602 368.339 277.602L401.055 344.449L402.996 360.12H457.337C450.822 310.887 432.939 252.916 389.965 203.266C355.447 163.463 313.166 157.777 290.709 156.39C244.824 153.616 201.711 178.718 175.788 221.433C147.647 267.894 137.528 303.952 134.062 336.821C133.369 343.617 132.953 351.661 132.953 360.12H184.522V357.762Z" fill="#1E2B3C"/>
<path d="M487.972 785.889L403.41 759.954L457.751 591.867L478.822 590.34L509.874 598.939V359.842H457.335H402.994H386.082H196.581H184.52H132.951H5V817.233H509.181L487.972 785.889Z" fill="#E5AA20"/>
<path d="M1106.66 453.319L1103.61 440.006C1099.59 438.896 1095.43 438.063 1091.27 437.508V437.648L1089.88 437.37C1084.89 436.677 1079.63 436.261 1074.5 436.261C1062.71 436.261 1051.48 438.063 1040.81 441.253V441.669L1038.87 441.808C1035.4 442.918 1032.08 444.166 1028.75 445.691L1026.67 457.895L1022.79 457.202L1024.45 447.633C986.192 466.217 959.715 505.466 959.715 550.955C959.715 614.335 1011.01 665.648 1074.36 665.648C1137.71 665.648 1189 614.335 1189 550.955C1189 499.225 1154.76 455.538 1107.77 441.253L1110.26 452.487L1106.66 453.319Z" fill="#1E98F5"/>
<path d="M1041.08 349.859C1022.09 346.391 1000.88 343.34 981.476 343.618V343.34L875.15 346.114C875.15 346.114 870.021 201.879 846.732 180.105C823.442 158.331 790.45 151.397 759.397 161.244C723.355 172.755 694.659 187.733 663.884 229.201C628.258 277.325 599.701 432.377 591.799 478.56C588.888 487.713 584.452 496.312 580.709 505.326C577.521 512.815 564.213 539.304 566.153 554.283C566.431 556.086 566.846 557.612 567.54 558.998C567.817 559.692 568.233 560.246 568.649 560.939C569.896 562.604 571.698 563.852 574.055 564.406C586.67 567.735 592.492 565.239 592.492 565.239C592.492 565.239 595.819 571.065 604.275 571.065C612.593 571.065 615.227 569.4 615.227 569.4C615.227 569.4 617.168 571.341 619.524 572.312L626.594 560.246C626.317 559.275 626.178 558.583 626.178 558.583C626.178 558.583 626.178 557.889 626.178 556.918C626.178 556.363 626.178 555.53 626.178 554.698C625.901 554.421 625.624 554.144 625.624 554.144L626.178 553.451C626.178 548.32 626.594 540.969 628.812 540.969C630.614 540.969 631.169 549.013 631.307 556.502C631.446 557.751 631.446 558.86 631.307 559.414C631.307 559.969 631.307 560.524 631.307 561.079C631.03 561.356 630.891 561.633 630.614 561.91L613.841 627.093L680.104 645.123L678.163 662.32C678.995 661.488 679.965 660.795 680.797 659.962C702.145 640.408 721.553 618.495 738.049 594.779C744.842 584.933 751.219 574.809 757.041 564.268C748.723 547.487 741.376 530.29 734.999 512.538C730.563 500.473 726.82 488.268 723.355 475.786C721.83 469.545 720.028 463.443 718.78 457.063C718.087 453.874 717.394 450.823 716.701 447.633C716.008 444.443 715.453 441.391 714.899 438.201C714.344 435.011 713.928 431.822 713.374 428.633C712.958 425.443 712.403 422.252 712.126 419.063C711.433 412.683 710.601 406.304 710.185 399.924C708.938 387.165 708.661 374.405 708.522 361.508C710.047 387.026 712.958 412.406 718.364 437.37C720.721 449.851 723.632 462.334 726.82 474.677C730.286 486.881 734.029 499.086 738.326 511.151C755.655 559.137 780.468 604.21 810.827 645.123C825.938 665.648 842.434 685.203 860.04 703.649C877.506 722.233 896.221 739.708 915.629 756.212C935.036 772.716 955.414 788.248 976.485 802.672C997.279 817.511 1018.63 831.38 1041.08 843.723L1100.42 700.875C1100.42 700.875 1078.65 675.496 1060.77 696.576C1031.66 730.832 997.279 720.014 992.011 717.518C986.743 715.021 873.07 633.335 838.969 444.304C837.444 435.983 836.196 427.384 835.087 418.647C833.978 414.764 833.008 411.019 832.037 407.136C830.512 399.092 829.403 391.048 828.433 383.004C827.463 374.96 826.77 366.778 826.492 358.596C826.076 350.413 825.938 342.368 825.799 334.186C825.522 317.96 825.661 301.734 825.799 285.507L826.076 261.099C826.769 253.055 827.324 244.873 828.294 236.829C828.849 245.011 829.265 253.054 829.681 261.237L829.403 285.507C829.265 301.734 829.265 317.96 829.403 334.186C829.542 342.23 829.681 350.412 830.096 358.456C830.374 366.5 831.067 374.544 832.037 382.588C833.008 390.632 834.255 398.537 835.642 406.581C836.057 409.632 836.335 412.544 836.751 415.596C878.616 434.318 968.306 398.259 980.644 393.128C984.248 394.237 987.853 395.764 991.18 397.706C1004.21 405.333 1015.44 416.427 1029.44 420.865L1029.86 418.509C1029.3 417.815 1028.75 417.122 1028.19 416.428C1025.28 412.545 1022.79 408.662 1020.29 404.64L1016.55 398.675C1015.3 396.595 1014.05 394.515 1013.36 391.741C1013.08 390.354 1012.94 388.83 1013.5 387.304C1013.78 386.472 1014.33 385.779 1015.02 385.224C1015.44 384.946 1015.72 384.669 1016.13 384.53C1016.55 384.253 1016.83 384.252 1017.24 384.113C1018.77 384.113 1020.01 384.53 1021.26 384.946C1022.37 385.501 1023.48 386.055 1024.45 386.887C1023.2 386.887 1022.09 386.748 1020.85 386.887C1019.74 387.026 1018.63 387.164 1017.93 387.58C1017.1 387.719 1016.83 387.997 1016.55 388.552C1016.27 389.106 1016.27 390.077 1016.55 391.048C1016.96 392.989 1018.07 394.931 1019.32 396.873L1023.06 402.836C1025.56 406.858 1028.05 410.742 1030.83 414.348C1032.21 416.151 1033.6 417.954 1035.12 419.618C1035.68 420.589 1036.23 421.42 1036.79 422.252C1037.62 422.946 1038.59 423.64 1039.56 424.056C1041.92 425.166 1044.69 425.581 1047.74 424.61C1050.51 423.778 1051.48 423.085 1051.9 421.421C1053.84 420.866 1055.5 420.033 1057.17 419.063C1055.64 417.814 1054.12 416.428 1052.87 415.042C1051.2 412.407 1049.68 409.771 1048.02 407.136L1038.31 391.325C1036.65 388.69 1035.12 385.64 1034.71 382.172C1034.57 381.34 1034.57 380.37 1034.71 379.399C1034.85 378.428 1035.12 377.318 1035.96 376.485C1036.65 375.515 1037.76 374.96 1038.73 374.683C1039.7 374.405 1040.67 374.405 1041.64 374.405C1045.24 374.821 1048.15 376.07 1051.07 377.457C1052.45 378.427 1053.84 379.537 1055.09 380.646C1055.09 380.507 1054.95 380.231 1054.95 380.092C1054.81 378.983 1055.09 377.596 1055.78 376.347C1056.19 375.793 1056.61 375.377 1057.17 374.96C1057.72 374.544 1058.27 374.406 1058.83 374.129C1059.94 373.713 1061.19 373.573 1062.16 373.712C1063.26 373.712 1064.1 373.99 1065.07 374.129C1066.87 374.545 1068.67 375.099 1070.47 375.792C1073.94 377.179 1077.27 378.705 1080.45 380.508C1083.64 382.311 1086.69 384.392 1089.6 386.611C1090.85 387.998 1092.1 389.384 1093.21 390.771C1101.11 395.071 1108.6 398.259 1113.03 395.902C1122.04 391.325 1107.9 379.122 1090.44 367.195C1078.51 359.705 1062.71 353.881 1041.08 349.859ZM708.245 345.005C706.858 383.698 704.502 420.866 693.412 453.874C683.153 484.246 668.182 511.706 650.438 536.531C650.438 536.67 650.438 536.808 650.438 536.947C650.438 538.888 650.438 540.83 650.438 542.772C650.438 544.713 650.299 546.655 650.299 548.457C650.438 552.202 650.854 556.224 650.299 560.246C650.022 562.326 649.467 564.406 648.358 566.487L648.081 566.904C647.943 567.043 647.804 567.319 647.665 567.458C647.388 567.735 647.111 567.874 646.834 568.151C646.279 568.429 645.863 568.707 645.309 568.984C644.338 569.4 643.368 569.955 642.397 570.093C640.457 570.509 638.377 570.787 636.437 570.787C635.466 570.787 634.357 570.786 633.387 570.647C632.832 570.509 632.416 570.37 631.862 570.232C631.446 570.093 630.892 569.539 631.03 568.984C631.169 569.539 631.585 569.678 632 569.678C632.416 569.678 632.971 569.677 633.387 569.538C634.357 569.399 635.189 569.122 636.159 568.845C637.961 568.29 639.764 567.597 641.427 566.764C642.259 566.348 643.091 566.209 643.922 565.793C644.338 565.655 644.615 565.378 644.893 565.239C645.031 565.101 645.17 565.1 645.17 564.962L645.309 564.684C646.14 563.297 646.556 561.634 646.834 559.97C647.249 556.364 646.834 552.619 646.834 548.597C646.834 546.517 646.972 544.713 646.972 542.772C646.972 540.83 646.972 538.889 646.972 537.086C646.972 529.458 646.556 521.692 646.14 513.925L645.724 502.275C645.863 500.472 646.14 498.808 646.279 497.005C646.279 494.925 646.14 492.983 646.14 490.902C646.14 479.807 648.081 466.494 649.606 458.173C654.874 430.713 666.934 369.414 674.004 352.632C683.292 330.859 709.492 273.441 709.492 273.441C711.572 298.405 709.076 321.705 708.245 345.005Z" fill="#1E2B3C"/>
<path d="M1026.67 458.034L1028.75 445.828L1032.63 422.529C1032.49 422.39 1032.35 422.39 1032.21 422.251C1031.1 421.142 1030.27 420.032 1029.3 418.784L1028.88 421.142L1024.45 447.632L1022.79 457.201L1026.67 458.034Z" fill="#F45F63"/>
<path d="M1097.65 413.654L1103.61 440.005L1106.66 453.318L1110.54 452.487L1108.05 441.252L1100.84 409.077C1100.7 411.157 1099.87 412.822 1097.65 413.654Z" fill="#F45F63"/>
<path d="M595.129 622.1L610.101 626.261L623.547 573.282L595.129 622.1Z" fill="#1E2B3C"/>
<path d="M616.201 578.276C603.171 592.283 589.447 605.044 575.723 616.832L591.249 621.131L616.201 578.276Z" fill="#1E2B3C"/>
<path d="M487.973 785.89L509.182 817.234L527.342 844C527.342 844 556.731 828.051 553.404 805.999L487.973 785.89Z" fill="#1E2B3C"/>
<path d="M1040.81 844C1040.39 843.861 1040.11 843.584 1039.7 843.445C1040.39 843.861 1040.81 844 1040.81 844Z" fill="#1E2B3C"/>
<path d="M797.382 71.2358C782.133 71.2358 769.379 82.6079 767.3 97.3087C767.161 98.5569 765.636 99.1125 764.805 98.1417C763.141 96.4774 761.339 95.7829 759.675 96.3377C756.903 97.3085 755.794 101.886 757.457 106.601C759.121 111.316 762.725 114.368 765.498 113.397C766.052 113.259 766.607 112.841 767.023 112.287V117.558C767.023 120.748 767.438 123.66 768.409 126.573C772.29 138.916 783.796 147.93 797.382 147.93C804.451 147.93 811.105 145.433 816.235 141.273V126.711C815.819 127.265 815.264 127.681 814.848 128.098C814.294 128.098 813.739 127.959 813.185 127.82C812.076 127.543 810.967 127.265 809.858 126.849C808.749 126.433 807.779 125.879 806.808 125.324C806.392 125.046 805.838 124.63 805.422 124.353C805.283 123.659 805.283 122.827 805.422 121.995C806.254 121.856 806.947 121.718 807.64 121.718C807.917 121.996 808.333 122.273 808.749 122.55C809.442 123.105 810.274 123.521 811.106 123.799C811.937 124.076 812.769 124.353 813.739 124.63C814.155 124.769 814.571 124.769 815.126 124.769L816.235 126.155V115.893H827.741V101.609C827.741 95.2292 825.8 89.2652 822.473 84.4111C816.928 76.5059 807.779 71.2358 797.382 71.2358Z" fill="#1E2B3C"/>
<path d="M813.738 124.491C812.906 124.353 811.936 124.074 811.104 123.658C810.272 123.242 809.44 122.827 808.747 122.411C808.331 122.134 808.054 121.855 807.638 121.578C806.945 121.717 806.252 121.717 805.42 121.856C805.282 122.688 805.282 123.52 805.42 124.214C805.836 124.491 806.391 124.907 806.807 125.185C807.777 125.878 808.747 126.294 809.856 126.71C810.965 127.126 811.936 127.404 813.183 127.681C813.738 127.82 814.292 127.82 814.847 127.959C815.401 127.542 815.817 127.126 816.233 126.572V125.878L815.124 124.491C814.708 124.63 814.154 124.63 813.738 124.491Z" fill="#EDCFC5"/>
<path d="M260.905 114.506C261.46 114.367 261.876 113.951 262.153 113.535L262.291 118.389C262.707 133.783 275.599 145.711 290.987 145.295C297.502 145.156 303.463 142.659 308.038 138.776L307.622 125.461C307.206 126.016 306.79 126.432 306.374 126.848C305.82 126.848 305.265 126.71 304.849 126.71C303.879 126.571 302.77 126.294 301.8 125.878C300.829 125.462 299.859 125.046 299.027 124.492C298.611 124.214 298.195 123.936 297.78 123.659C297.641 122.965 297.641 122.271 297.78 121.301C298.611 121.023 299.304 121.024 299.859 120.747C300.136 121.024 300.552 121.301 300.829 121.44C301.523 121.856 302.216 122.272 303.047 122.549C303.879 122.827 304.572 123.104 305.404 123.243C305.82 123.243 306.236 123.381 306.652 123.381L307.622 124.768L307.345 115.477L317.88 115.199L317.465 102.162C317.049 86.7678 304.156 74.8416 288.769 75.2576C274.768 75.6737 263.539 86.491 262.014 99.9437C261.876 101.053 260.489 101.607 259.796 100.775C258.271 99.2497 256.469 98.6955 255.083 99.2502C252.449 100.221 251.756 104.52 253.419 108.681C255.083 112.841 258.271 115.477 260.905 114.506Z" fill="#1E2B3C"/>
<path d="M305.26 123.244C304.428 123.105 303.596 122.967 302.903 122.551C302.071 122.273 301.378 121.858 300.685 121.441C300.408 121.164 299.992 121.025 299.715 120.748C299.021 120.887 298.467 121.025 297.635 121.302C297.497 122.134 297.497 122.828 297.635 123.66C298.051 123.937 298.467 124.215 298.883 124.493C299.715 125.048 300.685 125.464 301.655 125.88C302.626 126.296 303.596 126.573 304.705 126.711C305.26 126.85 305.675 126.849 306.23 126.849C306.646 126.433 307.062 126.017 307.478 125.463V124.769L306.507 123.382C306.091 123.382 305.676 123.244 305.26 123.244Z" fill="#EDCFC5"/>
<path d="M1038.87 425.582C1037.62 425.304 1036.52 424.75 1035.41 424.195L1036.93 442.086L1039.01 441.947L1040.95 441.808V441.393L1039.57 424.473C1038.59 424.057 1037.62 423.363 1036.79 422.67C1037.21 423.641 1037.9 424.611 1038.87 425.582Z" fill="#F45F63"/>
<path d="M1089.88 437.37L1091.27 437.648V437.508L1095.57 414.209C1094.18 414.486 1092.79 414.487 1091.55 414.348L1087.39 436.815L1089.88 437.37Z" fill="#F45F63"/>
<path d="M1059.8 420.033C1064.38 423.084 1081.29 423.777 1080.18 414.624C1079.9 412.127 1078.65 409.631 1077.13 407.551C1075.05 406.026 1073.11 404.361 1071.03 402.697L1063.82 394.654L1060.22 390.631C1059.11 389.244 1057.72 387.857 1056.75 386.193C1056.2 385.222 1055.64 384.252 1055.23 383.143C1053.15 382.311 1051.07 381.616 1048.99 380.923C1046.35 379.675 1043.44 378.427 1040.95 378.289C1039.7 378.15 1038.59 378.427 1038.18 378.982C1037.76 379.537 1037.48 380.785 1037.76 382.172C1038.04 384.807 1039.42 387.441 1040.95 389.938L1050.65 405.609C1052.32 408.244 1053.84 411.018 1055.5 413.514C1056.34 415.317 1057.17 416.982 1058.14 418.646C1058.69 419.201 1059.25 419.617 1059.8 420.033Z" fill="#1E2B3C"/>
<path d="M1078.51 383.837C1075.46 382.173 1072.28 380.647 1068.95 379.399C1067.29 378.844 1065.76 378.289 1064.1 378.012C1062.43 377.596 1060.91 377.456 1059.66 377.872C1058.97 378.15 1058.69 378.428 1058.41 378.705C1058.14 379.121 1058.14 379.538 1058.14 380.092C1058.28 381.34 1058.97 382.866 1059.94 384.253C1060.77 385.64 1061.88 386.887 1063.13 388.274L1066.73 392.296L1073.94 400.34L1077.41 405.472C1081.56 409.632 1086.14 413.654 1091.82 414.209C1093.07 414.347 1094.46 414.348 1095.84 414.071C1095.98 414.071 1096.12 414.071 1096.12 414.071C1096.81 413.932 1097.37 413.793 1097.92 413.515C1100 412.545 1100.83 410.881 1100.97 408.939C1101.11 404.501 1097.23 398.398 1095.15 395.902C1094.18 394.654 1093.07 393.545 1091.96 392.296C1090.57 391.326 1089.05 390.355 1087.53 389.523C1084.48 387.581 1081.56 385.64 1078.51 383.837Z" fill="#1E2B3C"/>
<path d="M544.254 608.233L548.135 609.342L568.791 561.217C568.375 560.662 567.959 559.97 567.682 559.276L562.414 566.211L544.254 608.233Z" fill="#F45F63"/>
<path d="M626.871 559.97L627.287 559.137C627.425 558.443 627.425 557.057 627.009 556.225C626.732 555.531 626.316 555.115 626.039 554.838C626.039 555.67 626.039 556.363 626.039 557.056C626.178 557.334 626.316 557.472 626.455 557.75C626.871 558.443 626.871 559.276 626.871 559.97Z" fill="#F45F63"/>
<path d="M630.757 561.079L627.43 566.904C627.291 568.984 626.875 571.064 625.35 572.174C624.935 572.59 624.38 572.728 623.826 573.005L623.687 573.283L610.102 626.122L613.844 627.093L630.618 561.91L630.757 561.494C630.618 561.633 630.757 561.356 630.757 561.079Z" fill="#F45F63"/>
<path d="M648.635 644.984L591.105 628.895L586.115 637.494L582.788 635.414L587.224 627.786L527.892 611.283L522.624 618.078L519.436 615.72L523.733 610.172L457.747 591.867L403.406 759.954L487.968 785.889L553.538 805.999L618.83 825.97L648.635 644.984Z" fill="#1E98F5"/>
<path d="M457.754 591.867L523.74 610.173L528.453 603.932L509.877 598.94L478.825 590.341L457.754 591.867Z" fill="#1E98F5"/>
<path d="M613.844 627.233L610.101 626.262L595.13 622.101L591.109 628.896L648.639 644.984L618.834 825.971L659.868 818.621L678.028 662.458L679.969 645.4L613.844 627.233Z" fill="#1E98F5"/>
<path d="M575.582 616.831L548.134 609.341L544.252 608.232L532.608 605.042L527.895 611.283L587.226 627.786L591.108 621.13L575.582 616.831Z" fill="#1E98F5"/>
<path d="M519.441 615.721L522.63 618.079L527.898 611.284L532.611 605.043L562.277 566.211L567.544 559.276C566.851 557.89 566.435 556.225 566.158 554.561L528.452 603.933L523.739 610.174L519.441 615.721Z" fill="#F45F63"/>
<path d="M627.428 566.904L623.824 573.005C624.379 572.867 624.795 572.59 625.349 572.174C626.735 571.064 627.29 568.984 627.428 566.904Z" fill="#1E2B3C"/>
<path d="M591.108 621.129L587.088 627.926L582.652 635.553L585.979 637.494L590.97 629.035L594.99 622.239L623.547 573.42L623.685 573.144L627.29 567.041L630.617 561.216L630.756 560.939L630.894 560.662V560.385C630.894 560.385 630.894 560.107 631.033 559.829C631.171 559.275 631.171 558.166 631.033 556.917C630.894 556.224 630.755 555.392 630.34 554.56C629.092 552.341 627.706 551.369 627.567 551.23L625.904 553.728L625.349 554.421C625.349 554.421 625.626 554.559 625.904 554.975C626.181 555.253 626.597 555.807 626.874 556.362C627.29 557.194 627.29 558.582 627.151 559.275L626.735 560.107L626.458 560.662L619.388 572.727L616.061 578.414L591.108 621.129Z" fill="#F45F63"/>
</svg>
