<svg width="1195" height="844" viewBox="0 0 1195 844" fill="none" xmlns="http://www.w3.org/2000/svg">
<path d="M284.727 843.889H285.275L303.389 824.035L284.727 843.889Z" fill="white"/>
<path d="M669.947 605.413C669.069 608.046 668.63 610.898 668.52 613.75L668.41 614.847V615.944C668.41 616.602 668.41 617.37 668.41 618.028C668.52 619.454 668.63 620.881 668.849 622.307L669.179 624.391C669.288 625.049 669.508 625.817 669.618 626.475C669.728 626.913 669.837 627.243 669.947 627.681L671.813 600.806L671.484 601.465C670.935 602.781 670.386 603.987 669.947 605.413Z" fill="#E5AA20"/>
<path d="M502.199 625.379C517.678 617.481 537.658 606.951 551.6 597.737L502.199 625.379Z" fill="#F45F63"/>
<path d="M777.309 388.439C777.528 388.11 777.858 387.781 778.077 387.452C778.297 387.123 778.516 386.903 778.736 386.574C778.187 387.232 777.857 387.562 777.857 387.562C777.857 387.562 777.638 387.781 777.309 388.439Z" fill="#E5AA20"/>
<path d="M354.327 438.131C355.755 435.169 357.072 432.098 358.499 429.136L362.89 420.251L397.581 349.169L397.69 349.06L397.8 348.95C407.571 336.554 416.682 323.501 425.245 310.118C429.417 303.427 433.588 296.626 437.321 289.715C439.297 286.314 441.053 282.695 442.92 279.184L445.445 273.809L446.762 271.177C447.201 270.299 447.53 269.422 447.97 268.434L450.385 262.95L452.471 257.465C452.8 256.587 453.239 255.6 453.459 254.723L454.337 251.87L455.215 249.019L455.654 247.592L455.983 246.166C458.069 238.598 459.387 230.809 459.606 223.021C459.936 215.233 458.947 207.335 456.971 199.766C455.983 196.036 454.666 192.307 453.129 188.687C452.361 186.822 451.592 185.067 450.824 183.202C450.055 181.337 449.287 179.363 448.958 177.169C448.628 175.085 448.518 172.891 449.067 170.697C449.616 168.503 450.934 166.419 452.91 165.103C454.776 163.786 457.081 163.128 459.167 163.018C461.363 162.799 463.448 163.128 465.534 163.567C467.62 164.006 469.486 164.664 471.462 165.432C473.329 166.199 475.195 167.077 476.951 167.845C480.574 169.49 484.197 171.245 487.71 173C494.845 176.62 501.871 180.679 508.239 185.615C511.422 188.029 514.496 190.771 517.241 193.842C518.558 195.378 519.875 196.914 521.083 198.669C522.29 200.314 523.278 202.179 524.047 204.044C524.925 205.909 525.474 207.993 525.913 209.967C526.352 212.052 526.352 214.026 526.572 216.001C526.791 220.059 526.901 224.008 526.901 228.067C526.791 233.881 526.242 239.804 525.584 245.508C529.646 243.314 532.061 242.218 532.061 242.218V242.437C537.769 239.695 543.917 238.927 550.174 238.598C551.053 238.598 551.931 238.488 552.699 238.488C556.981 238.159 561.043 238.268 564.995 238.817C608.467 242.547 607.04 274.906 602.759 314.177C601.99 320.868 601.112 327.779 600.234 334.58C616.262 333.812 640.633 332.935 657.978 333.702C690.473 321.307 734.385 307.485 748.656 313.08C763.586 319.003 777.748 327.669 774.784 336.006C779.285 335.238 784.005 335.238 788.506 336.225C791.58 336.884 794.654 337.871 797.508 339.406L799.594 340.613C800.362 341.162 801.131 341.82 801.57 342.697C802.558 344.452 802.668 346.317 802.558 347.963C802.338 351.363 801.241 354.325 800.033 357.287C798.825 360.139 797.398 362.991 795.861 365.623C792.788 370.998 789.384 376.154 785.762 381.2C784.005 383.613 782.249 386.027 780.492 388.33C786.75 384.71 792.129 381.639 796.081 379.774C812.219 372.315 829.783 362.771 850.642 371.218C871.5 379.664 878.196 392.498 852.618 405.771C829.015 418.057 777.199 459.302 737.349 476.743C739.105 501.754 731.421 534.991 730.103 582.05C729.774 595.542 733.726 622.198 763.586 633.277C784.115 640.956 770.722 678.8 770.722 678.8L672.908 636.129C674.226 639.53 675.762 642.93 677.409 646.111C678.726 648.634 680.263 651.157 681.8 653.68L683.008 655.545C683.447 656.203 683.886 656.861 684.215 657.519C684.545 658.178 684.984 658.836 685.203 659.604L685.643 660.701L685.972 661.798C687.838 667.721 687.18 674.083 685.313 679.787C683.447 685.491 680.483 690.647 676.75 695.145L676.641 695.254L582.669 633.387L640.304 515.246C640.304 515.246 640.304 515.246 640.194 515.246C639.316 516.233 638.547 517.221 637.669 518.098L636.132 519.853L634.595 521.499L631.411 524.899C629.216 527.093 627.13 529.287 624.934 531.481C620.543 535.869 616.152 540.147 611.651 544.315C593.757 561.208 575.534 577.662 557.091 593.897L556.981 594.007L556.871 594.116L551.382 597.188C537.44 606.402 517.46 617.042 501.981 624.831L479.696 637.336L462.021 656.313C523.608 703.481 600.673 731.453 684.215 731.453C886.21 731.453 1050 567.79 1050 365.952C1050 164.115 886.43 1 684.435 1C482.44 1 318.649 164.664 318.649 366.501C318.649 405.333 324.687 442.738 335.994 477.84C339.288 470.601 342.691 463.361 346.094 456.011L354.327 438.131ZM569.825 182.654C571.142 182.654 572.35 183.751 573.118 185.396C573.558 186.273 574.765 186.273 575.204 185.396C580.693 174.975 593.208 170.039 604.625 174.097C617.14 178.595 623.507 192.416 619.006 204.921L615.164 215.562L606.601 212.49L604.186 219.072L603.198 221.595L599.685 231.358C594.745 233.003 589.146 233.113 583.877 231.138C571.362 226.641 564.995 212.819 569.496 200.314L570.923 196.365C570.484 196.585 570.045 196.804 569.496 196.694C567.081 196.694 565.214 193.404 565.324 189.455C565.544 185.725 567.52 182.544 569.825 182.654Z" fill="#F45F63"/>
<path d="M726.918 371.109C731.309 367.489 735.81 363.979 740.201 360.359C743.275 357.836 746.349 355.203 749.423 352.57C743.275 355.642 736.03 359.371 728.455 363.32L726.918 371.109Z" fill="#E5AA20"/>
<path d="M303.388 824.035L311.512 815.15L338.957 784.984C343.568 779.938 348.178 775.002 352.789 770.066L366.731 755.147L478.048 635.8L478.158 635.69L478.377 635.581L555.552 592.361C573.995 576.126 592.219 559.782 610.003 542.889C614.394 538.611 618.895 534.443 623.177 530.055C625.372 527.861 627.458 525.667 629.654 523.473L632.727 520.073L634.264 518.427L635.801 516.672C636.131 516.343 636.35 516.014 636.679 515.685C616.59 516.014 522.399 514.259 491.66 459.412C489.026 454.805 487.379 448.772 486.501 441.751C483.866 432.646 483.427 422.664 483.537 411.914C477.828 412.134 472.12 412.024 466.521 411.037C435.234 406.649 425.244 378.129 444.675 334.251C467.07 283.572 505.932 256.916 523.277 247.044C523.826 240.791 524.155 234.429 524.155 228.177C524.265 224.228 524.155 220.279 523.936 216.33C523.716 214.355 523.606 212.381 523.277 210.516C522.948 208.651 522.399 206.896 521.63 205.141C520.862 203.386 519.984 201.74 518.886 200.095C517.788 198.449 516.58 197.023 515.373 195.597C512.738 192.745 509.884 190.113 506.81 187.7C500.553 182.983 493.746 179.034 486.72 175.414C483.207 173.659 479.585 171.904 476.072 170.258C474.315 169.49 472.449 168.613 470.692 167.845C468.936 167.077 467.07 166.528 465.203 166.09C463.337 165.651 461.471 165.432 459.714 165.651C457.958 165.761 456.202 166.309 454.774 167.187C453.347 168.174 452.469 169.6 452.03 171.245C451.591 172.891 451.591 174.756 451.92 176.511C452.249 178.375 452.798 180.131 453.567 181.886C454.335 183.75 455.104 185.506 455.872 187.37C457.409 191.1 458.726 194.939 459.824 198.779C461.91 206.567 462.898 214.684 462.569 222.802C462.239 230.919 461.032 238.927 458.836 246.605L458.507 248.031L458.068 249.457L457.19 252.309L456.311 255.161C455.982 256.149 455.653 257.026 455.214 258.013L453.018 263.608L450.603 269.093C450.164 269.97 449.834 270.957 449.395 271.835L448.078 274.577L445.443 279.952C443.577 283.462 441.82 287.082 439.844 290.483C436.002 297.503 431.83 304.304 427.659 311.105C419.096 324.488 409.984 337.542 400.214 350.047L365.633 421.019L361.352 429.904C359.925 432.866 358.388 435.828 356.851 438.68L347.849 456.341C341.811 468.078 335.883 479.815 329.735 491.552L143 606.731V843.451H285.055L303.388 824.035Z" fill="#E5AA20"/>
<path d="M631.301 397.325C627.239 394.692 623.287 391.84 619.664 389.208C619.993 391.182 620.323 393.157 620.433 395.131C620.762 397.983 620.872 400.835 620.872 403.797L630.752 400.945L631.301 397.325Z" fill="#F45F63"/>
<path d="M850.64 371.657C829.672 363.21 812.217 372.753 796.08 380.213C792.128 382.077 786.858 385.039 780.491 388.769C780.381 388.879 780.381 388.988 780.272 389.098C778.405 391.511 776.429 393.925 774.453 396.338C766.659 405.881 758.645 415.205 750.521 424.419C746.459 429.027 742.398 433.634 738.226 438.131L734.933 441.422C733.835 442.519 732.627 443.506 731.529 444.603C730.322 445.7 729.114 446.797 727.797 447.894C733.835 456.341 736.579 465.994 737.348 477.182C777.198 459.741 829.014 418.496 852.616 406.21C878.195 392.937 871.499 380.103 850.64 371.657Z" fill="#E5AA20"/>
<path d="M600.346 397.763C600.017 396.228 599.687 394.692 599.138 393.266C598.699 392.059 598.26 390.853 597.602 389.865C598.26 392.827 599.138 395.46 600.346 397.763Z" fill="#F45F63"/>
<path d="M731.639 334.689C732.627 335.567 733.176 336.774 732.847 338.2L728.346 363.319C736.03 359.37 743.166 355.751 749.314 352.569C750.851 351.143 752.497 349.827 754.034 348.401C755.132 347.414 756.23 346.317 757.328 345.22C757.877 344.671 758.425 344.123 759.084 343.575C759.413 343.355 759.633 343.026 759.962 342.807L760.95 342.039C763.585 340.064 766.439 338.638 769.513 337.651C771.16 337.103 772.916 336.664 774.673 336.444C777.637 328.108 763.475 319.442 748.545 313.518C734.274 307.924 690.362 321.745 657.867 334.141C665.222 334.47 671.26 335.128 674.993 336.335C679.164 337.541 683.226 339.187 686.959 341.051L726.48 332.605C728.126 332.166 730.322 333.153 731.639 334.689Z" fill="#E5AA20"/>
<path d="M525.364 245.728C526.023 239.915 526.571 234.101 526.681 228.287C526.791 224.228 526.571 220.279 526.352 216.221C526.132 214.246 526.023 212.272 525.693 210.188C525.254 208.103 524.705 206.129 523.827 204.264C522.949 202.399 521.961 200.534 520.863 198.889C519.765 197.134 518.448 195.598 517.021 194.062C514.276 190.991 511.202 188.358 508.019 185.835C501.651 180.899 494.626 176.95 487.49 173.221C483.977 171.356 480.354 169.71 476.731 168.065C474.865 167.187 473.109 166.42 471.242 165.652C469.376 164.884 467.4 164.226 465.314 163.787C463.229 163.348 461.143 163.129 458.947 163.238C456.752 163.348 454.556 164.006 452.69 165.323C450.714 166.639 449.396 168.723 448.847 170.917C448.298 173.111 448.298 175.305 448.738 177.389C449.067 179.473 449.835 181.448 450.604 183.422C451.372 185.287 452.141 187.042 452.909 188.907C454.446 192.527 455.654 196.256 456.752 199.986C458.728 207.555 459.716 215.343 459.386 223.241C459.167 231.029 457.849 238.818 455.764 246.386L455.434 247.813L454.995 249.239L454.117 252.091L453.239 254.943C452.909 255.93 452.58 256.807 452.251 257.685L450.165 263.17L447.75 268.654C447.31 269.532 446.981 270.519 446.542 271.397L445.225 274.03L442.7 279.405C440.833 282.915 439.077 286.425 437.101 289.935C433.368 296.846 429.197 303.647 425.025 310.338C416.572 323.721 407.351 336.775 397.58 349.17L397.47 349.28L397.361 349.389L362.67 420.471L358.279 429.356C356.852 432.318 355.535 435.28 354.108 438.351L345.764 456.341C342.361 463.581 339.068 470.821 335.665 478.17C333.469 482.887 331.273 487.604 329.188 492.321C335.225 480.584 341.263 468.846 347.301 457.109L356.303 439.448C357.84 436.486 359.377 433.634 360.804 430.673L365.085 421.788L399.666 350.815C409.546 338.31 418.658 325.257 427.111 311.874C431.392 305.073 435.454 298.272 439.297 291.252C441.273 287.741 443.029 284.231 444.895 280.721L447.53 275.346L448.847 272.604C449.287 271.726 449.616 270.739 450.055 269.861L452.47 264.376L454.666 258.782C454.995 257.795 455.434 256.917 455.764 255.93L456.642 253.078L457.52 250.226L457.959 248.8L458.288 247.374C460.484 239.586 461.801 231.578 462.021 223.57C462.35 215.453 461.362 207.335 459.276 199.547C458.179 195.598 456.861 191.869 455.324 188.139C454.556 186.274 453.787 184.409 453.019 182.654C452.251 180.899 451.592 179.144 451.372 177.279C451.043 175.415 451.043 173.659 451.482 172.014C451.921 170.369 452.909 168.943 454.227 167.955C455.544 166.968 457.3 166.529 459.167 166.42C460.923 166.31 462.899 166.529 464.656 166.858C466.522 167.297 468.278 167.846 470.145 168.613C471.901 169.381 473.767 170.259 475.524 171.027C479.147 172.672 482.66 174.427 486.173 176.182C493.198 179.802 500.115 183.751 506.262 188.468C509.336 190.881 512.3 193.404 514.825 196.366C516.142 197.792 517.35 199.328 518.338 200.864C519.436 202.399 520.314 204.154 521.082 205.909C521.851 207.665 522.4 209.42 522.729 211.284C523.059 213.04 523.168 215.124 523.388 217.098C523.607 221.047 523.717 224.996 523.607 228.945C523.498 235.198 523.278 241.56 522.729 247.813C523.937 246.606 524.705 246.167 525.364 245.728Z" fill="#EDCFC5"/>
<path d="M710.34 418.277L718.903 415.864L710.34 418.277Z" fill="#F45F63"/>
<path d="M733.068 439.448L736.251 436.267C740.423 431.77 744.485 427.163 748.547 422.555C756.67 413.341 764.574 404.017 772.369 394.474C774.015 392.389 775.662 390.415 777.309 388.331C777.748 387.783 777.968 387.453 777.968 387.453C777.968 387.453 778.297 387.124 778.846 386.466C780.493 384.382 782.139 382.188 783.676 379.994C787.189 375.058 790.592 369.902 793.556 364.637C795.093 362.004 796.411 359.262 797.618 356.52C798.716 353.777 799.814 350.925 799.924 348.183C800.033 346.757 799.814 345.441 799.265 344.453C798.935 344.015 798.606 343.576 798.057 343.247L796.191 342.15C793.666 340.724 790.812 339.846 787.958 339.188C782.139 337.981 776.101 338.42 770.503 340.175C767.648 341.053 765.014 342.479 762.708 344.124L761.83 344.782C761.501 345.002 761.281 345.221 761.061 345.55C760.513 346.099 759.964 346.537 759.415 347.086C758.317 348.183 757.219 349.28 756.012 350.377C751.511 354.545 746.79 358.494 741.96 362.443C737.239 366.392 732.409 370.231 727.688 374.071L726.261 375.277L719.016 415.864C718.467 419.484 715.832 422.446 712.319 423.433C709.136 424.311 705.623 425.298 702 426.395C707.599 429.466 713.198 433.306 718.687 438.022C721.541 440.436 724.066 442.959 726.152 445.591C727.359 444.604 728.567 443.617 729.665 442.52C730.762 441.533 731.97 440.545 733.068 439.448Z" fill="#E5AA20"/>
<path d="M340.932 786.849C345.652 781.913 350.263 776.977 354.874 771.931L368.816 757.012L462.238 656.752L479.913 637.775L502.198 625.27L551.599 597.627L557.088 594.556L557.198 594.446L557.308 594.336C575.751 578.101 594.084 561.647 611.868 544.754C616.369 540.476 620.76 536.198 625.151 531.92C627.347 529.726 629.433 527.532 631.628 525.338L634.812 521.938L636.349 520.293L637.886 518.537C638.764 517.55 639.533 516.563 640.411 515.685C640.191 515.685 638.874 515.795 636.678 515.795C636.349 516.124 636.129 516.453 635.8 516.782L634.263 518.537L632.726 520.183L629.652 523.583C627.457 525.777 625.371 527.971 623.175 530.165C618.784 534.443 614.393 538.721 610.002 542.999C592.218 559.892 573.994 576.236 555.551 592.471L478.376 635.691L478.156 635.8L478.047 635.91L366.73 755.257L352.788 770.176C348.177 775.112 343.457 780.158 338.956 785.094L311.511 815.26L303.387 824.145L285.273 844H286.591L312.828 816.467L340.932 786.849Z" fill="#EDCFC5"/>
<path d="M734.931 441.422L738.224 438.132C742.396 433.634 746.458 429.027 750.52 424.42C758.643 415.205 766.547 405.772 774.452 396.338C776.428 393.925 778.404 391.621 780.27 389.098C780.38 388.989 780.38 388.879 780.489 388.769C782.356 386.466 784.112 384.052 785.759 381.639C789.382 376.593 792.785 371.438 795.859 366.063C797.395 363.32 798.823 360.578 800.03 357.726C801.238 354.874 802.336 351.802 802.555 348.402C802.665 346.756 802.555 344.892 801.567 343.137C801.128 342.259 800.36 341.601 799.591 341.052L797.505 339.846C794.651 338.31 791.577 337.213 788.503 336.664C784.002 335.677 779.282 335.677 774.781 336.445C773.024 336.774 771.268 337.103 769.621 337.652C766.547 338.639 763.693 340.175 761.058 342.04L760.07 342.807C759.741 343.027 759.521 343.356 759.192 343.575C758.643 344.124 757.985 344.672 757.436 345.221C756.338 346.318 755.24 347.305 754.142 348.402C752.605 349.828 751.068 351.254 749.422 352.57C746.458 355.203 743.384 357.836 740.2 360.358C735.809 363.978 731.418 367.598 726.917 371.109L726.148 375.277L727.576 374.07C732.406 370.231 737.126 366.392 741.847 362.443C746.567 358.494 751.288 354.545 755.899 350.376C756.997 349.279 758.204 348.292 759.302 347.085C759.851 346.537 760.4 346.098 760.949 345.55C761.168 345.33 761.498 345.001 761.717 344.782L762.595 344.124C764.901 342.369 767.535 341.052 770.39 340.175C775.988 338.42 782.136 337.981 787.845 339.187C790.699 339.736 793.553 340.723 796.078 342.149L797.944 343.246C798.493 343.575 798.823 344.014 799.152 344.453C799.701 345.44 799.92 346.756 799.811 348.182C799.591 350.925 798.603 353.777 797.505 356.519C796.298 359.262 794.98 362.004 793.443 364.636C790.479 369.902 787.076 375.057 783.563 379.994C782.026 382.188 780.38 384.382 778.733 386.466C778.513 386.795 778.294 387.014 778.074 387.343C777.855 387.672 777.525 388.001 777.306 388.33C775.659 390.415 774.012 392.389 772.366 394.473C764.571 403.907 756.667 413.341 748.544 422.555C744.482 427.162 740.42 431.769 736.248 436.267L733.065 439.448C731.967 440.545 730.869 441.532 729.771 442.519C728.673 443.616 727.466 444.604 726.258 445.591C726.807 446.359 727.356 447.017 727.905 447.785C729.112 446.688 730.43 445.7 731.637 444.494C732.625 443.616 733.833 442.629 734.931 441.422Z" fill="#EDCFC5"/>
<path d="M632.399 389.646C630.642 387.891 629.325 385.806 628.227 383.613C626.8 380.76 625.702 377.689 624.605 374.618C624.056 373.082 623.617 371.546 623.068 370.12C622.738 369.352 622.519 368.694 622.189 368.146C622.08 367.816 621.86 367.597 621.75 367.488H621.641C620.104 367.707 618.457 367.926 617.03 368.146C616.261 368.255 615.493 368.365 614.834 368.584C614.176 368.694 613.407 369.023 613.188 369.242C613.188 369.242 613.297 369.462 613.297 369.572C613.297 369.681 613.517 369.791 613.517 369.901L613.846 370.339C614.176 370.778 614.395 371.107 614.615 371.546C615.493 373.082 616.042 374.618 616.591 376.153C617.688 379.225 618.457 382.406 619.116 385.587C619.335 386.794 619.555 388 619.774 389.207C623.397 391.84 627.349 394.582 631.411 397.324L632.399 389.646Z" fill="#1E2B3C"/>
<path d="M602.54 409.172C602.431 408.514 602.211 407.746 602.101 407.088C601.552 403.907 601.004 400.835 600.345 397.764C599.137 395.46 598.259 392.827 597.6 389.866C597.491 389.756 597.381 389.537 597.271 389.427C596.393 388.33 595.405 387.343 594.087 386.685C593.429 386.356 592.88 386.136 592.111 385.917C591.892 385.917 591.782 385.807 591.562 385.807C591.892 390.085 592.111 394.254 592.331 398.532C592.441 400.945 592.441 403.358 592.441 405.662C592.441 407.746 592.331 409.94 592.111 412.134L602.54 409.172Z" fill="#1E2B3C"/>
<path d="M640.302 515.684L582.668 633.825L676.639 695.692C678.286 693.279 679.713 690.756 680.921 688.014C682.128 685.381 683.116 682.639 683.885 679.787C685.202 674.192 685.312 668.269 683.336 663.113C682.897 661.797 682.348 660.481 681.689 659.274C681.36 658.616 681.031 658.067 680.701 657.409L679.494 655.544C677.847 653.021 676.42 650.498 674.993 647.866C672.248 642.6 669.833 637.116 668.186 631.302C667.747 629.876 667.418 628.45 667.088 626.914C666.979 626.146 666.759 625.488 666.649 624.72L666.32 622.527C666.1 621.101 665.991 619.565 665.881 618.029C665.881 617.261 665.881 616.493 665.881 615.726V614.629L665.991 613.532C666.1 610.46 666.649 607.498 667.528 604.537C667.967 603.111 668.625 601.685 669.284 600.259L671.26 596.309C676.639 585.889 681.909 575.358 686.849 564.718C691.789 554.077 696.509 543.327 700.462 532.358C704.304 521.389 707.597 510.09 708.366 498.572C708.695 492.868 708.475 487.054 707.268 481.46C706.609 478.717 705.731 475.975 704.633 473.343C703.535 470.71 702.108 468.187 700.681 465.773C697.937 460.837 693.655 456.669 689.264 453.049C684.763 449.32 679.933 446.029 674.883 442.848C680.152 445.48 685.312 448.442 690.142 451.842C694.973 455.243 699.583 459.192 703.096 464.238C706.39 469.284 708.695 474.988 710.012 480.802C711.33 486.725 711.549 492.758 711.22 498.682C710.342 510.638 707.048 522.156 703.096 533.235C699.144 544.314 694.314 555.174 689.374 565.815C684.324 576.455 679.054 586.985 673.675 597.406L672.029 600.588L670.162 627.463C670.382 628.45 670.711 629.437 670.931 630.424C671.48 632.509 672.138 634.483 672.907 636.458L770.721 679.129C770.721 679.129 784.114 641.174 763.585 633.605C733.835 622.526 729.773 595.871 730.102 582.378C731.419 535.32 739.104 502.082 737.348 477.072C736.579 465.774 733.835 456.23 727.797 447.784C727.248 447.016 726.699 446.358 726.15 445.59C724.064 442.957 721.539 440.434 718.685 438.021C713.086 433.304 707.487 429.575 701.998 426.393C669.943 435.608 626.031 448.881 625.153 447.345C624.274 447.235 623.506 447.016 622.737 446.577L582.448 426.393C581.68 426.503 580.802 426.503 580.033 426.284C578.496 425.955 577.289 424.967 576.41 423.87C576.191 423.651 576.081 423.432 575.862 423.103L572.897 421.567L573.007 417.728H572.897L573.776 417.508C573.776 417.289 573.666 416.96 573.666 416.74L569.714 397.105L541.94 396.557C536.012 399.189 530.083 401.493 524.045 403.577C522.509 404.125 520.972 404.674 519.435 405.113C517.898 405.552 516.361 406.1 514.714 406.539C513.177 406.977 511.64 407.526 509.994 407.965C508.457 408.403 506.81 408.733 505.163 409.062C498.796 410.378 492.319 411.475 485.732 411.914C484.964 412.024 484.086 412.023 483.317 412.023C483.098 422.773 483.647 432.756 486.281 441.86C487.269 448.771 488.916 454.914 491.441 459.521C522.289 514.368 616.48 516.123 636.46 515.794C638.765 515.684 639.973 515.684 640.302 515.684Z" fill="#1E2B3C"/>
<path d="M676.641 695.693C676.641 695.583 676.641 695.693 676.641 695.693C680.484 691.086 683.448 685.93 685.314 680.226C687.18 674.522 687.729 668.269 685.972 662.236L685.643 661.139L685.204 660.042C684.875 659.274 684.545 658.616 684.216 657.958C683.887 657.3 683.448 656.642 683.008 655.984L681.801 654.119C680.264 651.706 678.837 649.182 677.41 646.55C675.653 643.259 674.116 639.968 672.909 636.568C672.14 634.593 671.482 632.619 670.933 630.535C670.713 629.547 670.384 628.56 670.164 627.573C670.054 627.134 669.945 626.805 669.835 626.366C669.725 625.708 669.506 624.94 669.396 624.282L669.066 622.198C668.847 620.772 668.737 619.346 668.627 617.92C668.627 617.262 668.627 616.494 668.627 615.835V614.738L668.737 613.642C668.847 610.789 669.286 608.047 670.164 605.305C670.603 603.989 671.152 602.672 671.701 601.466L672.03 600.807L673.677 597.626C679.056 587.205 684.326 576.675 689.376 566.034C694.316 555.394 699.146 544.534 703.098 533.455C707.05 522.376 710.344 510.858 711.222 498.902C711.551 492.978 711.332 486.835 710.014 481.021C708.697 475.098 706.392 469.503 703.098 464.457C699.695 459.412 694.974 455.463 690.144 452.062C685.314 448.661 680.154 445.7 674.885 443.067C679.825 446.248 684.765 449.539 689.266 453.269C693.767 456.998 697.938 461.057 700.683 465.993C702.22 468.407 703.537 470.93 704.635 473.562C705.733 476.195 706.611 478.937 707.27 481.679C708.477 487.274 708.807 493.088 708.368 498.792C707.489 510.31 704.306 521.608 700.463 532.578C696.511 543.547 691.791 554.297 686.851 564.937C681.801 575.578 676.641 585.999 671.262 596.529L669.286 600.478C668.627 601.904 667.969 603.33 667.53 604.756C666.651 607.718 666.102 610.68 665.993 613.751L665.883 614.848V615.945C665.883 616.713 665.883 617.481 665.883 618.249C665.993 619.784 666.102 621.21 666.322 622.746L666.651 624.94C666.761 625.708 666.981 626.366 667.09 627.134C667.42 628.56 667.749 630.096 668.188 631.522C669.835 637.226 672.14 642.82 674.995 648.086C676.422 650.718 677.849 653.351 679.495 655.764L680.703 657.629C681.032 658.177 681.472 658.836 681.691 659.494C682.35 660.7 682.899 662.017 683.338 663.333C685.314 668.598 685.314 674.412 683.887 680.006C683.228 682.859 682.24 685.601 680.923 688.234C679.715 690.647 678.288 693.28 676.641 695.693Z" fill="#EDCFC5"/>
<path d="M569.605 196.914C570.045 196.914 570.594 196.804 571.033 196.585L569.605 200.534C565.105 213.039 571.472 226.75 583.987 231.358C589.256 233.332 594.855 233.222 599.795 231.577L603.308 221.814C599.905 220.498 597.27 218.085 595.733 214.794C595.404 214.136 595.733 213.258 596.392 212.929C597.05 212.6 597.929 212.929 598.258 213.587C599.466 216.22 601.661 218.194 604.296 219.182L606.711 212.6L615.274 215.671L619.116 205.031C623.617 192.526 617.25 178.814 604.735 174.207C593.318 170.039 580.913 175.085 575.314 185.506C574.875 186.383 573.558 186.383 573.228 185.506C572.46 183.86 571.252 182.763 569.935 182.763C567.52 182.763 565.544 185.835 565.544 189.784C565.434 193.623 567.3 196.804 569.605 196.914Z" fill="#1E2B3C"/>
<path d="M598.252 213.478C597.922 212.82 597.154 212.49 596.386 212.82C595.727 213.149 595.398 213.916 595.727 214.684C597.264 217.975 599.898 220.388 603.302 221.705L604.29 219.182C601.655 218.085 599.459 216.11 598.252 213.478Z" fill="#EDCFC5"/>
<path d="M573.008 417.838L572.898 421.677L575.863 423.213C574.765 421.677 574.216 420.032 573.886 418.277L573.008 417.838Z" fill="white"/>
<path d="M622.736 442.738C623.943 443.396 625.371 443.616 626.688 443.506C626.798 442.738 626.908 441.751 627.017 440.654L710.34 418.167L627.017 440.654L639.422 355.312C639.642 353.776 640.85 352.46 642.387 352.131L728.344 333.812C729.552 333.593 730.759 333.922 731.637 334.689C730.32 333.263 728.124 332.166 726.478 332.496L686.957 340.942L640.52 350.815C639.313 351.034 638.325 351.912 637.776 353.009C637.776 353.118 637.666 353.228 637.666 353.337C637.556 353.557 637.556 353.776 637.556 353.996L632.506 388.549L632.287 389.646L631.189 397.325L630.64 400.945L620.76 403.797C620.76 404.126 620.76 404.565 620.76 404.894C620.65 408.184 620.431 411.475 619.552 414.657C619.113 416.302 618.455 417.947 617.466 419.483C617.247 419.922 616.918 420.251 616.588 420.58C616.259 420.909 615.93 421.238 615.49 421.567C614.722 422.116 613.734 422.554 612.856 422.774C612.417 422.884 611.868 422.993 611.319 422.993C610.77 422.993 610.221 422.993 609.782 422.774C609.233 422.664 608.794 422.445 608.355 422.116C607.916 421.787 607.477 421.567 607.147 421.128C605.72 419.702 605.061 418.167 604.403 416.521C603.415 414.108 602.866 411.585 602.427 409.062L591.998 412.134C591.998 412.353 591.888 412.682 591.888 412.901C591.558 415.315 590.9 417.838 589.692 420.141C588.924 421.787 587.826 423.322 586.289 424.529L622.736 442.738Z" fill="#F89FA1"/>
<path d="M573.777 417.509L572.898 417.729H573.008L573.886 418.168C573.886 418.058 573.886 417.729 573.777 417.509Z" fill="#F45F63"/>
<path d="M485.62 410.487C491.987 409.61 498.354 408.184 504.502 406.538C507.576 405.661 510.759 404.783 513.833 403.906C515.37 403.467 516.907 402.919 518.444 402.48C519.981 402.041 521.518 401.493 523.055 400.944C529.093 398.86 535.24 396.556 541.059 393.924L541.388 393.814H541.717L570.809 394.363H571.907L572.126 395.459L576.298 416.192C576.627 418.385 577.176 420.579 578.493 422.005C579.701 423.541 581.567 424.09 583.214 423.212C584.97 422.444 586.288 420.689 587.276 418.715C588.264 416.74 588.813 414.546 589.142 412.352C589.471 410.158 589.581 407.855 589.581 405.441C589.581 403.138 589.581 400.725 589.471 398.421C589.252 393.704 589.032 388.988 588.593 384.271L588.483 382.845L589.801 382.735C590.899 382.735 591.667 382.845 592.655 383.064C593.533 383.283 594.411 383.612 595.18 384.051C596.827 384.929 598.144 386.136 599.242 387.562C600.34 388.988 600.998 390.633 601.547 392.278C602.096 393.814 602.425 395.459 602.755 396.995C603.413 400.176 603.962 403.357 604.511 406.429C605.17 409.5 605.719 412.572 606.817 415.424C607.365 416.85 608.024 418.166 608.902 419.044C609.122 419.263 609.342 419.373 609.561 419.592C609.781 419.702 610 419.812 610.33 419.921C610.878 420.141 611.427 420.031 611.976 419.921C614.391 419.373 615.928 416.74 616.697 413.888C617.465 411.036 617.795 407.855 617.795 404.783C617.795 401.712 617.685 398.531 617.355 395.35C617.026 392.278 616.587 389.097 615.928 386.026C615.27 382.954 614.611 379.883 613.513 376.921C612.964 375.495 612.415 374.069 611.757 372.753C611.537 372.424 611.427 372.095 611.208 371.875L611.098 371.656L610.878 371.327C610.769 371.107 610.549 370.998 610.439 370.778C610.33 370.559 610.11 370.34 610 370.01L609.89 369.572C609.89 369.352 609.781 369.133 609.781 369.023C609.781 368.694 609.89 368.146 610.11 367.817C610.22 367.597 610.33 367.488 610.439 367.268C610.549 367.158 610.659 367.049 610.769 366.939C611.757 366.171 612.635 365.952 613.513 365.732C614.391 365.513 615.16 365.403 616.038 365.294C617.685 365.074 619.331 364.964 620.868 364.855H621.198C621.417 364.855 621.747 364.855 621.966 364.964C622.405 365.074 622.735 365.403 622.954 365.623C623.393 366.061 623.613 366.5 623.832 366.939C624.272 367.707 624.491 368.584 624.711 369.352C625.15 370.888 625.589 372.424 626.028 373.959C626.906 377.031 627.785 380.102 628.992 382.954C629.87 384.929 630.858 386.793 632.176 388.439L637.226 353.885C637.226 353.666 637.335 353.447 637.335 353.227C635.689 351.691 633.932 350.265 632.176 348.839C629.651 346.865 627.016 345 624.162 343.684C621.417 342.258 618.343 341.49 615.27 340.942C612.196 340.283 609.012 339.844 605.938 339.735C605.17 339.735 604.401 339.625 603.633 339.625C602.865 339.625 601.986 339.625 601.328 339.735C599.9 339.954 598.254 340.283 596.717 340.612L587.276 342.696L568.394 346.975C543.254 352.788 518.115 358.822 493.085 364.745L488.694 365.732L491.658 362.441L515.809 335.895C517.895 333.702 519.761 331.398 521.847 329.314L528.214 322.952C532.496 318.673 536.667 314.505 540.949 310.337C537.216 315.054 533.374 319.661 529.532 324.268L523.823 331.179C521.957 333.482 519.761 335.566 517.785 337.87L496.598 361.125C520.2 355.531 543.913 349.827 567.625 344.342L586.507 340.064L595.948 337.98L598.364 337.541C599.132 337.431 599.9 337.212 600.888 337.102C601.876 336.993 602.645 336.992 603.413 336.992C604.292 336.992 605.06 336.993 605.938 337.102C607.585 337.212 609.232 337.322 610.878 337.541C612.525 337.76 614.172 337.98 615.819 338.309C619.002 339.077 622.186 340.283 625.04 342.038C627.894 343.794 630.419 345.878 632.725 348.181C634.371 349.717 635.908 351.362 637.335 353.008C637.774 351.911 638.762 351.033 640.08 350.814L686.517 340.942C682.784 339.077 678.722 337.541 674.551 336.225C670.818 335.128 664.78 334.47 657.425 334.031C639.97 333.153 615.709 334.031 599.681 334.908C600.559 328.107 601.437 321.196 602.206 314.505C606.597 275.235 607.914 242.875 564.442 239.145C560.49 238.597 556.318 238.487 552.146 238.816C551.268 238.816 550.5 238.816 549.621 238.926C543.254 239.255 537.106 240.023 531.508 242.765V242.546C531.508 242.546 529.093 243.533 525.031 245.837C524.262 246.275 523.494 246.714 522.725 247.153C505.38 257.026 466.518 283.681 444.123 334.36C424.692 378.347 434.682 406.758 465.969 411.146C472.776 411.694 479.253 411.255 485.62 410.487Z" fill="#1E2B3C"/>
<path d="M633.273 348.291C630.858 346.097 628.443 344.012 625.589 342.148C622.734 340.392 619.551 339.186 616.367 338.418C614.72 338.089 613.074 337.87 611.427 337.65C609.78 337.431 608.134 337.321 606.487 337.211C605.609 337.211 604.84 337.102 603.962 337.102C603.084 337.102 602.315 337.102 601.437 337.211C600.449 337.321 599.79 337.541 598.912 337.65L596.497 338.089L587.056 340.173L568.174 344.451C544.461 349.936 520.859 355.53 497.146 361.234L518.334 337.979C520.31 335.785 522.505 333.592 524.372 331.288L530.08 324.377C533.923 319.77 537.765 315.163 541.497 310.446C537.216 314.614 532.935 318.892 528.763 323.061L522.396 329.423C520.2 331.507 518.334 333.811 516.358 336.005L492.206 362.551L489.242 365.842L493.633 364.854C518.773 358.821 543.803 352.898 568.942 347.084L587.824 342.806L597.265 340.721C598.802 340.392 600.449 340.064 601.876 339.844C602.535 339.734 603.413 339.734 604.182 339.734C604.95 339.734 605.718 339.734 606.487 339.844C609.671 340.064 612.744 340.392 615.818 341.051C618.892 341.599 621.966 342.367 624.71 343.793C627.455 345.219 630.199 346.974 632.724 348.949C634.481 350.375 636.237 351.801 637.884 353.336C637.884 353.227 637.994 353.117 637.994 353.007C636.347 351.362 634.92 349.826 633.273 348.291Z" fill="#EDCFC5"/>
<path d="M485.843 411.805C492.32 411.366 498.797 410.269 505.274 408.953C506.921 408.624 508.458 408.295 510.105 407.856C511.642 407.417 513.288 406.978 514.825 406.43C516.362 405.991 517.899 405.443 519.546 405.004C521.083 404.565 522.62 404.017 524.157 403.468C530.194 401.384 536.232 399.08 542.051 396.448L569.825 396.996L573.777 416.631C573.777 416.851 573.887 417.18 573.887 417.399C573.887 417.619 573.997 417.948 573.997 418.167C574.326 419.812 574.875 421.568 575.973 423.103C576.192 423.323 576.302 423.542 576.522 423.871C577.4 424.968 578.607 425.846 580.144 426.284C580.913 426.504 581.791 426.504 582.559 426.394C583.218 426.284 583.987 426.065 584.535 425.846C585.304 425.517 585.963 425.078 586.621 424.529C588.048 423.323 589.146 421.677 590.024 420.142C591.122 417.838 591.781 415.425 592.22 412.902C592.22 412.682 592.33 412.353 592.33 412.134C592.659 409.94 592.659 407.746 592.659 405.662C592.659 403.249 592.659 400.835 592.549 398.532C592.44 394.254 592.11 390.085 591.781 385.807C592 385.807 592.22 385.917 592.33 385.917C592.988 386.027 593.647 386.356 594.306 386.685C595.513 387.343 596.611 388.221 597.489 389.427C597.599 389.537 597.709 389.756 597.819 389.866C598.477 390.853 599.026 392.06 599.356 393.267C599.795 394.693 600.234 396.228 600.563 397.764C601.222 400.835 601.771 403.907 602.32 407.088C602.43 407.746 602.539 408.514 602.759 409.172C603.308 411.695 603.857 414.108 604.735 416.631C605.394 418.167 606.162 419.813 607.479 421.239C607.809 421.568 608.248 421.897 608.687 422.226C609.126 422.445 609.565 422.774 610.114 422.884C610.663 423.103 611.102 423.103 611.651 423.103C612.2 423.103 612.639 422.994 613.188 422.884C614.066 422.665 615.054 422.226 615.823 421.677C616.262 421.348 616.591 421.129 616.92 420.69C617.25 420.361 617.579 420.032 617.799 419.593C618.787 418.057 619.445 416.412 619.885 414.766C620.763 411.476 620.982 408.185 621.092 405.004C621.092 404.675 621.092 404.236 621.092 403.907C621.092 401.055 620.873 398.093 620.653 395.241C620.433 393.267 620.214 391.292 619.885 389.317C619.665 388.111 619.445 386.904 619.226 385.697C618.567 382.516 617.799 379.335 616.701 376.264C616.152 374.728 615.603 373.193 614.725 371.657C614.505 371.328 614.286 370.889 613.956 370.45L613.627 370.011C613.517 369.902 613.407 369.792 613.407 369.682C613.407 369.573 613.188 369.463 613.298 369.353C613.517 369.134 614.286 368.914 614.944 368.695C615.603 368.585 616.372 368.366 617.14 368.256C618.677 368.037 620.214 367.817 621.751 367.598H621.861C621.97 367.708 622.19 367.927 622.3 368.256C622.629 368.805 622.958 369.573 623.178 370.231C623.727 371.657 624.276 373.192 624.715 374.728C625.703 377.799 626.801 380.761 628.338 383.723C629.435 385.917 630.753 388.001 632.509 389.756L632.729 388.659C631.411 387.014 630.423 385.149 629.545 383.175C628.338 380.323 627.459 377.251 626.581 374.18C626.142 372.644 625.703 371.108 625.264 369.572C625.044 368.805 624.715 368.037 624.385 367.159C624.166 366.72 623.946 366.282 623.507 365.843C623.288 365.624 622.958 365.404 622.519 365.185C622.3 365.075 622.08 365.075 621.751 365.075H621.421C619.775 365.185 618.238 365.294 616.591 365.514C615.823 365.624 614.944 365.733 614.066 365.953C613.188 366.172 612.31 366.391 611.322 367.159C611.212 367.269 611.102 367.379 610.992 367.488C610.883 367.598 610.773 367.817 610.663 368.037C610.443 368.366 610.334 368.914 610.334 369.243C610.334 369.463 610.334 369.682 610.443 369.792L610.553 370.231C610.663 370.56 610.773 370.779 610.992 370.999C611.102 371.218 611.322 371.437 611.431 371.547L611.651 371.876L611.761 372.096C611.98 372.315 612.09 372.644 612.31 372.973C612.968 374.18 613.627 375.716 614.066 377.142C615.054 380.103 615.823 383.175 616.481 386.246C617.14 389.317 617.579 392.389 617.908 395.57C618.238 398.641 618.457 401.823 618.348 405.004C618.238 408.075 618.018 411.256 617.25 414.108C616.481 416.96 614.944 419.703 612.529 420.142C611.98 420.251 611.322 420.361 610.883 420.142C610.663 420.142 610.443 419.922 610.114 419.812C609.895 419.593 609.675 419.483 609.455 419.264C608.577 418.386 607.919 417.07 607.37 415.644C606.272 412.792 605.723 409.721 605.064 406.649C604.515 403.578 603.966 400.396 603.308 397.215C602.978 395.68 602.539 394.034 602.1 392.499C601.551 390.963 600.893 389.208 599.795 387.782C598.697 386.356 597.38 385.149 595.733 384.272C594.965 383.833 594.086 383.504 593.208 383.284C592.33 383.065 591.452 382.955 590.354 382.955L589.036 383.065L589.146 384.491C589.585 389.208 589.805 393.925 590.024 398.641C590.134 400.945 590.134 403.358 590.134 405.662C590.134 408.075 590.024 410.269 589.695 412.573C589.366 414.766 588.707 416.96 587.829 418.935C586.841 420.909 585.523 422.665 583.767 423.432C582.01 424.2 580.254 423.761 579.046 422.226C577.839 420.69 577.18 418.496 576.851 416.412L572.679 395.68L572.46 394.583H571.362L542.27 394.034H541.941L541.612 394.144C535.793 396.777 529.755 399.08 523.608 401.164C522.071 401.713 520.534 402.261 518.997 402.7C517.46 403.139 515.923 403.687 514.386 404.126C511.312 405.004 508.129 405.881 505.055 406.759C498.797 408.404 492.54 409.94 486.173 410.708C479.806 411.476 473.329 411.915 466.852 411.366C472.45 412.353 478.159 412.463 483.867 412.244C484.197 411.915 484.965 411.914 485.843 411.805Z" fill="#EDCFC5"/>
<path d="M732.843 338.201C733.063 336.775 732.514 335.458 731.636 334.69C730.757 333.923 729.55 333.594 728.342 333.813L642.385 352.132C640.848 352.461 639.64 353.777 639.421 355.313L627.016 440.655L710.338 418.168L718.901 415.864L726.147 375.277L726.915 371.109L728.342 363.211L732.843 338.201Z" fill="white"/>
<path d="M718.905 415.864L710.343 418.167L627.02 440.655C626.91 441.752 626.8 442.629 626.69 443.507C625.373 443.617 623.946 443.397 622.738 442.739L586.511 424.53C585.852 425.078 585.194 425.517 584.425 425.846C583.767 426.175 583.108 426.285 582.449 426.395L622.738 446.578C623.507 447.017 624.275 447.237 625.154 447.346C626.032 448.882 669.944 435.609 701.999 426.395C705.622 425.298 709.135 424.31 712.319 423.433C715.832 422.555 718.466 419.593 718.905 415.864Z" fill="white"/>
</svg>
