<svg width="1195" height="844" viewBox="0 0 1195 844" fill="none" xmlns="http://www.w3.org/2000/svg">
<path d="M856.688 114.105C870.383 114.105 881.773 124.275 883.536 137.428C883.671 138.512 885.027 138.919 885.841 138.241C887.333 136.749 888.96 136.071 890.451 136.614C893.028 137.427 893.841 141.631 892.35 145.834C890.858 150.037 887.604 152.749 885.163 151.8C884.621 151.664 884.214 151.258 883.807 150.851V155.597C883.807 159.801 882.858 163.732 881.095 167.394C890.722 169.292 900.892 169.021 910.926 166.173C916.621 164.546 921.909 161.97 926.791 158.987C936.96 183.801 964.351 197.225 990.52 189.632C1009.64 183.937 1023.2 168.343 1027.27 150.173C1033.37 151.665 1040.01 151.664 1046.66 149.766C1066.18 144.071 1077.3 123.597 1071.61 104.071C1065.91 84.5453 1045.44 73.4266 1025.91 79.1216C1016.96 81.8335 1009.64 87.5281 1005.03 94.9858C992.419 86.5789 976.419 83.5959 960.69 88.2061C958.113 89.0197 955.673 89.969 953.232 91.0537C953.096 90.5113 952.961 89.9687 952.825 89.4263C943.198 56.6123 908.757 37.9003 875.943 47.5275C843.129 57.1548 824.416 91.5962 834.044 124.41C834.179 124.953 834.315 125.359 834.451 125.766C839.468 118.715 847.468 114.105 856.688 114.105Z" fill="#E5AA20"/>
<path d="M227.258 242.513L226.852 244.004C226.987 243.869 227.258 243.869 227.394 243.734C227.258 243.327 227.258 242.92 227.258 242.513Z" fill="#1E2B3C"/>
<path d="M128.277 396.686C128.277 385.025 129.497 373.77 131.667 362.787L106.039 373.092C104.276 373.092 102.514 372.957 100.615 372.821C93.4287 372.007 85.971 371.737 79.3268 372.008C68.886 372.008 59.1231 372.821 53.5637 376.211C42.5805 382.991 31.3261 389.5 29.4278 397.771C29.021 398.72 28.6142 399.805 28.343 400.889C27.3939 401.432 26.3091 401.974 25.2244 402.652C19.2582 405.906 8.27498 412.415 16.0039 417.975C16.5463 418.381 17.0887 418.517 17.631 418.788C17.7666 418.788 17.7666 418.788 17.9022 418.788C18.8514 418.788 19.9361 418.517 20.8853 418.245C22.9192 417.703 24.8176 417.025 26.7159 416.211C30.6482 415.127 34.5804 413.635 38.5127 412.279C46.3772 409.432 54.3773 406.313 62.9198 404.957C65.0893 404.686 67.2589 404.279 69.4284 404.279C71.5979 404.144 73.6318 404.279 75.6658 404.008C79.7336 403.737 83.8015 403.059 87.7337 401.839C91.666 400.754 95.4626 399.262 99.2593 397.364C103.192 396.008 107.259 394.516 111.327 393.296C107.802 395.737 104.412 398.178 100.751 400.347C96.9542 402.11 92.8863 403.737 88.6829 404.957C84.4794 406.178 80.276 406.856 75.9369 407.127C73.7674 407.263 71.5979 407.262 69.564 407.398C67.8012 407.398 66.0385 407.669 64.2758 407.941C65.9029 409.432 67.53 410.924 69.0216 412.687C71.1911 415.127 73.225 417.703 74.8522 420.551C75.6658 422.042 76.3437 423.67 76.7505 425.432C76.7505 426.246 76.4793 427.195 76.2081 428.008C80.5472 427.737 84.4794 427.059 88.1405 426.11C94.5135 424.619 102.649 418.652 109.7 412.822C114.717 412.415 121.361 411.873 129.09 411.059C128.412 406.449 128.277 401.567 128.277 396.686Z" fill="#1E2B3C"/>
<path d="M386.717 537.434C374.107 545.569 360.276 552.213 345.496 556.688C345.496 556.959 345.361 557.23 345.361 557.366C344.818 559.4 344.005 561.434 342.649 563.332C341.293 565.23 339.395 566.722 337.225 567.535C336.14 567.942 335.056 568.213 333.835 568.213C332.615 568.349 331.53 568.214 330.31 567.943C329.225 567.671 328.14 567.264 327.191 566.722C326.649 566.451 326.242 566.18 325.835 565.773C324.886 566.722 324.072 567.536 322.988 568.349C321.496 569.434 319.869 570.519 317.699 571.061C316.479 571.197 315.665 571.197 314.716 571.061L312.004 570.925C311.055 570.925 310.242 570.654 309.428 570.383C309.157 570.247 308.886 570.247 308.615 570.112C308.615 571.603 308.479 572.959 308.208 574.315C307.801 576.349 307.123 578.248 306.309 580.146C306.716 578.112 306.716 576.078 306.716 574.179C306.716 572.281 306.445 570.248 305.767 568.621L304.953 566.722L307.259 566.993C308.886 567.264 310.648 567.128 312.276 567.4C313.089 567.535 313.903 567.671 314.716 567.671C315.53 567.671 316.479 567.671 316.886 567.671C318.106 567.4 319.462 566.586 320.682 565.637C321.903 564.688 323.123 563.468 324.072 562.247L325.293 560.891L326.649 562.112C327.869 563.196 329.496 564.146 330.988 564.553C331.801 564.824 332.615 564.824 333.428 564.824C334.242 564.824 335.056 564.552 335.869 564.281C339.123 563.197 341.022 560.078 341.971 556.417C342.92 552.892 343.056 548.959 342.92 545.026C342.784 541.094 342.242 537.298 341.564 533.366C340.886 529.569 340.073 525.636 338.717 521.975C337.496 518.314 336.005 514.518 334.513 510.857C333.7 509.094 333.022 507.196 332.208 505.433C331.801 504.484 331.395 503.67 331.123 502.585L330.174 499.738L326.377 488.348C330.717 391.126 325.564 302.989 304.275 229.09C307.53 229.225 310.784 229.497 314.038 229.904C302.377 192.344 281.36 174.174 253.834 183.259C227.664 191.937 223.596 216.48 227.664 240.073L227.393 241.158C227.664 241.836 227.935 242.379 228.207 243.057C233.224 240.887 238.512 238.853 243.8 237.09C242.58 231.667 241.359 226.242 240.139 220.954C243.8 232.073 247.19 243.192 250.58 254.446C251.393 257.294 252.343 260.006 253.156 262.854L255.461 271.26L260.071 288.209L278.377 355.871V356.007V356.143L283.665 491.874V492.009V492.144L281.902 508.145C281.36 513.569 280.275 518.857 279.326 524.145C278.784 526.857 278.241 529.434 277.699 532.01C277.428 533.366 277.021 534.586 276.885 535.942C276.614 537.162 276.614 538.518 276.614 539.874C276.614 541.23 276.75 542.45 276.885 543.806C277.021 545.162 277.156 546.518 277.428 547.738C277.699 549.094 277.97 550.315 278.512 551.535L280.004 555.332V555.196C281.089 557.637 282.038 560.484 283.258 563.332C254.783 561.162 228.342 551.942 205.698 537.298C163.799 637.774 100.747 682.927 97.0861 684.689C92.3403 686.995 61.5602 696.622 35.5259 665.978C19.5257 647.13 0 669.774 0 669.774L53.0177 797.505C53.0177 797.505 210.444 743.674 285.563 569.163C288.411 575.943 291.801 582.587 296.275 586.248C299.801 589.095 302.648 587.468 304.547 584.078C317.971 602.248 333.293 619.062 349.971 634.248C365.836 648.893 383.056 662.045 401.09 673.842C413.836 682.249 427.125 689.843 440.82 696.758C446.108 699.47 453.159 701.368 457.905 705.029C462.515 708.419 481.498 722.114 465.498 758.996C455.6 781.64 487.193 798.861 487.193 798.861L570.991 675.469C570.584 675.876 459.532 629.91 386.717 537.434Z" fill="#1E2B3C"/>
<path d="M228.343 243.326C228.072 242.784 227.801 242.106 227.53 241.428C227.258 240.886 227.123 240.479 226.852 239.937C226.987 240.75 227.123 241.564 227.123 242.513C227.123 242.92 227.258 243.327 227.258 243.734C227.665 243.598 227.936 243.462 228.343 243.326Z" fill="#EDCFC5"/>
<path d="M73.2204 426.245C72.9492 424.89 72.4069 423.669 71.7289 422.313C70.3729 419.736 68.4746 417.296 66.4407 414.991C64.4068 412.821 62.2372 410.787 59.9321 408.889C58.5762 409.16 57.2202 409.567 55.8643 409.974C55.8643 409.974 55.8643 409.974 55.8643 410.109C57.0846 414.313 58.4406 418.38 60.2033 422.313C61.5592 425.703 62.7796 429.093 63.322 432.89C67.1187 435.33 71.8645 433.432 73.6272 430.178C73.8984 429.635 74.1696 429.092 74.1696 428.414C74.034 427.601 73.6272 426.923 73.2204 426.245Z" fill="#1E2B3C"/>
<path d="M74.7109 420.687C73.0837 417.704 71.0498 415.127 68.8803 412.822C67.3888 411.195 65.7616 409.567 64.1345 408.076C65.8972 407.805 67.6599 407.534 69.4227 407.534C71.4566 407.398 73.7617 407.534 75.7956 407.263C80.1347 406.992 84.3381 406.178 88.5416 405.093C92.745 404.008 96.6773 402.246 100.61 400.483C104.271 398.178 107.66 395.737 111.186 393.432C107.118 394.517 103.05 396.144 99.118 397.5C95.3214 399.262 91.5247 400.889 87.5924 401.974C83.6602 403.059 79.5923 403.737 75.5244 404.144C73.4905 404.279 71.4566 404.28 69.2871 404.415C67.1176 404.415 64.948 404.686 62.7785 405.093C54.236 406.585 46.2359 409.568 38.3714 412.415C34.4391 413.907 30.5069 415.263 26.5746 416.347C24.6763 417.161 22.778 417.839 20.744 418.381C19.7949 418.652 18.7101 418.788 17.7609 418.924C17.6253 418.924 17.6253 418.924 17.4897 418.924C16.5406 418.924 15.5914 418.924 14.7778 418.517C15.5914 419.195 16.6762 419.737 17.7609 419.873C18.8457 420.144 19.9305 420.144 21.0152 420.279C23.1847 420.279 25.3543 420.008 27.5238 419.737C27.5238 419.737 27.5238 419.737 27.6594 419.737C31.5916 418.652 35.3883 417.297 39.185 415.805C39.185 417.161 39.3206 418.381 39.4562 419.601L39.9985 422.449L40.2697 423.805C40.2697 424.212 40.2697 424.754 40.4053 425.161C40.5409 426.11 40.4053 426.924 40.4053 427.737C40.2697 428.551 40.1341 429.365 39.8629 430.178C39.3205 431.67 38.3714 433.026 37.151 433.432C36.7442 433.839 36.3375 434.111 35.7951 434.246C35.5239 434.382 35.3883 434.381 35.1171 434.517C34.3035 434.653 33.3544 434.653 32.5408 434.11C32.812 435.195 33.7612 436.009 34.8459 436.416C35.9307 436.823 37.2866 436.958 38.507 436.551C40.8121 435.466 42.3036 433.432 42.9816 431.263C43.3884 430.178 43.524 429.093 43.6596 428.009C43.6596 427.331 43.7952 426.788 43.7952 426.11C43.7952 425.704 43.7952 425.297 43.7952 424.754C43.7952 424.212 43.7952 423.67 43.6596 423.263L43.3884 421.771L42.846 418.924C42.5748 417.432 42.5748 415.941 42.5748 414.313C45.9647 413.093 49.219 411.873 52.6089 410.924C52.6089 410.924 52.6089 410.924 52.6089 411.059C53.8292 415.263 55.3208 419.601 57.0835 423.669C58.7107 427.602 60.0666 431.67 60.3378 435.738C60.4734 437.772 60.2022 439.805 59.5242 441.432C59.3886 442.382 59.1174 443.331 58.5751 444.144C58.4395 444.28 58.4395 444.416 58.3039 444.552C57.7615 445.229 57.2191 445.907 56.4056 446.45C58.7107 446.585 61.1514 444.958 62.6429 442.788C63.5921 440.348 63.8633 437.907 63.7277 435.602C63.7277 434.653 63.5921 433.839 63.4565 432.89C62.9141 429.229 61.6938 425.703 60.3378 422.313C58.7107 418.381 57.2191 414.313 55.9988 410.11C55.9988 410.11 55.9988 410.11 55.9988 409.975C57.3547 409.568 58.7107 409.296 60.0666 408.89C62.3717 410.788 64.5413 412.822 66.5752 414.991C68.6091 417.296 70.5074 419.737 71.8634 422.313C72.5414 423.534 73.0837 424.89 73.3549 426.246C73.7617 426.924 74.1685 427.602 74.3041 428.415C74.4397 429.093 74.5753 429.771 74.4397 430.585C75.1177 430.042 75.6601 429.229 76.0668 428.28C76.338 427.467 76.6092 426.517 76.6092 425.703C76.2024 423.805 75.5245 422.178 74.7109 420.687Z" fill="#EDCFC5"/>
<path d="M59.3918 441.432C60.2053 439.805 60.3409 437.771 60.2053 435.737C59.9341 431.669 58.7138 427.601 56.9511 423.669C55.1883 419.601 53.6968 415.262 52.4764 411.059C52.4764 411.059 52.4764 411.058 52.4764 410.923C49.0865 412.008 45.8323 413.092 42.4424 414.313C42.4424 415.804 42.4424 417.296 42.7136 418.923L43.2559 421.77L43.5271 423.262C43.6627 423.805 43.6627 424.347 43.6627 424.754C43.6627 425.161 43.6627 425.567 43.6627 426.11C46.917 436.144 49.6289 447.262 55.8663 445.5C56.6799 445.228 57.4934 444.957 58.1714 444.415C58.307 444.28 58.307 444.144 58.4426 444.008C58.8494 443.33 59.2562 442.381 59.3918 441.432Z" fill="#1E2B3C"/>
<path d="M39.7298 430.041C40.001 429.363 40.1366 428.414 40.2722 427.601C40.2722 426.787 40.4078 425.837 40.2722 425.024C40.2722 424.617 40.2722 424.21 40.1366 423.668L39.8654 422.312L39.323 419.465C39.1874 418.245 39.0518 416.888 39.0518 415.668C35.2552 417.024 31.4585 418.38 27.5262 419.6C27.5262 419.6 27.5262 419.6 27.3906 419.6C28.611 425.973 31.0517 430.99 32.4076 432.889C33.0856 433.838 34.1704 434.245 35.5263 434.245C36.0687 433.974 36.4755 433.838 36.8823 433.431C38.2382 432.889 39.1874 431.533 39.7298 430.041Z" fill="#1E2B3C"/>
<path d="M215.732 154.106V163.191L216.681 161.835C217.088 161.835 217.495 161.699 217.902 161.699C218.715 161.564 219.529 161.292 220.207 161.021C220.885 160.75 221.698 160.343 222.376 159.936C222.647 159.665 223.054 159.529 223.325 159.258C224.003 159.394 224.546 159.53 225.359 159.665C225.495 160.479 225.495 161.156 225.359 161.97C224.953 162.241 224.546 162.648 224.139 162.919C223.325 163.462 222.376 164.004 221.427 164.411C220.478 164.818 219.529 165.089 218.444 165.225C217.902 165.36 217.495 165.36 216.952 165.496C216.546 165.089 216.003 164.682 215.732 164.14V177.157C220.342 180.818 226.173 183.123 232.682 183.123C247.733 183.123 259.801 170.919 259.801 156.004V151.258C260.207 151.665 260.614 152.072 261.157 152.208C263.733 153.021 266.987 150.445 268.343 146.242C269.835 142.038 268.885 137.97 266.445 137.021C264.953 136.478 263.326 137.157 261.834 138.648C261.021 139.462 259.801 138.919 259.529 137.834C257.631 124.682 246.377 114.512 232.682 114.512C217.63 114.512 205.562 126.715 205.562 141.631V154.377H215.732V154.106Z" fill="#1E2B3C"/>
<path d="M216.954 165.225C217.497 165.225 218.039 165.089 218.446 164.953C219.395 164.818 220.48 164.411 221.429 164.14C222.378 163.733 223.327 163.326 224.141 162.648C224.548 162.377 224.954 162.106 225.361 161.699C225.497 161.021 225.497 160.343 225.361 159.394C224.548 159.258 223.87 159.123 223.327 158.987C223.056 159.258 222.649 159.53 222.378 159.665C221.7 160.072 221.022 160.479 220.209 160.75C219.531 161.021 218.717 161.292 217.903 161.428C217.497 161.563 217.09 161.563 216.683 161.563L215.734 162.919V163.597C216.141 164.411 216.547 164.818 216.954 165.225Z" fill="#EDCFC5"/>
<path d="M326.513 488.619C328.683 492.009 330.717 495.534 332.615 498.924L334.106 501.501C334.649 502.314 335.056 503.263 335.462 504.213L337.768 509.772C339.259 513.433 340.751 517.23 342.107 521.026C343.463 524.959 344.276 528.89 345.09 532.823C345.768 536.755 346.31 540.823 346.446 544.891C346.581 548.688 346.446 552.62 345.496 556.552C360.141 551.942 373.971 545.433 386.717 537.298C432.82 507.467 463.329 455.533 463.329 396.55C463.329 310.175 398.107 239.124 314.174 230.039C310.92 229.632 307.665 229.361 304.411 229.225C325.7 303.26 330.852 391.398 326.513 488.619Z" fill="#1E98F5"/>
<path d="M279.73 555.602L277.968 552.077C277.425 550.856 276.883 549.501 276.612 548.28C276.205 546.924 275.934 545.568 275.798 544.348C275.527 542.992 275.256 541.636 275.256 540.28C275.12 538.924 275.12 537.568 275.256 536.077C275.391 534.721 275.663 533.365 275.798 532.009C276.205 529.297 276.476 526.72 276.883 524.008C277.154 521.296 277.425 518.72 277.696 516.008C277.968 513.296 278.239 510.72 278.646 508.008L280.408 492.143L275.12 356.684L256.95 289.158L252.34 272.209L250.035 263.801C249.357 260.954 248.679 258.107 248.001 255.259C246.645 249.293 245.289 243.191 243.933 237.225C238.645 238.987 233.492 240.886 228.34 243.191C228.069 243.327 227.662 243.462 227.391 243.598C227.255 243.733 226.984 243.734 226.848 243.869C178.712 265.7 142.644 309.632 131.796 362.65C129.491 373.633 128.406 384.888 128.406 396.549C128.406 401.43 128.677 406.312 129.084 411.194C133.694 464.347 162.983 510.313 205.56 537.704C228.204 552.212 254.645 561.569 283.12 563.738C281.764 560.891 280.68 558.179 279.73 555.602Z" fill="#1E98F5"/>
<path d="M346.445 545.162C346.31 541.094 345.767 537.026 345.089 533.094C344.411 529.162 343.462 525.094 342.106 521.297C340.75 517.5 339.259 513.704 337.767 510.043L335.462 504.483C335.191 503.534 334.649 502.585 334.106 501.771L332.615 499.195C330.716 495.67 328.547 492.28 326.513 488.89L330.31 500.28L331.259 503.127C331.53 504.077 331.937 505.026 332.343 505.975C333.157 507.738 333.971 509.636 334.649 511.399C336.14 515.06 337.632 518.721 338.852 522.518C340.072 526.179 340.886 529.975 341.7 533.908C342.378 537.704 342.92 541.637 343.056 545.569C343.191 549.501 343.055 553.298 342.106 556.959C341.157 560.484 339.259 563.738 336.005 564.823C335.191 565.094 334.377 565.23 333.564 565.365C332.75 565.365 331.937 565.366 331.123 565.095C329.496 564.688 327.869 563.738 326.784 562.654L325.428 561.433L324.208 562.789C323.259 564.01 322.038 565.23 320.818 566.179C319.598 567.128 318.242 567.942 317.021 568.213C316.479 568.349 315.665 568.213 314.852 568.213C314.038 568.213 313.225 568.078 312.411 567.942C310.784 567.671 309.021 567.806 307.394 567.535L305.089 567.264L305.902 569.162C306.58 570.79 306.716 572.824 306.852 574.722C306.852 576.756 306.716 578.654 306.445 580.688C307.258 578.79 307.936 576.891 308.343 574.857C308.614 573.501 308.75 572.01 308.75 570.654C309.021 570.79 309.292 570.789 309.563 570.925C310.377 571.196 311.326 571.332 312.14 571.467L314.852 571.603C315.801 571.603 316.614 571.739 317.835 571.603C320.004 571.196 321.631 570.111 323.123 568.891C324.208 568.077 325.021 567.264 325.971 566.315C326.377 566.586 326.92 566.857 327.326 567.264C328.276 567.807 329.36 568.213 330.445 568.484C331.53 568.756 332.75 568.891 333.971 568.755C335.191 568.62 336.276 568.484 337.36 568.077C339.53 567.264 341.564 565.773 342.784 563.874C344.14 561.976 344.954 559.942 345.496 557.908C345.496 557.636 345.632 557.365 345.632 557.23C346.445 552.891 346.581 548.959 346.445 545.162Z" fill="#EDCFC5"/>
<path d="M249.904 263.937L252.209 272.344L256.819 289.294L274.989 356.82L280.277 492.279L278.515 508.144C278.108 510.856 277.837 513.432 277.565 516.144C277.294 518.856 277.023 521.432 276.752 524.144C276.481 526.856 276.074 529.432 275.667 532.144C275.531 533.5 275.26 534.72 275.125 536.212C274.989 537.568 274.989 538.924 275.125 540.415C275.26 541.771 275.531 543.127 275.667 544.483C275.938 545.839 276.209 547.195 276.481 548.415C276.887 549.771 277.294 550.992 277.837 552.212L279.599 555.738V555.873L278.108 552.077C277.701 550.856 277.294 549.501 277.023 548.28C276.752 546.924 276.616 545.703 276.481 544.348C276.345 542.992 276.209 541.636 276.209 540.415C276.209 539.059 276.345 537.839 276.481 536.483C276.752 535.263 277.023 533.907 277.294 532.551C277.837 529.975 278.379 527.263 278.921 524.686C279.871 519.398 280.955 514.11 281.498 508.686L283.26 492.686V492.551V492.415L277.972 356.684V356.548V356.413L259.667 288.751L255.057 271.801L252.752 263.395C251.938 260.547 250.989 257.835 250.175 254.988C246.65 243.869 243.26 232.615 239.734 221.496C240.955 226.92 242.175 232.344 243.395 237.632C244.751 243.598 246.107 249.699 247.463 255.666C248.684 258.242 249.226 261.09 249.904 263.937Z" fill="#EDCFC5"/>
<path d="M730.178 373.091C728.415 373.091 726.652 372.955 724.754 372.82C717.567 372.006 710.11 371.736 703.466 372.007C693.025 372.007 683.262 372.82 677.702 376.21C666.719 382.989 655.465 389.499 653.567 397.77C653.16 398.719 652.753 399.804 652.482 400.888C651.533 401.431 650.448 401.973 649.363 402.651C643.397 405.905 632.414 412.414 640.143 417.973C640.685 418.38 641.227 418.516 641.77 418.787C641.905 418.787 641.905 418.787 642.041 418.787C642.99 418.787 644.075 418.515 645.024 418.244C647.058 417.702 648.956 417.024 650.855 416.21C654.787 415.125 658.719 413.634 662.651 412.278C670.516 409.431 678.516 406.312 687.059 404.956C689.228 404.685 691.398 404.278 693.567 404.278C695.737 404.143 697.77 404.278 699.804 404.007C703.872 403.735 707.94 403.058 711.872 401.838C715.805 400.753 719.601 399.261 723.398 397.363C727.33 396.007 731.398 394.515 735.466 393.295C731.941 395.736 728.551 398.176 724.89 400.346C721.093 402.109 717.025 403.736 712.822 404.956C708.618 406.176 704.415 406.855 700.076 407.126C697.906 407.261 695.737 407.261 693.703 407.397C691.94 407.397 690.177 407.668 688.414 407.939C690.042 409.431 691.669 410.923 693.16 412.685C695.33 415.126 697.364 417.702 698.991 420.55C699.804 422.041 700.482 423.668 700.889 425.431C700.889 426.245 700.618 427.194 700.347 428.007C704.686 427.736 708.618 427.058 712.279 426.109C718.652 424.618 726.788 418.651 733.839 412.82C746.449 411.871 769.636 409.702 793.636 404.278L774.517 355.057L730.178 373.091Z" fill="#1E2B3C"/>
<path d="M856.012 263.395L855.198 260.141L854.249 256.886C854.114 256.344 853.978 255.802 853.707 255.259C853.571 254.717 853.3 254.174 853.164 253.632C852.486 249.971 851.673 246.31 851.131 242.513L842.724 270.581L856.283 265.293L856.012 263.395Z" fill="#1E2B3C"/>
<path d="M1011 537.84L970.048 553.704C969.912 554.925 969.641 556.145 969.37 557.501C968.827 559.535 968.014 561.569 966.658 563.467C965.302 565.365 963.404 566.857 961.234 567.671C960.149 568.077 959.065 568.349 957.844 568.349C956.624 568.484 955.539 568.348 954.319 568.077C953.234 567.806 952.149 567.399 951.2 566.857C950.658 566.586 950.251 566.315 949.844 565.908C948.895 566.857 948.081 567.671 946.997 568.484C945.505 569.569 943.878 570.654 941.708 571.196C940.488 571.332 939.674 571.332 938.725 571.196L936.013 571.06C935.064 571.06 934.251 570.789 933.437 570.518C933.166 570.383 932.895 570.382 932.623 570.247C932.623 571.738 932.488 573.094 932.217 574.45C931.81 576.484 931.132 578.382 930.318 580.281C930.725 578.247 930.725 576.213 930.725 574.315C930.725 572.416 930.454 570.382 929.776 568.755L928.962 566.857L931.268 567.128C932.895 567.399 934.657 567.264 936.285 567.535C937.098 567.67 937.912 567.806 938.725 567.806C939.539 567.806 940.488 567.806 940.895 567.806C942.115 567.535 943.471 566.721 944.691 565.772C945.912 564.823 947.132 563.603 948.081 562.382L949.302 561.027L950.658 562.247C951.878 563.331 953.505 564.28 954.997 564.687C955.81 564.958 956.624 564.959 957.437 564.959C958.251 564.959 959.065 564.688 959.878 564.416C963.132 563.332 965.031 560.213 965.98 556.551C966.929 553.026 967.065 549.094 966.929 545.162C966.793 541.229 966.251 537.433 965.573 533.5C964.895 529.704 964.082 525.771 962.726 522.11C961.505 518.449 960.014 514.653 958.522 510.992C957.709 509.229 957.031 507.331 956.217 505.568C955.81 504.619 955.403 503.805 955.132 502.721L954.183 499.873L950.386 488.483C954.59 394.38 949.844 308.82 930.318 236.276L938.996 232.886C927.606 193.428 906.182 173.902 877.979 183.394C851.809 192.072 847.741 216.615 851.809 240.208L851.538 241.293C853.165 245.089 854.792 248.751 856.419 252.412C856.69 252.954 856.826 253.497 856.961 254.039C857.097 254.582 857.368 255.124 857.504 255.666L858.453 259.056L859.267 262.446L859.538 263.802L872.69 258.649C872.419 257.429 872.148 256.344 871.877 255.124C869.301 243.734 866.589 232.344 864.148 220.954C867.809 232.072 871.199 243.191 874.589 254.446C875.402 257.293 876.352 260.005 877.165 262.853L879.47 271.259L884.08 288.209L902.386 355.871V356.006V356.142L907.674 491.873V492.009V492.144L905.911 508.144C905.369 513.568 904.284 518.856 903.335 524.144C902.793 526.856 902.25 529.433 901.708 532.009C901.437 533.365 901.03 534.585 900.894 535.941C900.623 537.162 900.623 538.518 900.623 539.874C900.623 541.229 900.759 542.45 900.894 543.806C901.03 545.162 901.165 546.517 901.437 547.738C901.708 549.094 901.979 550.314 902.521 551.535L904.013 555.331V555.196C906.589 561.297 909.166 569.162 912.555 575.806C914.725 580.01 917.301 583.807 920.284 586.247C923.81 589.095 926.657 587.468 928.556 584.078C941.98 602.247 957.302 619.061 973.98 634.248C989.845 648.892 1007.07 662.044 1025.1 673.841C1037.85 682.248 1051.13 689.842 1064.83 696.757C1070.12 699.469 1077.17 701.367 1081.91 705.028C1086.52 708.418 1105.51 722.114 1089.51 758.995C1079.61 781.64 1111.2 798.86 1111.2 798.86L1195 675.469C1194.73 675.875 1083.81 630.044 1011 537.84Z" fill="#1E2B3C"/>
<path d="M837.3 517.365C795.944 632.078 724.756 683.198 720.824 685.096C716.078 687.402 685.298 697.028 659.264 666.384C643.264 647.536 623.738 670.181 623.738 670.181L676.755 797.911C676.755 797.911 828.486 745.978 905.098 578.925L866.995 593.705L837.3 517.365Z" fill="#1E2B3C"/>
<path d="M853.709 255.26C853.845 255.802 854.116 256.344 854.251 256.887L855.201 260.141L856.014 263.396L856.421 265.294L859.675 264.074L859.404 262.718L858.59 259.328L857.641 255.938C857.506 255.396 857.234 254.853 857.099 254.31C856.963 253.768 856.828 253.226 856.557 252.684C854.929 249.023 853.302 245.226 851.675 241.565C851.404 241.022 851.268 240.615 850.997 240.073C851.133 240.887 851.268 241.7 851.268 242.649C851.811 246.446 852.489 250.107 853.302 253.768C853.302 254.175 853.573 254.718 853.709 255.26Z" fill="#EDCFC5"/>
<path d="M697.366 426.245C697.095 424.89 696.552 423.669 695.874 422.313C694.518 419.736 692.62 417.296 690.586 414.991C688.552 412.821 686.383 410.787 684.078 408.889C682.722 409.16 681.366 409.567 680.01 409.974C680.01 409.974 680.01 409.974 680.01 410.109C681.23 414.313 682.586 418.38 684.349 422.313C685.705 425.703 686.925 429.093 687.467 432.89C691.264 435.33 696.01 433.432 697.773 430.178C698.044 429.635 698.315 429.092 698.315 428.414C698.044 427.601 697.773 426.923 697.366 426.245Z" fill="#1E2B3C"/>
<path d="M698.724 420.687C697.097 417.704 695.063 415.127 692.894 412.822C691.402 411.195 689.775 409.567 688.148 408.076C689.91 407.805 691.673 407.534 693.436 407.534C695.47 407.398 697.775 407.534 699.809 407.263C704.148 406.992 708.351 406.178 712.555 405.093C716.758 404.008 720.691 402.246 724.623 400.483C728.284 398.178 731.674 395.737 735.199 393.432C731.131 394.517 727.063 396.144 723.131 397.5C719.335 399.262 715.538 400.889 711.606 401.974C707.673 403.059 703.606 403.737 699.538 404.144C697.504 404.279 695.47 404.28 693.3 404.415C691.131 404.415 688.961 404.686 686.792 405.093C678.249 406.585 670.249 409.568 662.385 412.415C658.452 413.907 654.52 415.263 650.588 416.347C648.689 417.161 646.791 417.839 644.757 418.381C643.808 418.652 642.723 418.788 641.774 418.924C641.639 418.924 641.639 418.924 641.503 418.924C640.554 418.924 639.605 418.924 638.791 418.517C639.605 419.195 640.689 419.737 641.774 419.873C642.859 420.144 643.944 420.144 645.028 420.279C647.198 420.279 649.367 420.008 651.537 419.737C651.537 419.737 651.537 419.737 651.673 419.737C655.605 418.652 659.401 417.297 663.198 415.805C663.198 417.161 663.334 418.381 663.469 419.601L664.012 422.449L664.283 423.805C664.283 424.212 664.283 424.754 664.419 425.161C664.554 426.11 664.419 426.924 664.419 427.737C664.283 428.551 664.147 429.365 663.876 430.178C663.334 431.67 662.385 433.026 661.164 433.432C660.757 433.839 660.351 434.111 659.808 434.246C659.537 434.382 659.401 434.381 659.13 434.517C658.317 434.653 657.368 434.653 656.554 434.11C656.825 435.195 657.774 436.009 658.859 436.416C659.944 436.823 661.3 436.958 662.52 436.551C664.825 435.466 666.317 433.432 666.995 431.263C667.402 430.178 667.537 429.093 667.673 428.009C667.673 427.331 667.673 426.788 667.808 426.11C667.808 425.704 667.808 425.297 667.808 424.754C667.808 424.212 667.808 423.67 667.673 423.263L667.402 421.771L666.859 418.924C666.588 417.432 666.588 415.941 666.588 414.313C669.978 413.093 673.232 411.873 676.622 410.924C676.622 410.924 676.622 410.924 676.622 411.059C677.842 415.263 679.334 419.601 681.097 423.669C682.724 427.602 684.08 431.67 684.351 435.738C684.487 437.772 684.215 439.805 683.537 441.432C683.402 442.382 683.131 443.331 682.588 444.144C682.453 444.28 682.453 444.416 682.317 444.552C681.775 445.229 681.232 445.907 680.419 446.45C682.724 446.585 685.3 444.958 686.656 442.788C687.605 440.348 687.877 437.907 687.741 435.602C687.741 434.653 687.605 433.839 687.47 432.89C686.927 429.229 685.707 425.703 684.351 422.313C682.724 418.381 681.232 414.313 680.012 410.11C680.012 410.11 680.012 410.11 680.012 409.975C681.368 409.568 682.724 409.296 684.08 408.89C686.385 410.788 688.554 412.822 690.588 414.991C692.622 417.296 694.521 419.737 695.877 422.313C696.555 423.534 697.097 424.89 697.368 426.246C697.775 426.924 698.182 427.602 698.317 428.415C698.453 429.093 698.588 429.771 698.453 430.585C699.131 430.042 699.673 429.229 700.08 428.28C700.351 427.467 700.622 426.517 700.622 425.703C700.216 423.805 699.538 422.178 698.724 420.687Z" fill="#EDCFC5"/>
<path d="M683.4 441.432C684.213 439.805 684.349 437.771 684.213 435.737C683.942 431.669 682.722 427.601 680.959 423.669C679.196 419.601 677.705 415.262 676.484 411.059C676.484 411.059 676.484 411.058 676.484 410.923C673.094 412.008 669.84 413.092 666.45 414.313C666.45 415.804 666.45 417.296 666.721 418.923L667.264 421.77L667.535 423.262C667.671 423.805 667.671 424.347 667.671 424.754C667.671 425.161 667.671 425.567 667.671 426.11C670.925 436.144 673.637 447.262 679.874 445.5C680.688 445.228 681.501 444.957 682.179 444.415C682.315 444.28 682.315 444.144 682.45 444.008C682.993 443.33 683.264 442.381 683.4 441.432Z" fill="#1E2B3C"/>
<path d="M663.736 430.042C664.007 429.364 664.143 428.415 664.279 427.601C664.279 426.788 664.414 425.838 664.279 425.025C664.279 424.618 664.278 424.211 664.143 423.669L663.872 422.313L663.329 419.466C663.194 418.245 663.058 416.889 663.058 415.669C659.261 417.025 655.465 418.38 651.533 419.601C651.533 419.601 651.533 419.601 651.397 419.601C652.617 425.974 655.058 430.991 656.414 432.89C657.092 433.839 658.177 434.245 659.533 434.245C660.075 433.974 660.482 433.839 660.889 433.432C662.245 432.889 663.194 431.533 663.736 430.042Z" fill="#1E2B3C"/>
<path d="M839.742 154.105V163.19L840.691 161.834C841.098 161.834 841.505 161.699 841.911 161.699C842.725 161.563 843.539 161.292 844.217 161.021C844.894 160.749 845.708 160.342 846.386 159.935C846.657 159.664 847.064 159.529 847.335 159.257C848.013 159.393 848.556 159.529 849.369 159.665C849.505 160.478 849.505 161.156 849.369 161.969C848.962 162.241 848.556 162.648 848.149 162.919C847.335 163.461 846.386 164.004 845.437 164.41C844.488 164.817 843.539 165.089 842.454 165.224C841.911 165.36 841.505 165.359 840.962 165.495C840.556 165.088 840.013 164.681 839.742 164.139V177.156C844.352 180.817 850.183 183.122 856.691 183.122C867.539 183.122 876.759 176.885 881.098 167.665C882.861 164.139 883.81 160.071 883.81 155.868V151.122C884.217 151.529 884.624 151.936 885.166 152.071C887.743 152.885 890.997 150.309 892.353 146.105C893.844 141.902 892.895 137.833 890.455 136.884C888.963 136.342 887.336 137.02 885.844 138.512C885.031 139.325 883.81 138.783 883.539 137.698C881.641 124.545 870.386 114.376 856.691 114.376C847.606 114.376 839.471 118.851 834.589 125.902C831.471 130.376 829.572 135.799 829.572 141.63V154.377H839.742V154.105Z" fill="#1E2B3C"/>
<path d="M841.094 165.225C841.637 165.225 842.179 165.089 842.586 164.953C843.535 164.818 844.62 164.411 845.569 164.14C846.518 163.868 847.467 163.326 848.281 162.648C848.688 162.377 849.094 162.106 849.501 161.699C849.637 161.021 849.637 160.343 849.501 159.394C848.688 159.258 848.01 159.123 847.467 158.987C847.196 159.258 846.789 159.53 846.518 159.665C845.84 160.072 845.162 160.479 844.349 160.75C843.671 161.021 842.857 161.292 842.044 161.428C841.637 161.563 841.23 161.563 840.823 161.563L839.874 162.919V163.597C840.145 164.411 840.552 164.818 841.094 165.225Z" fill="#EDCFC5"/>
<path d="M903.742 555.602L901.979 552.077C901.436 550.856 900.894 549.501 900.623 548.28C900.216 546.924 899.945 545.568 899.809 544.347C899.538 542.992 899.267 541.636 899.267 540.28C899.131 538.924 899.131 537.568 899.267 536.077C899.403 534.721 899.674 533.365 899.809 532.009C900.216 529.297 900.487 526.72 900.894 524.008C901.165 521.296 901.436 518.72 901.708 516.008C901.979 513.296 902.25 510.72 902.657 508.008L904.42 492.143L899.131 356.684L880.962 289.158L876.351 272.208L874.046 263.801C873.639 262.174 873.233 260.412 872.826 258.785L859.673 263.937L856.419 265.157L842.859 270.445L754.587 304.751L774.248 355.057L793.367 404.278L837.3 517.228L867.131 593.705L905.233 578.924L912.42 576.077C908.894 569.569 906.318 561.704 903.742 555.602Z" fill="#F45F63"/>
<path d="M950.656 488.619C952.826 492.009 954.86 495.533 956.758 498.923L958.25 501.5C958.792 502.314 959.199 503.263 959.606 504.212L961.911 509.771C963.402 513.432 964.894 517.229 966.25 521.026C967.606 524.958 968.419 528.89 969.233 532.822C969.911 536.754 970.453 540.823 970.589 544.891C970.724 547.738 970.589 550.585 970.182 553.569L1011.13 537.704L1156.08 481.296L1043.54 192.343L939.131 233.022L930.453 236.412C949.978 308.955 954.724 394.516 950.656 488.619Z" fill="#F45F63"/>
<path d="M970.453 545.162C970.318 541.094 969.775 537.026 969.097 533.094C968.419 529.162 967.47 525.094 966.114 521.297C964.758 517.5 963.267 513.704 961.775 510.043L959.47 504.483C959.199 503.534 958.656 502.585 958.114 501.771L956.622 499.195C954.724 495.67 952.555 492.28 950.521 488.89L954.317 500.28L955.267 503.127C955.538 504.077 955.944 505.026 956.351 505.975C957.165 507.738 957.978 509.636 958.656 511.399C960.148 515.06 961.639 518.721 962.86 522.518C964.08 526.179 964.894 529.975 965.707 533.908C966.385 537.704 966.928 541.637 967.063 545.569C967.199 549.501 967.063 553.298 966.114 556.959C965.165 560.484 963.267 563.738 960.012 564.823C959.199 565.094 958.385 565.23 957.572 565.365C956.758 565.365 955.945 565.366 955.131 565.095C953.504 564.688 951.877 563.738 950.792 562.654L949.436 561.433L948.216 562.789C947.266 564.01 946.046 565.23 944.826 566.179C943.605 567.128 942.249 567.942 941.029 568.213C940.487 568.349 939.673 568.213 938.86 568.213C938.046 568.213 937.232 568.078 936.419 567.942C934.792 567.671 933.029 567.806 931.402 567.535L929.097 567.264L929.91 569.162C930.588 570.79 930.724 572.824 930.859 574.722C930.859 576.756 930.724 578.654 930.453 580.688C931.266 578.79 931.944 576.891 932.351 574.857C932.622 573.501 932.758 572.01 932.758 570.654C933.029 570.79 933.3 570.789 933.571 570.925C934.385 571.196 935.334 571.332 936.148 571.467L938.86 571.603C939.809 571.603 940.622 571.739 941.843 571.603C944.012 571.196 945.639 570.111 947.131 568.891C948.216 568.077 949.029 567.264 949.978 566.315C950.385 566.586 950.927 566.857 951.334 567.264C952.283 567.807 953.368 568.213 954.453 568.484C955.538 568.756 956.758 568.891 957.978 568.755C959.199 568.62 960.284 568.484 961.368 568.077C963.538 567.264 965.572 565.773 966.792 563.874C968.148 561.976 968.962 559.942 969.504 557.908C969.775 556.687 970.046 555.467 970.182 554.111C970.589 550.857 970.589 548.009 970.453 545.162Z" fill="#EDCFC5"/>
<path d="M876.354 272.344L880.964 289.294L899.134 356.82L904.422 492.279L902.659 508.144C902.252 510.856 901.981 513.432 901.71 516.144C901.439 518.856 901.168 521.432 900.896 524.144C900.625 526.856 900.218 529.432 899.812 532.144C899.676 533.5 899.405 534.72 899.269 536.212C899.134 537.568 899.134 538.924 899.269 540.415C899.405 541.771 899.676 543.127 899.812 544.483C900.083 545.839 900.354 547.195 900.625 548.415C901.032 549.771 901.439 550.992 901.981 552.212L903.744 555.738V555.873L902.252 552.077C901.846 550.856 901.439 549.501 901.168 548.28C900.896 546.924 900.761 545.703 900.625 544.348C900.49 542.992 900.354 541.636 900.354 540.415C900.354 539.059 900.49 537.839 900.625 536.483C900.896 535.263 901.168 533.907 901.439 532.551C901.981 529.975 902.524 527.263 903.066 524.686C904.015 519.398 905.1 514.11 905.642 508.686L907.405 492.686V492.551V492.415L902.117 356.684V356.548V356.413L883.811 288.751L879.201 271.801L876.896 263.395C876.083 260.547 875.133 257.835 874.32 254.988C870.794 243.869 867.404 232.615 863.879 221.496C866.32 232.886 869.032 244.276 871.608 255.666C871.879 256.886 872.15 257.971 872.421 259.191C872.828 260.818 873.235 262.581 873.642 264.209L876.354 272.344Z" fill="#EDCFC5"/>
</svg>
