<svg width="1195" height="844" viewBox="0 0 1195 844" fill="none" xmlns="http://www.w3.org/2000/svg">
<path d="M1023.27 776.157L1026.45 791.602L1017.93 793.335L1014.32 775.869C978.07 777.601 949.043 807.192 948.609 843.857C948.609 843.857 948.609 843.856 948.609 844H1086.67C1086.53 828.266 1081.04 813.832 1071.94 802.284C1060.39 787.561 1042.91 777.745 1023.27 776.157Z" fill="#1E2B3C"/>
<path d="M605.338 164.844C622.668 161.813 639.131 172.062 644.33 188.229C644.763 189.528 646.496 189.816 647.363 188.662C648.807 186.497 650.829 185.198 652.851 185.486C656.172 186.064 658.194 190.971 657.328 196.601C656.461 202.23 652.995 206.273 649.529 205.84C648.807 205.695 648.229 205.406 647.652 204.973L648.663 210.892C649.385 214.934 649.385 218.975 648.663 222.728C679.279 219.119 706.14 197.9 715.382 166.432C727.802 124.572 703.685 80.5455 661.804 68.276C619.924 56.0064 575.878 79.9683 563.602 121.829C556.093 147.234 562.014 173.361 577.033 192.704C579.632 178.991 590.464 167.443 605.338 164.844Z" fill="#F45F63"/>
<path d="M1071.8 802.283C1090.57 778.61 1103.14 741.946 1093.89 684.64C1076.56 577.534 1024.14 570.894 956.555 454.982L1023.13 776.012C1042.91 777.744 1060.39 787.559 1071.8 802.283Z" fill="#1E98F5"/>
<path d="M1014.32 775.868L942.549 430.3C909.045 374.582 857.922 354.951 805.644 370.396C819.941 394.647 832.938 424.382 840.014 459.892C851.423 517.053 828.895 555.594 793.369 568.008C788.458 569.74 781.96 571.039 774.595 572.194C774.884 572.194 775.172 572.194 775.317 572.194C781.382 571.616 787.303 570.895 793.224 569.451C787.592 571.905 781.671 573.349 775.606 574.648C772.573 575.37 769.54 575.802 766.507 576.38C763.475 576.813 760.442 576.957 757.409 577.246C747.878 577.968 738.491 578.401 728.96 578.689C722.172 586.773 715.529 593.846 709.608 599.62C694.011 615.209 673.216 632.82 647.365 646.822C647.221 648.41 647.221 649.997 647.221 651.585C647.077 650.141 646.932 648.698 646.788 647.255C646.643 647.399 646.499 647.399 646.21 647.544C646.066 650.142 646.21 651.585 646.21 651.585C646.21 651.585 648.088 674.536 680.87 671.794C695.167 670.639 700.799 687.961 680.148 693.446C651.987 700.807 638.701 685.939 638.701 685.939C634.513 692.291 662.818 698.209 663.829 704.127C665.562 714.665 645.921 722.171 625.126 714.087C608.085 707.447 599.853 694.168 599.853 694.168C595.665 695.755 620.938 722.171 616.75 727.8C612.273 733.863 602.308 735.162 588.589 725.924C584.834 723.47 581.368 719.428 578.191 714.521C578.913 715.82 579.779 717.118 580.646 718.418C582.812 721.593 585.267 724.625 588.3 726.935C584.978 724.914 582.379 722.027 579.924 718.996L578.191 716.686L576.602 714.232C575.447 712.644 574.581 710.912 573.57 709.18C569.815 702.395 566.782 695.178 564.472 687.672C563.316 683.919 562.305 680.166 561.872 676.124C561.728 675.114 561.728 674.103 561.583 673.093C561.583 672.948 561.583 672.66 561.583 672.515C501.362 677.712 478.4 665.731 447.496 649.42C434.643 642.635 424.389 635.995 416.735 630.51C382.22 655.194 359.259 688.105 353.338 718.274C345.539 758.258 346.117 795.067 380.054 842.413L948.181 843.712C949.047 807.336 978.075 777.601 1014.32 775.868Z" fill="#1E98F5"/>
<path d="M942.548 430.443L1014.32 775.867L1017.93 793.334L1026.45 791.601L1023.28 776.156L956.556 455.127L879.15 81.8438L871.207 86.4632L942.548 430.443Z" fill="#1E2B3C"/>
<path d="M777.626 140.883L871.207 86.4641L879.15 81.8447L920.452 57.739L886.804 0L726.215 52.6869L777.626 140.883Z" fill="#1E2B3C"/>
<path d="M207.333 697.921L204.878 685.218L203.867 680.022V679.733C202.711 680.021 203 679.877 203.867 679.733L203.722 678.867L203.433 677.279L203.289 676.846V676.701C201.989 676.99 202.423 676.846 203.289 676.701L198.957 653.317L196.646 640.614C196.646 640.47 196.646 640.326 196.646 640.182C195.635 641.192 194.769 642.058 193.758 642.78C189.714 646.244 184.66 648.265 179.316 648.842C169.929 649.853 160.109 647.399 151.155 644.657C116.496 633.83 97 678.722 97 678.722L213.109 720.583C211.954 717.263 210.799 713.943 209.788 710.623L207.333 697.921Z" fill="#1E2B3C"/>
<path d="M324.743 813.975L324.166 806.902C324.021 804.593 323.877 802.139 323.877 799.829C323.732 795.066 323.588 790.302 323.444 785.539L321.855 728.666L318.678 614.776V612.899H320.555L340.484 613.477C347.128 613.621 353.771 613.91 360.414 614.054L380.343 615.497C386.553 615.93 392.762 616.363 398.972 616.941C396.228 614.343 393.773 611.6 391.318 608.713L381.209 597.021C378.032 593.124 374.855 588.793 371.967 584.463C369.079 580.132 366.479 575.657 364.024 571.182C354.059 553.139 346.117 534.085 336.152 516.33C333.697 511.855 331.098 507.526 328.354 503.195C325.61 498.865 322.577 494.823 319.544 490.781C317.956 488.76 316.367 486.884 314.634 485.007C312.901 483.131 311.168 481.254 309.435 479.522C307.702 477.645 305.825 476.058 303.948 474.326C302.07 472.738 300.048 471.005 298.027 469.562C296.005 467.974 293.983 466.53 291.817 465.087C290.806 464.365 289.651 463.788 288.64 463.211L287.051 462.2L285.318 461.334C284.163 460.757 283.152 460.179 281.997 459.746L278.531 458.447C276.22 457.726 273.765 457.148 271.31 456.57C265.533 455.127 259.468 454.405 253.402 454.405C248.926 454.694 238.961 456.282 225.386 462.633C188.56 479.811 188.56 514.31 187.549 554.15C187.261 564.11 188.705 574.214 190.005 584.03C191.882 598.609 194.337 613.044 196.936 627.334C197.225 629.066 197.658 631.087 197.947 633.252C198.669 635.417 199.391 637.582 199.969 639.747L202.28 652.45L206.612 675.834C207.479 675.69 207.768 675.546 206.612 675.834L207.045 677.856L207.19 678.721V678.866C208.056 678.721 208.345 678.577 207.19 678.866L208.201 684.207L210.656 696.909L213.111 709.612C213.4 713.221 213.544 716.973 213.688 720.582L214.411 720.871C214.555 721.448 214.699 722.17 214.699 722.747C217.01 734.872 219.176 746.998 221.054 759.123C221.776 764.175 219.032 771.104 216.432 775.579C213.833 780.198 209.789 783.807 204.879 786.116C196.359 790.303 186.394 791.313 177.007 791.746C140.759 793.334 137.582 842.268 137.582 842.268H326.476C326.043 832.885 325.465 823.502 324.743 813.975Z" fill="#1E2B3C"/>
<path d="M684.623 578.689C673.358 578.4 661.95 578.112 650.685 577.534C652.274 583.019 653.574 588.505 654.296 594.134C655.162 600.63 655.307 607.269 654.007 613.909C653.14 617.374 652.274 620.116 651.552 623.292C650.83 626.323 649.963 629.354 649.53 632.53C648.663 637.294 648.23 642.058 647.941 646.821C673.792 632.819 694.587 615.209 710.184 599.619C715.961 593.845 722.604 586.772 729.536 578.689C726.792 578.689 724.048 578.833 721.448 578.833C708.884 578.978 696.753 578.977 684.623 578.689Z" fill="#1E2B3C"/>
<path d="M562.015 672.515C562.015 671.793 562.015 670.927 562.015 670.205L561.87 664.431C561.726 656.781 561.581 648.986 561.87 641.336C562.015 633.541 562.592 625.89 563.314 618.24C563.603 614.343 564.181 610.59 564.758 606.692L565.769 600.918C566.058 599.042 566.491 597.165 566.925 595.144C570.102 579.988 575.59 564.976 584.543 551.985C588.876 545.489 594.219 539.57 600.14 534.374C606.061 529.177 612.56 524.847 619.347 520.95C626.135 517.052 633.067 513.732 640.143 510.557L650.685 505.938C654.151 504.35 657.761 502.906 661.372 501.463C668.593 498.576 675.958 496.122 683.323 493.957C690.688 491.791 698.198 489.771 705.707 488.039C720.004 484.719 734.446 481.976 749.031 479.666L742.533 459.602C741.377 455.849 740.078 452.24 738.922 448.632L735.745 437.517C731.413 422.649 727.08 407.781 722.892 392.913C728.236 407.492 733.29 422.072 738.489 436.651L742.388 447.622C743.688 451.23 744.699 454.983 745.999 458.591L753.075 480.677L753.797 482.698L751.631 482.987C736.467 485.296 721.304 488.039 706.429 491.503C698.92 493.235 691.554 495.112 684.189 497.277C676.824 499.442 669.603 501.896 662.527 504.639C659.061 506.082 655.451 507.525 651.985 509.113L641.443 513.732C634.511 516.908 627.579 520.228 620.936 523.981C614.293 527.734 607.938 531.92 602.306 536.973C596.674 541.88 591.62 547.654 587.432 553.861C583.244 560.068 579.633 566.853 576.889 573.926C574.145 580.999 571.979 588.216 570.391 595.722C569.957 597.598 569.524 599.475 569.235 601.352L568.224 606.981C567.791 610.734 567.214 614.487 566.78 618.384C565.914 626.035 565.481 633.685 565.336 641.336C565.192 648.986 565.192 656.636 565.336 664.287L565.481 670.061C565.481 671.071 565.481 672.081 565.481 672.948C565.625 673.814 565.481 674.68 565.625 675.691C565.914 679.299 566.636 683.052 567.502 686.805C569.235 694.167 571.835 701.384 575.012 708.313C576.023 710.334 577.034 712.355 578.189 714.376C581.366 719.283 584.832 723.325 588.587 725.779C602.306 735.017 612.271 733.718 616.748 727.656C620.936 722.026 595.663 695.61 599.851 694.022C599.851 694.022 608.227 707.447 625.124 713.943C645.919 722.026 665.415 714.375 663.827 703.982C662.96 698.064 634.655 692.146 638.699 685.795C638.699 685.795 651.985 700.662 680.146 693.301C700.797 687.815 695.02 670.494 680.868 671.649C648.086 674.391 646.208 651.44 646.208 651.44C646.208 651.44 646.208 649.997 646.208 647.398C646.353 647.254 646.497 647.254 646.786 647.109C646.353 642.202 646.353 637.15 646.497 632.097C646.642 628.922 646.93 625.602 647.508 622.282C648.23 619.106 649.241 615.786 649.963 613.043C651.118 606.981 650.974 600.63 650.252 594.423C649.53 588.216 648.086 582.009 646.064 575.946L645.197 573.492L647.797 573.637C659.928 574.214 672.058 574.647 684.189 574.936C696.32 575.224 708.451 575.225 720.582 575.08C732.713 574.936 744.843 574.503 756.974 573.492C758.418 573.348 760.007 573.204 761.451 573.059C762.895 572.915 764.484 572.626 765.928 572.626C768.672 572.482 771.416 572.337 774.159 572.049C781.525 570.894 787.879 569.595 792.933 567.863C828.459 555.593 850.988 516.908 839.579 459.747C832.503 424.237 819.506 394.501 805.209 370.251C775.026 319.296 738.778 293.458 738.778 293.458C707.873 270.074 671.336 260.691 648.23 261.557C620.647 260.258 581.799 277.003 548.873 303.129C542.085 308.47 533.132 316.987 523.312 326.947V343.113L505.837 344.99C487.352 364.621 467.712 386.273 453.559 402.44L455.437 408.214L460.058 422.361L464.679 436.506L466.99 443.579C467.134 445.456 467.279 447.188 467.423 449.065C473.633 453.828 479.698 458.736 485.764 463.644C489.519 462.344 493.129 461.046 496.739 459.602C501.072 458.447 505.404 457.004 509.737 455.416C513.925 453.828 518.113 451.952 522.012 449.642C525.911 447.333 529.521 444.734 532.554 441.559L533.709 440.404L534.72 439.104C535.298 438.238 535.876 437.228 536.598 436.362C537.175 435.496 537.753 434.485 538.186 433.475C538.764 432.465 539.197 431.454 539.63 430.444C541.508 426.402 542.807 422.072 543.963 417.597C544.974 413.266 545.84 408.792 546.273 404.173C547.284 399.698 548.151 395.223 548.873 390.604C549.595 395.223 549.884 399.842 549.884 404.605C549.306 409.225 548.584 413.844 547.429 418.463C546.273 423.082 544.974 427.557 542.952 431.887C542.519 433.042 541.941 434.053 541.363 435.063C540.786 436.073 540.352 437.228 539.63 438.239C538.908 439.249 538.331 440.259 537.609 441.27L536.453 442.713L535.298 444.013C531.976 447.622 528.077 450.364 524.034 452.817C519.99 455.127 515.658 457.148 511.325 458.88C506.993 460.613 502.516 462.056 498.039 463.211C494.284 463.788 490.529 464.221 486.775 464.365C496.162 472.016 505.549 479.666 514.791 487.461C523.023 494.39 531.11 501.607 539.053 508.825C542.807 512.722 546.562 516.619 550.173 520.661C552.05 522.682 553.639 524.703 555.516 526.868L556.816 528.456L557.971 530.043L560.282 533.364C552.916 525.425 544.829 518.496 536.598 511.567C528.655 504.35 520.568 497.277 512.48 490.348C496.162 476.49 479.41 462.922 462.369 449.787C445.472 436.651 427.998 424.237 409.802 412.834C400.704 407.06 391.605 401.575 382.219 396.378C375.142 391.903 368.066 387.717 360.845 383.82C346.837 377.757 329.507 374.581 304.812 384.397C266.254 399.842 257.733 443.147 256.289 452.529C261.488 452.096 266.687 452.24 271.886 452.962C277.085 453.972 282.139 455.705 286.905 458.014L288.638 458.88L290.371 459.891C291.526 460.613 292.682 461.19 293.692 461.912C295.859 463.355 298.025 464.798 300.047 466.53C302.213 468.118 304.09 469.851 306.112 471.439C307.989 473.171 310.011 474.903 311.744 476.779C313.622 478.656 315.355 480.532 317.088 482.409C318.821 484.43 320.554 486.306 322.142 488.327C325.319 492.369 328.352 496.555 331.24 501.03C334.128 505.361 336.728 509.835 339.183 514.31C349.292 532.353 357.235 551.407 367.055 569.162C369.51 573.637 372.11 577.967 374.853 582.298C375.575 583.308 376.298 584.463 377.02 585.473C377.742 586.484 378.464 587.494 379.186 588.504C379.908 589.515 380.63 590.525 381.496 591.536C382.363 592.546 383.085 593.557 383.807 594.567C389.006 602.073 393.916 609.579 399.548 616.652C399.693 616.652 399.982 616.652 400.126 616.652C400.126 616.652 405.614 622.282 416.878 630.365C424.532 635.85 434.641 642.49 447.638 649.275C478.832 665.73 501.794 677.856 562.015 672.515Z" fill="#1E2B3C"/>
<path d="M203.869 679.733C202.714 680.022 203.147 680.022 203.869 679.733V679.733Z" fill="#EDCFC5"/>
<path d="M213.396 709.9L210.941 697.198L208.486 684.495L207.475 679.154C208.342 678.866 208.631 678.721 207.475 679.154V679.01V678.865L207.331 677.999L206.898 675.978C207.764 675.834 208.053 675.69 206.898 675.978L202.565 652.595L200.255 639.892C199.532 637.726 198.955 635.561 198.233 633.396C197.511 631.375 196.933 629.354 196.211 627.478C196.211 631.664 196.5 635.994 196.644 640.181C196.644 640.325 196.644 640.469 196.644 640.613L198.955 653.316L203.287 676.7C201.988 676.989 202.421 676.845 203.287 676.7V676.845L203.432 677.277L203.721 678.865L203.865 679.732V680.021L204.876 685.217L207.331 697.92L209.786 710.622C210.941 713.942 211.952 717.262 213.107 720.582C213.396 721.303 213.685 722.17 213.974 722.891C213.974 722.17 213.974 721.448 213.83 720.871C213.83 717.262 213.541 713.509 213.396 709.9Z" fill="#EDCFC5"/>
<path d="M432.043 260.836C439.12 258.526 464.681 253.618 465.692 265.888C458.616 278.446 442.73 278.735 431.466 287.252C418.468 297.212 418.18 305.873 417.746 309.77C431.466 287.252 467.569 274.26 494.719 281.911C501.651 283.931 511.183 284.942 507.572 295.046C504.973 302.552 499.052 302.552 493.853 302.264C486.343 301.975 474.935 302.841 467.858 305.295C457.316 309.048 446.196 315.544 442.297 322.328C442.297 322.328 460.638 312.513 478.834 316.121C497.174 319.874 503.384 331.422 501.218 340.66C499.052 349.754 485.044 342.97 480.278 341.238C469.88 337.629 458.76 337.196 450.24 344.991C448.218 346.867 446.918 349.176 446.196 351.775L506.417 345.135L523.891 343.258V327.092V197.467L410.092 210.026L379.477 168.887V314.678L380.487 316.121C385.831 289.561 406.193 269.208 432.043 260.836Z" fill="#E5AA20"/>
<path d="M411.826 409.947C430.022 421.495 447.641 433.908 464.682 447.188C464.97 447.333 465.115 447.477 465.404 447.766C464.97 446.899 464.393 446.034 463.96 445.312L461.649 438.239L457.028 424.093L452.406 409.947L450.096 402.874C449.951 401.864 449.951 400.709 449.807 399.698C447.352 391.037 445.908 383.964 445.908 380.211C445.908 372.416 443.453 360.869 446.052 352.352C446.919 349.754 448.074 347.3 450.096 345.568C458.616 337.629 469.736 338.062 480.134 341.815C484.9 343.547 498.908 350.476 501.074 341.237C503.385 331.855 497.03 320.307 478.69 316.698C460.349 312.945 442.153 322.905 442.153 322.905C446.052 316.265 457.172 309.625 467.714 305.872C474.791 303.418 486.199 302.552 493.709 302.841C498.908 303.129 504.829 303.129 507.428 295.623C510.894 285.519 501.507 284.508 494.575 282.488C467.57 274.693 431.322 287.829 417.603 310.347C418.036 306.45 418.325 297.789 431.322 287.829C442.586 279.168 458.472 279.024 465.548 266.466C464.537 254.196 438.976 259.104 431.9 261.413C406.049 269.786 385.687 290.283 380.488 316.843C380.055 318.719 379.766 320.74 379.621 322.617C378.611 332.288 378.611 369.818 379.621 391.903C381.066 392.625 382.51 393.347 383.954 393.924C393.485 398.543 402.728 404.173 411.826 409.947Z" fill="#1E2B3C"/>
<path d="M620.358 251.309C635.233 248.711 646.208 237.018 648.663 223.017C649.386 219.119 649.386 215.221 648.663 211.18L647.653 205.261C648.23 205.694 648.808 205.983 649.53 206.128C652.851 206.705 656.462 202.519 657.328 196.889C658.195 191.26 656.173 186.207 652.851 185.774C650.83 185.486 648.952 186.641 647.364 188.95C646.642 190.105 644.764 189.817 644.331 188.518C639.132 172.351 622.524 162.102 605.339 165.133C590.609 167.731 579.633 179.279 577.178 193.136C576.456 197.034 576.456 201.22 577.178 205.261L580.067 221.284L593.064 218.974L595.086 230.522L596.097 228.79C596.674 228.646 597.107 228.501 597.541 228.357C598.552 227.924 599.418 227.491 600.429 226.913C601.295 226.336 602.162 225.759 602.884 225.037C603.317 224.604 603.606 224.316 603.895 223.883C604.617 223.883 605.339 223.738 606.35 223.738C606.639 224.604 606.639 225.47 606.639 226.336C606.206 226.769 605.772 227.347 605.339 227.78C604.473 228.646 603.317 229.512 602.306 230.089C601.295 230.667 599.996 231.389 598.84 231.822C598.263 232.111 597.685 232.255 596.963 232.399C596.385 232.11 595.663 231.821 595.086 231.388L597.974 247.7C604.473 251.164 612.415 252.608 620.358 251.309Z" fill="#1E2B3C"/>
<path d="M598.552 231.678C599.707 231.245 600.862 230.668 602.018 229.946C603.173 229.224 604.184 228.502 605.05 227.636C605.484 227.203 605.917 226.77 606.35 226.193C606.35 225.327 606.35 224.461 606.061 223.595C605.05 223.595 604.328 223.739 603.606 223.739C603.317 224.172 602.884 224.461 602.595 224.894C601.873 225.615 601.007 226.193 600.14 226.771C599.274 227.348 598.263 227.781 597.252 228.214C596.819 228.358 596.241 228.503 595.808 228.647L594.797 230.379L594.941 231.101C595.519 231.534 596.097 231.822 596.819 232.111C597.396 232.111 597.974 231.823 598.552 231.678Z" fill="#EDCFC5"/>
<path d="M567.647 686.95C566.78 683.341 566.058 679.588 565.769 675.835C565.625 674.969 565.769 673.959 565.625 673.092C565.625 672.226 565.625 671.216 565.625 670.206L565.48 664.432C565.336 656.781 565.336 649.131 565.48 641.48C565.625 633.83 566.058 626.18 566.925 618.529C567.213 614.776 567.791 611.023 568.369 607.126L569.38 601.496C569.668 599.619 570.102 597.743 570.535 595.866C572.124 588.36 574.29 581.143 577.034 574.07C579.777 566.997 583.388 560.357 587.576 554.006C591.764 547.799 596.818 542.025 602.451 537.117C608.083 532.21 614.437 527.879 621.08 524.126C627.723 520.373 634.655 517.053 641.587 513.877L652.129 509.258C655.595 507.67 659.206 506.226 662.671 504.783C669.748 501.896 676.969 499.443 684.334 497.422C691.699 495.257 699.064 493.38 706.573 491.648C721.448 488.184 736.612 485.296 751.775 483.131L753.941 482.843L753.219 480.822L746.143 458.736C744.988 455.128 743.832 451.374 742.533 447.766L738.633 436.796C733.435 422.217 728.236 407.637 723.037 393.058C727.225 407.926 731.557 422.794 735.89 437.661L739.067 448.776C740.222 452.529 741.522 456.138 742.677 459.747L749.176 479.811C734.59 481.976 720.148 484.719 705.851 488.183C698.342 489.915 690.832 491.792 683.467 494.101C676.102 496.267 668.737 498.721 661.516 501.608C657.906 503.051 654.44 504.639 650.829 506.083L640.287 510.701C633.211 513.877 626.279 517.197 619.492 521.095C612.704 524.848 606.205 529.322 600.284 534.519C594.363 539.715 589.165 545.634 584.688 552.129C575.734 565.121 570.246 579.988 567.069 595.289C566.636 597.166 566.203 599.042 565.914 601.063L564.903 606.837C564.325 610.734 563.748 614.487 563.459 618.385C562.592 626.035 562.159 633.83 562.015 641.48C561.87 649.275 561.87 656.926 562.015 664.576L562.159 670.35C562.159 671.072 562.159 671.794 562.159 672.66C562.159 672.804 562.159 673.093 562.159 673.237C562.159 674.247 562.159 675.258 562.448 676.268C563.025 680.31 563.892 684.063 565.047 687.816C567.358 695.322 570.391 702.395 574.145 709.324C575.156 711.056 576.023 712.644 577.178 714.376L578.767 716.83L580.5 719.139C582.955 722.17 585.554 725.057 588.876 727.078C585.843 724.769 583.388 721.738 581.222 718.562C580.355 717.263 579.489 715.964 578.767 714.665C577.611 712.644 576.6 710.623 575.589 708.602C572.124 701.529 569.524 694.312 567.647 686.95Z" fill="#EDCFC5"/>
<path d="M761.883 573.204C760.438 573.348 758.85 573.492 757.406 573.637C745.275 574.647 733.144 575.08 721.013 575.225C708.882 575.369 696.752 575.369 684.621 575.08C672.49 574.791 660.359 574.359 648.228 573.781L645.629 573.637L646.495 576.091C648.373 582.009 649.817 588.216 650.683 594.567C651.55 600.774 651.55 607.125 650.395 613.188C649.673 616.075 648.662 619.395 647.94 622.426C647.362 625.601 647.073 628.922 646.929 632.242C646.64 637.294 646.784 642.202 647.218 647.254C647.362 648.697 647.506 650.141 647.651 651.584C647.651 649.996 647.795 648.409 647.795 646.821C648.084 642.058 648.662 637.149 649.384 632.53C649.961 629.355 650.683 626.323 651.405 623.292C651.983 620.116 652.994 617.374 653.861 613.909C655.16 607.269 655.016 600.63 654.149 594.134C653.427 588.505 652.272 583.019 650.539 577.534C661.803 578.112 673.212 578.544 684.476 578.689C696.607 578.977 708.882 578.978 721.013 578.833C723.757 578.833 726.501 578.689 729.101 578.689C738.632 578.4 748.019 577.967 757.55 577.245C760.583 576.957 763.616 576.812 766.648 576.379C769.681 575.802 772.714 575.225 775.746 574.647C781.667 573.348 787.733 571.905 793.365 569.451C787.444 570.894 781.379 571.616 775.458 572.193C775.169 572.193 774.88 572.193 774.736 572.193C771.992 572.482 769.248 572.626 766.504 572.77C764.915 572.915 763.327 573.06 761.883 573.204Z" fill="#EDCFC5"/>
<path d="M382.364 396.522C391.751 401.719 400.993 407.205 409.947 412.979C428.143 424.382 445.618 436.795 462.514 449.931C479.555 463.067 496.163 476.635 512.626 490.493C520.713 497.421 528.945 504.495 536.743 511.712C544.975 518.641 553.062 525.57 560.427 533.509L558.116 530.188L556.961 528.6L555.661 527.013C553.928 524.992 552.195 522.827 550.318 520.806C546.708 516.764 542.953 512.867 539.198 508.97C531.255 501.752 523.168 494.535 514.936 487.606C505.694 479.811 496.307 472.161 486.92 464.51C490.675 464.366 494.43 463.933 498.184 463.356C502.661 462.057 507.138 460.757 511.471 459.025C515.803 457.293 520.135 455.416 524.179 452.962C528.223 450.509 532.122 447.766 535.443 444.157L536.599 442.858L537.754 441.415C538.476 440.404 539.054 439.394 539.776 438.383C540.498 437.373 540.931 436.363 541.509 435.208C542.086 434.198 542.664 433.042 543.097 432.032C545.119 427.702 546.419 423.227 547.574 418.608C548.73 413.989 549.452 409.37 550.029 404.75C550.029 399.987 549.74 395.368 549.018 390.748C548.296 395.368 547.43 399.843 546.419 404.318C545.986 408.792 545.119 413.267 544.108 417.742C543.097 422.072 541.653 426.402 539.776 430.589C539.343 431.599 538.909 432.61 538.332 433.62C537.754 434.63 537.321 435.641 536.743 436.507C536.165 437.373 535.588 438.383 534.866 439.249L533.855 440.548L532.7 441.704C529.667 444.879 526.056 447.478 522.157 449.787C518.258 452.097 514.214 453.973 509.882 455.561C505.694 457.149 501.361 458.592 496.885 459.747C493.274 461.191 489.52 462.489 485.909 463.788C479.844 458.881 473.634 453.973 467.569 449.209C467.424 447.333 467.28 445.601 467.135 443.724L464.825 436.651L460.203 422.505L455.582 408.359L453.705 402.585L453.271 401.286C451.972 399.121 450.672 396.811 449.228 394.791C449.228 396.378 449.372 397.822 449.517 399.266C449.661 400.276 449.661 401.43 449.806 402.441L452.116 409.514L456.737 423.66L461.359 437.806L463.669 444.879C464.103 445.745 464.68 446.611 465.114 447.333C464.825 447.189 464.68 447.044 464.391 446.756C447.351 433.476 429.732 421.061 411.536 409.514C402.438 403.74 393.195 398.255 383.808 392.914C382.364 392.192 380.92 391.47 379.476 390.893C376.01 389.305 372.688 387.718 369.222 386.13C364.312 383.965 359.258 381.799 354.203 380.067C356.369 381.222 358.536 382.376 360.702 383.531C368.211 387.862 375.288 392.048 382.364 396.522Z" fill="#EDCFC5"/>
<path d="M384.096 594.857C383.374 593.847 382.507 592.836 381.785 591.826C380.918 590.815 380.196 589.805 379.474 588.794C378.752 587.784 378.03 586.773 377.308 585.763C376.586 584.752 375.864 583.742 375.142 582.588C372.398 578.402 369.799 573.927 367.344 569.452C357.523 551.553 349.581 532.643 339.472 514.6C337.016 510.125 334.273 505.65 331.529 501.32C328.785 496.989 325.752 492.803 322.431 488.617C320.842 486.596 319.109 484.575 317.376 482.699C315.643 480.822 313.91 478.802 312.033 477.069C310.155 475.193 308.278 473.46 306.401 471.728C304.379 469.996 302.501 468.264 300.335 466.821C298.313 465.233 296.147 463.789 293.981 462.201C292.97 461.48 291.67 460.902 290.659 460.181L288.926 459.171L287.193 458.304C282.428 455.995 277.373 454.263 272.174 453.252C266.975 452.53 261.632 452.386 256.578 452.819C251.379 453.252 246.324 454.118 241.414 455.85C245.458 455.128 249.646 454.84 253.689 454.84C259.755 454.84 265.82 455.562 271.597 457.005C274.052 457.583 276.507 458.16 278.817 458.882L282.283 460.181C283.439 460.614 284.594 461.191 285.605 461.768L287.338 462.635L288.926 463.645C289.937 464.366 291.093 464.8 292.104 465.522C294.125 466.965 296.292 468.409 298.313 469.997C300.335 471.44 302.213 473.172 304.234 474.76C306.112 476.492 307.989 478.08 309.722 479.956C311.6 481.689 313.188 483.565 314.921 485.441C316.51 487.318 318.243 489.339 319.831 491.215C323.008 495.113 325.897 499.299 328.64 503.629C331.384 507.815 333.984 512.29 336.439 516.765C346.403 534.52 354.346 553.574 364.311 571.617C366.766 576.092 369.365 580.566 372.254 584.897C375.142 589.227 378.319 593.413 381.496 597.455L391.605 609.148C394.06 611.89 396.66 614.777 399.259 617.375C393.049 616.798 386.839 616.364 380.63 615.931L360.7 614.488C354.057 614.344 347.414 614.199 340.771 613.911L320.842 613.333H318.965V615.21L322.142 729.1L323.73 785.973C323.875 790.737 324.019 795.5 324.164 800.264C324.164 802.573 324.308 805.027 324.452 807.336L325.03 814.409C325.752 823.936 326.33 833.319 327.196 842.846C327.485 833.319 327.63 823.792 327.774 814.409L327.918 807.336C327.918 805.027 327.918 802.573 327.918 800.264C327.774 795.5 327.63 790.737 327.485 785.973L325.897 729.1L322.864 617.087L340.916 617.664C347.559 617.808 354.202 617.952 360.845 618.241L380.774 617.953C386.984 617.809 393.338 617.664 399.548 617.519C400.559 618.53 401.425 619.396 402.436 620.262C401.714 619.396 400.992 618.385 400.27 617.519C400.414 617.519 400.703 617.519 400.848 617.519C400.703 617.519 400.414 617.519 400.27 617.519C394.205 609.869 389.295 602.219 384.096 594.857Z" fill="#EDCFC5"/>
</svg>
