<svg width="433" height="113" viewBox="0 0 433 113" fill="none" xmlns="http://www.w3.org/2000/svg">
<path d="M148.721 15.6811C148.721 15.3438 148.721 15.1752 149.269 15.1752H176.248C180.83 14.9209 185.409 15.7282 189.628 17.5342C193.847 19.3403 197.592 22.0963 200.571 25.5874C206.515 33.478 209.499 43.2056 209.002 53.0721C209.577 62.7147 206.575 72.2305 200.571 79.798C197.481 83.1129 193.691 85.696 189.475 87.3588C185.26 89.0216 180.726 89.7221 176.206 89.4093H149.227C149.153 89.4157 149.079 89.4059 149.01 89.3807C148.94 89.3554 148.877 89.3153 148.825 89.263C148.773 89.2108 148.733 89.1478 148.708 89.0783C148.682 89.0089 148.672 88.9348 148.679 88.8613L148.721 15.6811ZM176.459 24.112H159.302C158.922 24.112 158.754 24.112 158.754 24.66V79.8402C158.754 80.1774 158.754 80.3461 159.302 80.3461H176.459C179.575 80.5241 182.691 79.9817 185.564 78.7608C188.437 77.5399 190.99 75.6735 193.025 73.3063C197.316 67.4357 199.405 60.2433 198.927 52.9878C199.301 45.4952 197.198 38.0879 192.941 31.9105C191.029 29.3751 188.53 27.3412 185.66 25.983C182.789 24.6247 179.632 23.9827 176.459 24.112" fill="#1E2B3C"/>
<path d="M233.283 15.6813V26.7679C233.29 26.8415 233.28 26.9156 233.254 26.985C233.229 27.0545 233.189 27.1175 233.137 27.1697C233.085 27.2219 233.022 27.2621 232.952 27.2874C232.883 27.3126 232.809 27.3224 232.735 27.316H221.648C221.311 27.316 221.143 27.316 221.143 26.7679V15.6813C221.136 15.6133 221.145 15.5446 221.168 15.4803C221.191 15.4159 221.228 15.3575 221.276 15.3092C221.325 15.2608 221.383 15.2238 221.447 15.2006C221.512 15.1775 221.58 15.1689 221.648 15.1755H232.735C233.072 15.1755 233.283 15.1755 233.283 15.6813V15.6813ZM232.187 36.7586V89.0301C232.194 89.0982 232.185 89.1668 232.162 89.2312C232.139 89.2955 232.102 89.354 232.053 89.4023C232.005 89.4506 231.947 89.4877 231.882 89.5108C231.818 89.5339 231.749 89.5425 231.681 89.536H222.702C222.323 89.536 222.154 89.536 222.154 89.0301V36.5899C222.154 36.2527 222.154 36.0841 222.702 36.0841H231.597C231.665 36.0776 231.734 36.0862 231.798 36.1093C231.862 36.1324 231.921 36.1694 231.969 36.2178C232.017 36.2661 232.054 36.3246 232.078 36.3889C232.101 36.4532 232.109 36.5219 232.103 36.5899" fill="#1E2B3C"/>
<path d="M270 102.351C272.085 102.547 274.188 102.27 276.152 101.54C278.115 100.811 279.888 99.6466 281.339 98.1356C283.796 95.1515 285.084 91.3761 284.964 87.5126V84.6883C284.964 84.4775 284.964 84.351 284.585 84.2246C284.46 84.1864 284.327 84.1904 284.205 84.2362C284.083 84.2819 283.979 84.3668 283.911 84.4775C282.312 86.191 280.354 87.5297 278.177 88.3979C275.284 89.8419 272.095 90.5924 268.861 90.5899C265.488 90.6804 262.135 90.0375 259.035 88.7056C255.934 87.3737 253.16 85.3846 250.904 82.8756C246.019 77.346 243.466 70.1394 243.779 62.7679C243.442 55.5029 245.867 48.3795 250.566 42.8288C252.863 40.2933 255.687 38.2923 258.841 36.9667C261.995 35.6411 265.401 35.0233 268.819 35.1567C271.722 35.1967 274.588 35.8129 277.25 36.9694C279.782 37.8848 282.094 39.3208 284.037 41.1848C284.543 41.6485 284.88 41.6064 285.091 41.1848L286.145 36.9694C286.145 36.6321 286.482 36.4635 286.651 36.4635H294.576C294.955 36.4635 295.124 36.4635 295.124 36.9694V87.5548C295.241 90.7585 294.686 93.9514 293.496 96.928C292.305 99.9046 290.505 102.599 288.21 104.838C285.928 107.03 283.231 108.745 280.278 109.881C277.325 111.018 274.174 111.553 271.011 111.456C264.97 111.714 258.996 110.11 253.896 106.862C251.915 105.689 250.225 104.082 248.954 102.161C247.684 100.241 246.866 98.0574 246.562 95.7749C246.555 95.7068 246.564 95.6382 246.587 95.5739C246.61 95.5095 246.647 95.4511 246.695 95.4027C246.744 95.3544 246.802 95.3173 246.866 95.2942C246.931 95.2711 246.999 95.2625 247.067 95.269H256.257C256.482 95.269 256.651 95.4377 256.763 95.7749C257.607 97.7397 259.094 99.3597 260.978 100.37C263.762 101.939 266.935 102.684 270.126 102.52L270 102.351ZM253.939 62.8944C253.689 67.7628 255.184 72.5606 258.154 76.426C259.555 78.0611 261.304 79.3607 263.274 80.2289C265.244 81.0972 267.384 81.5119 269.536 81.4424C271.687 81.549 273.832 81.1375 275.79 80.2425C277.749 79.3476 279.464 77.9953 280.791 76.2995C283.688 72.3806 285.174 67.5965 285.006 62.7258C285.18 57.8412 283.695 53.0417 280.791 49.1099C279.464 47.4141 277.749 46.0618 275.79 45.1669C273.832 44.2719 271.687 43.8604 269.536 43.967C267.338 43.8774 265.15 44.2947 263.14 45.1865C261.13 46.0783 259.352 47.4207 257.943 49.1099C254.98 53.0113 253.488 57.8326 253.728 62.7258" fill="#1E2B3C"/>
<path d="M354.435 89.367H346.51C346.299 89.367 346.131 89.367 345.962 88.8611L344.908 84.6457C344.908 84.0555 344.36 83.9712 343.854 84.4349C339.641 88.045 334.347 90.1509 328.805 90.4208C325.382 90.5746 321.967 89.9704 318.805 88.6514C315.642 87.3324 312.81 85.3313 310.51 82.7909C305.803 77.1952 303.379 70.0297 303.723 62.7253C303.375 55.4204 305.799 48.2534 310.51 42.6598C312.813 40.121 315.645 38.1182 318.806 36.7926C321.967 35.467 325.38 34.8509 328.805 34.9877C331.994 34.9824 335.14 35.7184 337.995 37.1375C340.164 38.0517 342.149 39.3514 343.854 40.9736C344.15 41.2687 344.36 41.353 344.571 41.2265C344.668 41.1924 344.752 41.1299 344.812 41.0471C344.872 40.9643 344.906 40.8652 344.908 40.7628V15.4701C344.908 15.1329 344.908 14.9643 345.456 14.9643H354.435C354.503 14.9577 354.572 14.9664 354.636 14.9895C354.701 15.0126 354.759 15.0496 354.807 15.098C354.856 15.1463 354.893 15.2047 354.916 15.2691C354.939 15.3334 354.948 15.4021 354.941 15.4701V88.8611C354.948 88.9292 354.939 88.9978 354.916 89.0622C354.893 89.1265 354.856 89.1849 354.807 89.2333C354.759 89.2816 354.701 89.3187 354.636 89.3418C354.572 89.3649 354.503 89.3735 354.435 89.367V89.367ZM313.756 62.7253C313.507 67.5937 315.001 72.3916 317.972 76.2569C319.378 77.9513 321.154 79.3 323.164 80.199C325.174 81.098 327.364 81.5232 329.564 81.4419C331.721 81.5484 333.872 81.137 335.837 80.2423C337.803 79.3477 339.525 77.9956 340.862 76.2991C343.672 72.3493 345.068 67.5669 344.824 62.7253C345.052 57.8726 343.657 53.0822 340.862 49.1094C339.541 47.4056 337.828 46.0475 335.867 45.1517C333.907 44.256 331.758 43.8493 329.606 43.9666C327.403 43.8769 325.208 44.2938 323.191 45.1854C321.174 46.077 319.388 47.4194 317.972 49.1094C315.009 53.0109 313.516 57.8321 313.756 62.7253" fill="#1E2B3C"/>
<path d="M381.878 15.6814V26.768C381.884 26.8416 381.875 26.9157 381.849 26.9851C381.824 27.0545 381.784 27.1176 381.732 27.1698C381.679 27.222 381.616 27.2622 381.547 27.2875C381.478 27.3127 381.403 27.3225 381.33 27.316H370.285C369.906 27.316 369.737 27.316 369.737 26.768V15.6814C369.737 15.3442 369.737 15.1755 370.285 15.1755H381.33C381.709 15.1755 381.878 15.1755 381.878 15.6814ZM380.824 36.7586V89.0302C380.824 89.3675 380.824 89.5361 380.276 89.5361H371.297C371.229 89.5426 371.16 89.534 371.096 89.5109C371.032 89.4878 370.973 89.4507 370.925 89.4024C370.877 89.354 370.839 89.2956 370.816 89.2313C370.793 89.1669 370.785 89.0983 370.791 89.0302V36.59C370.785 36.522 370.793 36.4533 370.816 36.389C370.839 36.3246 370.877 36.2662 370.925 36.2179C370.973 36.1695 371.032 36.1325 371.096 36.1094C371.16 36.0862 371.229 36.0776 371.297 36.0842H380.276C380.655 36.0842 380.824 36.0842 380.824 36.59" fill="#1E2B3C"/>
<path d="M424.917 43.9672H419.564C417.625 43.9159 415.7 44.3112 413.939 45.1226C412.177 45.934 410.626 47.1396 409.404 48.6464C406.832 51.8198 405.498 55.8193 405.653 59.9016V88.8618C405.659 88.9354 405.649 89.0095 405.624 89.0789C405.599 89.1483 405.559 89.2113 405.506 89.2636C405.454 89.3158 405.391 89.3559 405.322 89.3812C405.252 89.4065 405.178 89.4162 405.105 89.4098H395.999C395.662 89.4098 395.493 89.199 395.493 88.8618V36.5902C395.487 36.5221 395.495 36.4535 395.519 36.3892C395.542 36.3248 395.579 36.2664 395.627 36.218C395.675 36.1697 395.734 36.1326 395.798 36.1095C395.862 36.0864 395.931 36.0778 395.999 36.0843H403.924C403.924 36.0843 404.304 36.0843 404.472 36.5902L405.526 41.3115C405.751 41.9579 406.13 41.9579 406.664 41.3115C408.244 39.457 410.174 37.9326 412.344 36.8258C414.515 35.719 416.882 35.0516 419.311 34.8619H424.664C424.734 34.856 424.804 34.8648 424.871 34.8876C424.937 34.9104 424.998 34.9467 425.049 34.9943C425.101 35.0418 425.142 35.0996 425.17 35.1639C425.198 35.2282 425.212 35.2976 425.212 35.3677V43.2928C425.212 43.6722 425.212 43.8408 424.664 43.8408" fill="#1E2B3C"/>
<path d="M53.4097 0H2.10772C1.5521 0.0107919 1.02224 0.236321 0.629281 0.629281C0.236321 1.02224 0.0107919 1.5521 0 2.10773V102.183C0.0107919 102.738 0.236321 103.268 0.629281 103.661C1.02224 104.054 1.5521 104.279 2.10772 104.29H53.4097C67.2395 104.29 80.5028 98.7964 90.2819 89.0173C100.061 79.2382 105.555 65.9749 105.555 52.1451C105.555 38.3154 100.061 25.0521 90.2819 15.273C80.5028 5.49385 67.2395 2.06079e-07 53.4097 0ZM58.4261 88.5245C50.664 89.8603 42.6782 88.6909 35.625 85.1856C28.5719 81.6803 22.8174 76.0211 19.1949 69.0273C15.5725 62.0336 14.27 54.0684 15.4761 46.2851C16.6823 38.5018 20.3344 31.3044 25.9037 25.7351C31.473 20.1658 38.6704 16.5137 46.4537 15.3075C54.237 14.1014 62.2022 15.4038 69.196 19.0263C76.1897 22.6488 81.8489 28.4032 85.3542 35.4564C88.8595 42.5096 90.0289 50.4954 88.6931 58.2575C87.3931 65.8113 83.7852 72.7769 78.3653 78.1967C72.9455 83.6166 65.9799 87.2245 58.4261 88.5245" fill="#C2132C"/>
</svg>
