<svg width="627" height="112" viewBox="0 0 627 112" fill="none" xmlns="http://www.w3.org/2000/svg">
<g clip-path="url(#clip0_1198_1992)">
<path d="M54.2446 0H2.14067C1.57636 0.0109606 1.03822 0.240015 0.639118 0.639118C0.240015 1.03822 0.0109606 1.57636 0 2.14067V103.737C0 104.305 0.225535 104.849 0.626989 105.251C1.02844 105.652 1.57293 105.878 2.14067 105.878H54.2446C68.0243 105.486 81.1081 99.7364 90.7161 89.8512C100.324 79.966 105.699 66.724 105.699 52.9388C105.699 39.1536 100.324 25.9117 90.7161 16.0264C81.1081 6.14125 68.0243 0.391908 54.2446 0V0ZM59.3394 89.9083C51.456 91.265 43.3454 90.0773 36.1819 86.5172C29.0185 82.9571 23.1741 77.2094 19.495 70.1064C15.8159 63.0033 14.4931 54.9136 15.7181 47.0087C16.9431 39.1037 20.6523 31.7938 26.3087 26.1374C31.965 20.481 39.2749 16.7718 47.1799 15.5468C55.0849 14.3218 63.1746 15.6446 70.2776 19.3237C77.3807 23.0028 83.1284 28.8472 86.6885 36.0107C90.2485 43.1741 91.4362 51.2848 90.0795 59.1682C88.7592 66.84 85.0949 73.9145 79.5903 79.4191C74.0858 84.9236 67.0113 88.588 59.3394 89.9083Z" fill="#0062B8"/>
<path d="M151.902 15.4128H161.021C161.092 15.4069 161.164 15.4157 161.231 15.4389C161.299 15.462 161.36 15.4989 161.413 15.5473C161.465 15.5956 161.507 15.6542 161.535 15.7195C161.564 15.7848 161.578 15.8553 161.578 15.9266V90.2507C161.585 90.3254 161.575 90.4007 161.549 90.4712C161.523 90.5417 161.483 90.6057 161.429 90.6588C161.376 90.7118 161.312 90.7526 161.242 90.7783C161.171 90.8039 161.096 90.8138 161.021 90.8073H151.902C151.56 90.8073 151.388 90.5932 151.388 90.2507V15.9266C151.382 15.8574 151.39 15.7877 151.414 15.7224C151.437 15.657 151.475 15.5977 151.524 15.5486C151.573 15.4995 151.633 15.4619 151.698 15.4384C151.763 15.4149 151.833 15.4062 151.902 15.4128" fill="#1E2B3C"/>
<path d="M176.734 15.9267C176.727 15.8576 176.736 15.7878 176.76 15.7225C176.783 15.6572 176.821 15.5978 176.87 15.5487C176.919 15.4996 176.978 15.462 177.044 15.4385C177.109 15.415 177.179 15.4063 177.248 15.4129H204.648C209.309 15.1512 213.967 15.9694 218.259 17.8037C222.552 19.6379 226.363 22.4388 229.395 25.9878C235.432 34.0019 238.462 43.8815 237.957 53.9022C238.533 63.6946 235.485 73.3563 229.395 81.0459C226.25 84.416 222.393 87.0412 218.104 88.73C213.815 90.4189 209.204 91.1286 204.606 90.8074H177.205C176.862 90.8074 176.691 90.5933 176.691 90.2508L176.734 15.9267ZM204.905 24.4894H187.437C187.095 24.4894 186.924 24.4894 186.924 25.046V81.0888C186.917 81.1579 186.926 81.2276 186.949 81.293C186.973 81.3583 187.01 81.4176 187.059 81.4667C187.109 81.5158 187.168 81.5535 187.233 81.5769C187.299 81.6004 187.368 81.6092 187.437 81.6025H204.905C208.069 81.7736 211.231 81.2183 214.147 79.979C217.064 78.7397 219.658 76.8493 221.731 74.4527C226.073 68.4847 228.18 61.1803 227.682 53.8166C228.075 46.2118 225.953 38.6891 221.645 32.4099C219.708 29.8294 217.171 27.7596 214.255 26.3796C211.338 24.9996 208.129 24.3508 204.905 24.4894" fill="#1E2B3C"/>
<path d="M290.404 68.5016H256.924C256.624 68.5016 256.624 68.2447 256.624 68.2447V59.9389C256.617 59.8698 256.626 59.8 256.649 59.7347C256.673 59.6694 256.711 59.61 256.76 59.5609C256.809 59.5118 256.868 59.4742 256.933 59.4507C256.999 59.4272 257.069 59.4185 257.138 59.4251H290.618C290.687 59.4185 290.757 59.4272 290.822 59.4507C290.887 59.4742 290.947 59.5118 290.996 59.5609C291.045 59.61 291.082 59.6694 291.106 59.7347C291.129 59.8 291.138 59.8698 291.132 59.9389V68.2447C291.132 68.5872 291.132 68.7156 290.618 68.7156" fill="#1E2B3C"/>
<path d="M311.596 36.6485H319.645C319.645 36.6485 319.988 36.6485 320.159 37.1622L321.229 41.4436C321.229 41.7004 321.572 41.8717 321.786 41.8717C321.894 41.8624 321.997 41.8261 322.087 41.7662C322.177 41.7064 322.25 41.6249 322.3 41.5292C324.207 39.6359 326.499 38.1757 329.022 37.2478C331.73 36.0815 334.636 35.4422 337.584 35.3641C341.063 35.2251 344.529 35.8509 347.74 37.1972C350.95 38.5435 353.826 40.5776 356.165 43.1561C360.95 48.8371 363.412 56.1161 363.058 63.5353C363.408 70.9539 360.946 78.2314 356.165 83.9145C353.828 86.4923 350.951 88.5231 347.739 89.8625C344.528 91.2019 341.061 91.8169 337.584 91.6637C334.36 91.7208 331.165 91.0322 328.251 89.6515C326.064 88.6938 324.052 87.377 322.3 85.7555C322 85.4986 321.786 85.413 321.572 85.4986C321.358 85.5842 321.229 85.7555 321.229 85.9696V111.658C321.229 112 321.229 112.171 320.673 112.214H311.596C311.211 112.214 311.04 112.214 311.04 111.658V37.1622C311.04 36.8197 311.04 36.6485 311.596 36.6485V36.6485ZM352.911 63.7066C353.164 58.749 351.646 53.8631 348.63 49.9206C347.195 48.1964 345.384 46.8249 343.335 45.9118C341.286 44.9988 339.055 44.5686 336.814 44.6546C334.586 44.4964 332.354 44.8903 330.315 45.8015C328.276 46.7126 326.494 48.1128 325.125 49.8778C322.286 53.9127 320.87 58.778 321.101 63.7066C320.91 68.6562 322.421 73.5218 325.382 77.4925C326.719 79.2168 328.452 80.5924 330.435 81.5019C332.418 82.4114 334.592 82.8278 336.771 82.7157C339.011 82.792 341.239 82.3576 343.286 81.4452C345.333 80.5328 347.146 79.1665 348.587 77.4497C351.597 73.5204 353.114 68.6501 352.869 63.7066" fill="#1E2B3C"/>
<path d="M425.994 63.7065C426.357 71.1771 423.809 78.4974 418.887 84.1285C413.609 89.0801 406.644 91.8361 399.407 91.8361C392.17 91.8361 385.204 89.0801 379.927 84.1285C375.02 78.4908 372.488 71.1712 372.862 63.7065C372.497 56.2431 375.027 48.9268 379.927 43.2845C382.422 40.6777 385.45 38.6398 388.804 37.3099C392.159 35.9799 395.76 35.3892 399.364 35.5781C402.976 35.391 406.587 35.978 409.954 37.2997C413.321 38.6214 416.366 40.6473 418.887 43.2417C423.796 48.8973 426.341 56.2253 425.994 63.7065V63.7065ZM411.394 77.4496C414.428 73.5328 415.948 68.6534 415.676 63.7065C415.948 58.7596 414.428 53.8803 411.394 49.9634C409.951 48.2274 408.125 46.8488 406.061 45.9353C403.996 45.0217 401.748 44.5981 399.492 44.6973C397.229 44.6054 394.975 45.0277 392.899 45.9324C390.822 46.837 388.978 48.2006 387.504 49.9206C384.478 53.8578 382.959 58.7475 383.223 63.7065C382.951 68.6534 384.471 73.5328 387.504 77.4496C388.97 79.1823 390.811 80.5575 392.889 81.4701C394.966 82.3827 397.225 82.8088 399.492 82.7157C401.748 82.815 403.996 82.3913 406.061 81.4778C408.125 80.5643 409.951 79.1856 411.394 77.4496" fill="#1E2B3C"/>
<path d="M467.694 44.6542H462.129C460.159 44.602 458.205 45.0035 456.416 45.8276C454.626 46.6516 453.051 47.8762 451.81 49.4065C449.198 52.6294 447.844 56.6915 448 60.8376V90.2505C448 90.593 448 90.7642 447.444 90.7642H438.324C438.255 90.7709 438.185 90.7621 438.12 90.7387C438.055 90.7152 437.995 90.6776 437.946 90.6285C437.897 90.5794 437.86 90.52 437.836 90.4547C437.813 90.3893 437.804 90.3196 437.811 90.2505V37.1618C437.804 37.0927 437.813 37.023 437.836 36.9576C437.86 36.8923 437.897 36.8329 437.946 36.7838C437.995 36.7347 438.055 36.6971 438.12 36.6736C438.185 36.6501 438.255 36.6414 438.324 36.648H446.373C446.587 36.648 446.759 36.648 446.93 37.1618L448 41.9569C448.228 42.6134 448.614 42.6134 449.156 41.9569C450.76 40.0734 452.721 38.5252 454.925 37.4011C457.129 36.277 459.533 35.5992 462 35.4065H467.437C467.508 35.4005 467.58 35.4094 467.647 35.4325C467.715 35.4557 467.776 35.4926 467.829 35.5409C467.881 35.5892 467.923 35.6479 467.951 35.7132C467.98 35.7785 467.994 35.849 467.994 35.9202V43.9691C467.994 44.3545 467.78 44.5257 467.437 44.5257" fill="#1E2B3C"/>
<path d="M506.098 82.2021V90.251C506.104 90.3258 506.094 90.401 506.069 90.4715C506.043 90.542 506.002 90.606 505.949 90.6591C505.896 90.7121 505.832 90.7529 505.762 90.7786C505.691 90.8042 505.616 90.8141 505.541 90.8076H497.321C487.988 90.8076 483.278 86.7831 483.278 77.9636V45.2113C483.285 45.1365 483.275 45.0613 483.249 44.9908C483.224 44.9203 483.183 44.8563 483.13 44.8032C483.077 44.7502 483.013 44.7094 482.942 44.6837C482.872 44.6581 482.796 44.6482 482.722 44.6547H473.217C472.875 44.6547 472.703 44.6547 472.703 44.0981V37.1623C472.697 37.0932 472.705 37.0235 472.729 36.9582C472.752 36.8928 472.79 36.8335 472.839 36.7844C472.888 36.7353 472.948 36.6976 473.013 36.6742C473.078 36.6507 473.148 36.642 473.217 36.6486H482.722C482.8 36.6564 482.88 36.6458 482.954 36.6178C483.028 36.5897 483.095 36.5449 483.149 36.4869C483.202 36.4289 483.242 36.3592 483.265 36.2832C483.287 36.2073 483.292 36.1272 483.278 36.0492V21.6639C483.278 21.2786 483.278 21.1073 483.835 21.1073H492.911C493.297 21.1073 493.468 21.1073 493.468 21.6639V36.0492C493.455 36.1235 493.459 36.1996 493.479 36.2722C493.499 36.3448 493.535 36.412 493.584 36.4692C493.633 36.5264 493.694 36.5721 493.763 36.6031C493.832 36.6341 493.906 36.6496 493.982 36.6486H505.541C505.612 36.6426 505.684 36.6515 505.751 36.6747C505.818 36.6978 505.88 36.7347 505.933 36.783C505.985 36.8314 506.027 36.89 506.055 36.9553C506.083 37.0206 506.098 37.0911 506.098 37.1623V44.0981C506.098 44.4834 506.098 44.6547 505.541 44.6547H493.982C493.639 44.6547 493.468 44.6547 493.468 45.2113V76.3795C493.468 79.933 495.394 81.6883 499.248 81.6883H505.541C505.927 81.6883 506.098 81.6883 506.098 82.2021" fill="#1E2B3C"/>
<path d="M564.495 63.7066C564.495 66.1041 564.238 67.3029 563.725 67.3029H524.593C524.251 67.3029 524.079 67.3029 524.079 67.9023C524.062 69.88 524.442 71.8411 525.199 73.6685C525.955 75.496 527.072 77.1523 528.482 78.5388C529.893 79.9253 531.568 81.0135 533.408 81.7385C535.248 82.4635 537.215 82.8104 539.193 82.7586C541.945 82.9716 544.7 82.376 547.119 81.045C549.537 79.714 551.514 77.7055 552.807 75.2662C552.846 75.1155 552.935 74.9825 553.06 74.8891C553.184 74.7957 553.337 74.7475 553.492 74.7525H562.055C562.44 74.7525 562.612 74.7524 562.612 75.2662C561.407 80.2828 558.347 84.6575 554.049 87.5109C549.493 90.4959 544.122 91.9919 538.679 91.7922C535.222 91.9381 531.776 91.3192 528.587 89.9797C525.397 88.6402 522.542 86.613 520.226 84.043C515.451 78.3252 513.005 71.0184 513.376 63.5781C512.988 56.2048 515.336 48.9479 519.969 43.1989C522.38 40.5471 525.366 38.4818 528.698 37.161C532.03 35.8401 535.619 35.2987 539.193 35.5781C542.695 35.3515 546.202 35.9235 549.451 37.2511C552.7 38.5787 555.604 40.6272 557.945 43.2417C562.441 49.0859 564.703 56.3429 564.324 63.7066H564.495ZM554.135 58.783C554.102 55.1773 552.728 51.7128 550.281 49.0644C548.867 47.5843 547.144 46.4335 545.235 45.6936C543.326 44.9537 541.278 44.6429 539.235 44.783C537.122 44.6817 535.014 45.0561 533.065 45.8787C531.116 46.7012 529.377 47.9508 527.975 49.5353C525.531 52.0488 524.085 55.3667 523.908 58.8687C523.908 59.254 523.908 59.4252 524.422 59.4252H553.578C553.653 59.4318 553.728 59.4219 553.798 59.3962C553.869 59.3705 553.933 59.3298 553.986 59.2767C554.039 59.2237 554.08 59.1596 554.105 59.0891C554.131 59.0186 554.141 58.9434 554.135 58.8687" fill="#1E2B3C"/>
<path d="M578.153 36.6481H586.287C586.502 36.6481 586.673 36.6481 586.844 37.1619L587.914 41.957C587.952 42.0849 588.032 42.1965 588.141 42.274C588.249 42.3516 588.38 42.3907 588.514 42.3851C588.632 42.3952 588.75 42.3726 588.856 42.3197C588.961 42.2668 589.051 42.1857 589.113 42.0854C590.71 39.9067 592.829 38.1648 595.275 37.02C597.722 35.8753 600.417 35.3646 603.113 35.535C606.318 35.3601 609.521 35.908 612.485 37.1382C615.45 38.3684 618.099 40.2494 620.238 42.642C624.438 47.7531 626.617 54.2275 626.361 60.8377V90.2506C626.361 90.5931 626.147 90.7643 625.761 90.7643H616.685C616.616 90.771 616.546 90.7622 616.481 90.7388C616.415 90.7153 616.356 90.6777 616.307 90.6286C616.258 90.5795 616.22 90.5201 616.197 90.4548C616.173 90.3894 616.165 90.3197 616.171 90.2506V60.8377C616.29 56.7244 615.107 52.6786 612.789 49.2781C611.573 47.7175 609.992 46.4796 608.186 45.6733C606.379 44.867 604.402 44.5171 602.428 44.6543C600.391 44.5584 598.36 44.9379 596.494 45.7627C594.629 46.5875 592.982 47.835 591.682 49.4066C589.091 52.6439 587.726 56.6924 587.829 60.8377V90.2506C587.835 90.3197 587.827 90.3894 587.803 90.4548C587.78 90.5201 587.742 90.5795 587.693 90.6286C587.644 90.6777 587.584 90.7153 587.519 90.7388C587.454 90.7622 587.384 90.771 587.315 90.7643H578.153C578.084 90.771 578.014 90.7622 577.949 90.7388C577.883 90.7153 577.824 90.6777 577.775 90.6286C577.726 90.5795 577.688 90.5201 577.665 90.4548C577.641 90.3894 577.632 90.3197 577.639 90.2506V37.1619C577.632 37.0928 577.641 37.0231 577.665 36.9577C577.688 36.8924 577.726 36.833 577.775 36.7839C577.824 36.7348 577.883 36.6972 577.949 36.6737C578.014 36.6502 578.084 36.6415 578.153 36.6481" fill="#1E2B3C"/>
</g>
<defs>
<clipPath id="clip0_1198_1992">
<rect width="626.318" height="112" fill="white"/>
</clipPath>
</defs>
</svg>
