<svg width="218" height="26" viewBox="0 0 218 26" fill="none" xmlns="http://www.w3.org/2000/svg">
<g clip-path="url(#clip0_3292_5840)">
<path d="M13.3422 0H0.526529C0.386885 0 0.25296 0.0553614 0.154217 0.153905C0.0554735 0.252449 0 0.386103 0 0.525465V25.4745C0 25.6139 0.0554735 25.7476 0.154217 25.8461C0.25296 25.9446 0.386885 26 0.526529 26H13.3422C16.7315 25.9038 19.9497 24.4925 22.3129 22.066C24.6762 19.6395 25.9982 16.3891 25.9982 13.0053C25.9982 9.62144 24.6762 6.37097 22.3129 3.94448C19.9497 1.51798 16.7315 0.10671 13.3422 0.0105095V0ZM14.5954 22.08C12.6563 22.4131 10.6614 22.1215 8.89946 21.2476C7.13751 20.3738 5.69999 18.9629 4.79507 17.2193C3.89014 15.4758 3.56477 13.49 3.86608 11.5496C4.16738 9.60918 5.07972 7.81484 6.47099 6.42638C7.86226 5.03793 9.66023 4.12743 11.6046 3.82674C13.5489 3.52604 15.5387 3.85075 17.2858 4.75385C19.0329 5.65695 20.4466 7.09156 21.3223 8.84995C22.1979 10.6083 22.49 12.5992 22.1563 14.5344C21.8316 16.4175 20.9303 18.1541 19.5764 19.5053C18.2225 20.8565 16.4824 21.7559 14.5954 22.08" fill="#1E2B3C"/>
</g>
<path d="M213.123 22.2857H210.749C210.67 22.2857 210.565 22.233 210.512 22.1538L206.319 14.9544C206.266 14.8753 206.213 14.8753 206.134 14.9544L203.128 17.5388C203.075 17.5916 203.075 17.618 203.075 17.6971V22.1538C203.075 22.233 203.022 22.2857 202.943 22.2857H200.702C200.623 22.2857 200.57 22.233 200.57 22.1538V3.85207C200.57 3.77296 200.623 3.72021 200.702 3.72021H202.943C203.022 3.72021 203.075 3.77296 203.075 3.85207V14.1897C203.075 14.2688 203.181 14.3215 203.26 14.2424L209.325 9.07362C209.483 8.94176 209.642 8.94176 209.721 8.94176H212.964C213.044 8.94176 213.096 9.02087 213.044 9.07362L208.138 13.2403C208.086 13.293 208.086 13.3722 208.138 13.4513L213.228 22.1538C213.255 22.2066 213.202 22.2857 213.123 22.2857Z" fill="#1E2B3C"/>
<path d="M197.442 16.5104H187.658C187.579 16.5104 187.526 16.5631 187.526 16.6422C187.526 18.5673 188.924 20.3078 191.271 20.3078C193.143 20.3078 194.066 19.5167 194.62 18.4618C194.673 18.3564 194.726 18.33 194.805 18.33H197.152C197.231 18.33 197.31 18.3564 197.284 18.4618C196.598 21.0462 194.251 22.5494 191.271 22.5494C187.315 22.5494 184.863 19.7277 184.863 15.6137C184.863 11.4734 187.183 8.67804 191.271 8.67804C195.385 8.67804 197.706 11.4998 197.706 15.6137C197.706 15.8774 197.626 16.1675 197.574 16.3785C197.547 16.4576 197.521 16.5104 197.442 16.5104ZM194.963 14.4006C194.963 12.8975 193.882 10.9196 191.271 10.9196C188.713 10.9196 187.526 13.1612 187.526 14.4006C187.526 14.4798 187.605 14.5325 187.658 14.5325H194.831C194.91 14.5325 194.963 14.4798 194.963 14.4006Z" fill="#1E2B3C"/>
<path d="M183.354 20.176V22.1538C183.354 22.2329 183.301 22.2857 183.222 22.2857H181.191C179.002 22.2857 177.737 21.3363 177.737 19.1739V11.0515C177.737 10.9723 177.684 10.9196 177.605 10.9196H175.258C175.179 10.9196 175.126 10.8669 175.126 10.7877V9.0736C175.126 8.99449 175.179 8.94175 175.258 8.94175H177.605C177.684 8.94175 177.737 8.889 177.737 8.80989V5.24975C177.737 5.17063 177.789 5.11789 177.868 5.11789H180.11C180.189 5.11789 180.242 5.17063 180.242 5.24975V8.80989C180.242 8.889 180.295 8.94175 180.374 8.94175H183.222C183.301 8.94175 183.354 8.99449 183.354 9.0736V10.7877C183.354 10.8669 183.301 10.9196 183.222 10.9196H180.374C180.295 10.9196 180.242 10.9723 180.242 11.0515V18.7255C180.242 19.5431 180.611 20.0441 181.666 20.0441H183.222C183.301 20.0441 183.354 20.0969 183.354 20.176Z" fill="#1E2B3C"/>
<path d="M174.173 15.6137C174.173 19.7277 171.746 22.5494 167.632 22.5494C163.492 22.5494 161.092 19.7277 161.092 15.6137C161.092 11.4734 163.492 8.67804 167.632 8.67804C171.746 8.67804 174.173 11.4998 174.173 15.6137ZM171.667 15.6137C171.667 12.8711 170.164 10.9196 167.632 10.9196C165.127 10.9196 163.598 12.8711 163.598 15.6137C163.598 18.3564 165.127 20.3078 167.632 20.3078C170.164 20.3078 171.667 18.3564 171.667 15.6137Z" fill="#1E2B3C"/>
<path d="M158.187 9.0736V22.1538C158.187 22.2329 158.134 22.2857 158.055 22.2857H155.814C155.735 22.2857 155.682 22.2329 155.682 22.1538V9.0736C155.682 8.99449 155.735 8.94175 155.814 8.94175H158.055C158.134 8.94175 158.187 8.99449 158.187 9.0736ZM158.24 7.28035H155.603C155.524 7.28035 155.471 7.2276 155.471 7.14849V4.48498C155.471 4.40586 155.524 4.35312 155.603 4.35312H158.24C158.319 4.35312 158.372 4.40586 158.372 4.48498V7.14849C158.372 7.2276 158.319 7.28035 158.24 7.28035Z" fill="#1E2B3C"/>
<path d="M151.775 3.85207V22.1538C151.775 22.233 151.722 22.2857 151.643 22.2857H149.401C149.322 22.2857 149.269 22.233 149.269 22.1538C149.269 16.062 149.269 9.94387 149.269 3.85207C149.269 3.77296 149.322 3.72021 149.401 3.72021H151.643C151.722 3.72021 151.775 3.77296 151.775 3.85207Z" fill="#1E2B3C"/>
<path d="M135.669 22.2857H133.692C133.612 22.2857 133.56 22.233 133.56 22.1538V3.85207C133.56 3.77296 133.612 3.72021 133.692 3.72021H135.933C136.012 3.72021 136.065 3.77296 136.065 3.85207V10.1285C136.065 10.234 136.197 10.3394 136.329 10.1812C136.645 9.81202 138.254 8.67804 140.1 8.67804C143.95 8.67804 146.376 11.4998 146.376 15.6137C146.376 19.7277 143.95 22.5494 140.1 22.5494C138.781 22.5494 137.041 21.7583 136.329 21.0462C136.25 20.9671 136.118 20.9408 136.065 21.099L135.801 22.1538C135.775 22.233 135.749 22.2857 135.669 22.2857ZM143.871 15.6137C143.871 12.8711 142.368 10.9196 139.836 10.9196C137.436 10.9196 136.065 12.8711 136.065 15.6137C136.065 18.3564 137.436 20.3078 139.836 20.3078C142.368 20.3078 143.871 18.3564 143.871 15.6137Z" fill="#1E2B3C"/>
<path d="M129.652 9.0736V22.1538C129.652 22.2329 129.6 22.2857 129.521 22.2857H127.279C127.2 22.2857 127.147 22.2329 127.147 22.1538V9.0736C127.147 8.99449 127.2 8.94175 127.279 8.94175H129.521C129.6 8.94175 129.652 8.99449 129.652 9.0736ZM129.705 7.28035H127.068C126.989 7.28035 126.936 7.2276 126.936 7.14849V4.48498C126.936 4.40586 126.989 4.35312 127.068 4.35312H129.705C129.784 4.35312 129.837 4.40586 129.837 4.48498V7.14849C129.837 7.2276 129.784 7.28035 129.705 7.28035Z" fill="#1E2B3C"/>
<path d="M113.547 22.2857H111.569C111.49 22.2857 111.438 22.233 111.438 22.1538V3.85207C111.438 3.77296 111.49 3.72021 111.569 3.72021H113.811C113.89 3.72021 113.943 3.77296 113.943 3.85207V10.1285C113.943 10.234 114.075 10.3394 114.207 10.1812C114.523 9.81202 116.132 8.67804 117.978 8.67804C121.828 8.67804 124.254 11.4998 124.254 15.6137C124.254 19.7277 121.828 22.5494 117.978 22.5494C116.659 22.5494 114.919 21.7583 114.207 21.0462C114.127 20.9671 113.996 20.9408 113.943 21.099L113.679 22.1538C113.653 22.233 113.626 22.2857 113.547 22.2857ZM121.749 15.6137C121.749 12.8711 120.246 10.9196 117.714 10.9196C115.314 10.9196 113.943 12.8711 113.943 15.6137C113.943 18.3564 115.314 20.3078 117.714 20.3078C120.246 20.3078 121.749 18.3564 121.749 15.6137Z" fill="#1E2B3C"/>
<path d="M108.309 16.5104H98.5257C98.4465 16.5104 98.3938 16.5631 98.3938 16.6422C98.3938 18.5673 99.7915 20.3078 102.139 20.3078C104.011 20.3078 104.934 19.5167 105.488 18.4618C105.54 18.3564 105.593 18.33 105.672 18.33H108.019C108.098 18.33 108.178 18.3564 108.151 18.4618C107.466 21.0462 105.119 22.5494 102.139 22.5494C98.1828 22.5494 95.7303 19.7277 95.7303 15.6137C95.7303 11.4734 98.051 8.67804 102.139 8.67804C106.252 8.67804 108.573 11.4998 108.573 15.6137C108.573 15.8774 108.494 16.1675 108.441 16.3785C108.415 16.4576 108.389 16.5104 108.309 16.5104ZM105.831 14.4006C105.831 12.8975 104.749 10.9196 102.139 10.9196C99.5805 10.9196 98.3938 13.1612 98.3938 14.4006C98.3938 14.4798 98.4729 14.5325 98.5257 14.5325H105.699C105.778 14.5325 105.831 14.4798 105.831 14.4006Z" fill="#1E2B3C"/>
<path d="M92.8251 9.0736V22.1538C92.8251 22.2329 92.7724 22.2857 92.6933 22.2857H90.4517C90.3726 22.2857 90.3198 22.2329 90.3198 22.1538V9.0736C90.3198 8.99449 90.3726 8.94175 90.4517 8.94175H92.6933C92.7724 8.94175 92.8251 8.99449 92.8251 9.0736ZM92.8779 7.28035H90.2407C90.1616 7.28035 90.1089 7.2276 90.1089 7.14849V4.48498C90.1089 4.40586 90.1616 4.35312 90.2407 4.35312H92.8779C92.957 4.35312 93.0097 4.40586 93.0097 4.48498V7.14849C93.0097 7.2276 92.957 7.28035 92.8779 7.28035Z" fill="#1E2B3C"/>
<path d="M86.2928 22.2857H84.315C84.2358 22.2857 84.2095 22.233 84.1831 22.1538L83.9194 21.099C83.8666 20.9408 83.7348 20.9671 83.6557 21.0462C82.9436 21.7583 81.2031 22.5494 79.8846 22.5494C76.0343 22.5494 73.6082 19.7277 73.6082 15.6137C73.6082 11.4998 76.0343 8.67804 79.8846 8.67804C81.7306 8.67804 83.3392 9.81202 83.6557 10.1812C83.7875 10.3394 83.9194 10.234 83.9194 10.1285V3.85207C83.9194 3.77296 83.9721 3.72021 84.0512 3.72021H86.2928C86.3719 3.72021 86.4247 3.77296 86.4247 3.85207V22.1538C86.4247 22.233 86.3719 22.2857 86.2928 22.2857ZM76.1134 15.6137C76.1134 18.3564 77.6166 20.3078 80.1483 20.3078C82.5481 20.3078 83.9194 18.3564 83.9194 15.6137C83.9194 12.8711 82.5481 10.9196 80.1483 10.9196C77.6166 10.9196 76.1134 12.8711 76.1134 15.6137Z" fill="#1E2B3C"/>
<path d="M71.4822 16.5104H61.6984C61.6193 16.5104 61.5665 16.5631 61.5665 16.6422C61.5665 18.5673 62.9642 20.3078 65.3113 20.3078C67.1836 20.3078 68.1066 19.5167 68.6604 18.4618C68.7132 18.3564 68.7659 18.33 68.845 18.33H71.1921C71.2712 18.33 71.3503 18.3564 71.324 18.4618C70.6383 21.0462 68.2912 22.5494 65.3113 22.5494C61.3556 22.5494 58.903 19.7277 58.903 15.6137C58.903 11.4734 61.2237 8.67804 65.3113 8.67804C69.4252 8.67804 71.7459 11.4998 71.7459 15.6137C71.7459 15.8774 71.6668 16.1675 71.614 16.3785C71.5877 16.4576 71.5613 16.5104 71.4822 16.5104ZM69.0033 14.4006C69.0033 12.8975 67.922 10.9196 65.3113 10.9196C62.7532 10.9196 61.5665 13.1612 61.5665 14.4006C61.5665 14.4798 61.6456 14.5325 61.6984 14.5325H68.8714C68.9505 14.5325 69.0033 14.4798 69.0033 14.4006Z" fill="#1E2B3C"/>
<path d="M46.6862 19.6749L51.3803 3.85207C51.4331 3.74659 51.4858 3.72021 51.5649 3.72021H55.8371C55.9162 3.72021 55.969 3.77296 55.969 3.85207V22.1538C55.969 22.233 55.9162 22.2857 55.8371 22.2857H53.5955C53.5164 22.2857 53.4637 22.233 53.4637 22.1538V6.35736C53.4637 6.17276 53.2263 6.19913 53.2 6.33099L48.5586 22.1538C48.5322 22.233 48.4267 22.2857 48.3476 22.2857H44.7611C44.682 22.2857 44.5765 22.233 44.5501 22.1538L39.9088 6.33099C39.856 6.17276 39.6451 6.19913 39.6451 6.35736V22.1538C39.6451 22.233 39.5923 22.2857 39.5132 22.2857H37.2716C37.1925 22.2857 37.1398 22.233 37.1398 22.1538V3.85207C37.1398 3.77296 37.1925 3.72021 37.2716 3.72021H41.5438C41.6229 3.72021 41.6757 3.74659 41.7284 3.85207L46.4225 19.6749C46.4753 19.8068 46.6335 19.8068 46.6862 19.6749Z" fill="#1E2B3C"/>
<defs>
<clipPath id="clip0_3292_5840">
<rect width="26" height="26" fill="white"/>
</clipPath>
</defs>
</svg>
