<svg width="422" height="422" viewBox="0 0 422 422" fill="none" xmlns="http://www.w3.org/2000/svg">
<g clip-path="url(#clip0_1362_1338)">
<mask id="mask0_1362_1338" style="mask-type:luminance" maskUnits="userSpaceOnUse" x="0" y="0" width="422" height="422">
<path d="M421.77 0H0.587158V421.183H421.77V0Z" fill="white"/>
</mask>
<g mask="url(#mask0_1362_1338)">
<path d="M38.8767 229.744H383.481M168.103 306.322L153.745 363.756L134.6 382.901H287.758L268.613 363.756L254.254 306.322H168.103ZM77.1661 306.322H345.192C355.346 306.322 365.085 302.289 372.266 295.107C379.447 287.926 383.481 278.187 383.481 268.033V76.5862C383.481 66.4313 379.447 56.6922 372.266 49.5116C365.085 42.3308 355.346 38.2969 345.192 38.2969H77.1661C67.0112 38.2969 57.2721 42.3308 50.0915 49.5116C42.9107 56.6922 38.8767 66.4313 38.8767 76.5862V268.033C38.8767 278.187 42.9107 287.926 50.0915 295.107C57.2721 302.289 67.0112 306.322 77.1661 306.322Z" stroke="#1E2B3C" stroke-width="38.2894" stroke-linecap="round" stroke-linejoin="round"/>
</g>
</g>
<defs>
<clipPath id="clip0_1362_1338">
<rect width="421.183" height="421.183" fill="white" transform="translate(0.587158)"/>
</clipPath>
</defs>
</svg>
