<svg width="422" height="423" viewBox="0 0 422 423" fill="none" xmlns="http://www.w3.org/2000/svg">
<g clip-path="url(#clip0_1362_1379)">
<mask id="mask0_1362_1379" style="mask-type:luminance" maskUnits="userSpaceOnUse" x="0" y="0" width="422" height="423">
<path d="M421.77 422.144V0.960938L0.587128 0.960938V422.144H421.77Z" fill="white"/>
</mask>
<g mask="url(#mask0_1362_1379)">
<path d="M282.971 46.9399C288.555 46.9399 293.912 49.1586 297.861 53.1079C301.811 57.0573 304.03 62.4138 304.03 67.999V355.169C304.03 360.754 301.811 366.11 297.861 370.06C293.912 374.009 288.555 376.228 282.971 376.228H139.386C133.8 376.228 128.444 374.009 124.494 370.06C120.545 366.11 118.326 360.754 118.326 355.169V67.999C118.326 62.4138 120.545 57.0573 124.494 53.1079C128.444 49.1586 133.8 46.9399 139.386 46.9399H282.971ZM139.386 17.2656C125.93 17.2656 113.026 22.6108 103.512 32.1251C93.9974 41.6395 88.6522 54.5438 88.6522 67.999V355.169C88.6522 368.624 93.9974 381.53 103.512 391.042C113.026 400.557 125.93 405.903 139.386 405.903H282.971C296.426 405.903 309.331 400.557 318.844 391.042C328.359 381.53 333.704 368.624 333.704 355.169V67.999C333.704 54.5438 328.359 41.6395 318.844 32.1251C309.331 22.6108 296.426 17.2656 282.971 17.2656H139.386Z" fill="#1E2B3C" stroke="#1E2B3C" stroke-width="5.7434"/>
<path d="M211.178 358.035C218.286 358.035 225.104 355.211 230.129 350.184C235.157 345.158 237.981 338.341 237.981 331.232C237.981 324.124 235.157 317.306 230.129 312.281C225.104 307.254 218.286 304.43 211.178 304.43C204.07 304.43 197.252 307.254 192.227 312.281C187.199 317.306 184.375 324.124 184.375 331.232C184.375 338.341 187.199 345.158 192.227 350.184C197.252 355.211 204.07 358.035 211.178 358.035Z" fill="#1E2B3C" stroke="#1E2B3C" stroke-width="5.7434"/>
</g>
</g>
<defs>
<clipPath id="clip0_1362_1379">
<rect width="421.183" height="421.183" fill="white" transform="translate(0.587158 0.96875)"/>
</clipPath>
</defs>
</svg>
