<svg width="422" height="422" viewBox="0 0 422 422" fill="none" xmlns="http://www.w3.org/2000/svg">
<g clip-path="url(#clip0_1362_1358)">
<mask id="mask0_1362_1358" style="mask-type:luminance" maskUnits="userSpaceOnUse" x="0" y="0" width="422" height="422">
<path d="M421.77 0.492188H0.587204V421.675H421.77V0.492188Z" fill="white"/>
</mask>
<g mask="url(#mask0_1362_1358)">
<path d="M211.179 19.6367C160.604 20.2817 112.283 40.6589 76.5185 76.4233C40.7541 112.188 20.3769 160.509 19.7319 211.084C19.9683 240.545 27.0015 269.555 40.2839 295.854C53.5663 322.153 72.7395 345.033 96.3106 362.709V364.241H98.2251C130.64 389.081 170.34 402.542 211.179 402.542C252.018 402.542 291.717 389.081 324.132 364.241H326.047V362.709C349.618 345.033 368.791 322.153 382.074 295.854C395.356 269.555 402.39 240.545 402.626 211.084C401.98 160.509 381.603 112.188 345.839 76.4233C310.074 40.6589 261.753 20.2817 211.179 19.6367ZM135.94 343.756C138.735 330.956 145.822 319.498 156.024 311.279C166.227 303.062 178.933 298.579 192.034 298.575H230.323C243.424 298.579 256.13 303.062 266.333 311.279C276.535 319.498 283.622 330.956 286.417 343.756C263.614 357.173 237.637 364.249 211.179 364.249C184.721 364.249 158.744 357.173 135.94 343.756ZM318.58 319.06C311.298 301.655 299.036 286.793 283.333 276.336C267.631 265.879 249.189 260.295 230.323 260.285H192.034C173.168 260.295 154.726 265.879 139.024 276.336C123.321 286.793 111.059 301.655 103.777 319.06C89.4312 304.95 78.0064 288.15 70.1553 269.624C62.3045 251.098 58.1811 231.205 58.0212 211.084C58.5179 170.618 74.8134 131.95 103.429 103.334C132.045 74.7183 170.713 58.4227 211.179 57.9261C251.645 58.4227 290.313 74.7183 318.929 103.334C347.544 131.95 363.84 170.618 364.336 211.084C364.175 231.205 360.053 251.098 352.202 269.624C344.351 288.15 332.925 304.95 318.58 319.06Z" fill="#1E2B3C"/>
<path d="M211.181 96.2469C201.059 96.0112 190.996 97.8307 181.598 101.596C172.201 105.361 163.664 110.993 156.506 118.151C149.347 125.31 143.715 133.846 139.95 143.244C136.186 152.641 134.366 162.705 134.601 172.826C134.366 182.947 136.186 193.011 139.95 202.407C143.715 211.805 149.347 220.342 156.506 227.5C163.664 234.658 172.201 240.29 181.598 244.056C190.996 247.82 201.059 249.641 211.181 249.405C221.3 249.641 231.365 247.82 240.763 244.056C250.159 240.29 258.696 234.658 265.854 227.5C273.012 220.342 278.645 211.805 282.41 202.407C286.176 193.011 287.995 182.947 287.759 172.826C287.995 162.705 286.176 152.641 282.41 143.244C278.645 133.846 273.012 125.31 265.854 118.151C258.696 110.993 250.159 105.361 240.763 101.596C231.365 97.8307 221.3 96.0112 211.181 96.2469ZM211.181 211.116C206.086 211.361 200.998 210.539 196.242 208.702C191.484 206.866 187.164 204.053 183.558 200.448C179.953 196.841 177.141 192.522 175.304 187.765C173.467 183.008 172.645 177.919 172.891 172.826C172.645 167.732 173.467 162.643 175.304 157.887C177.141 153.13 179.953 148.809 183.558 145.204C187.164 141.598 191.484 138.786 196.242 136.949C200.998 135.112 206.086 134.29 211.181 134.536C216.273 134.29 221.362 135.112 226.119 136.949C230.877 138.786 235.196 141.598 238.803 145.204C242.407 148.809 245.22 153.13 247.058 157.887C248.894 162.643 249.715 167.732 249.47 172.826C249.715 177.919 248.894 183.008 247.058 187.765C245.22 192.522 242.407 196.841 238.803 200.448C235.196 204.053 230.877 206.866 226.119 208.702C221.362 210.539 216.273 211.361 211.181 211.116Z" fill="#1E2B3C"/>
</g>
</g>
<defs>
<clipPath id="clip0_1362_1358">
<rect width="421.183" height="421.183" fill="white" transform="translate(0.587158 0.484375)"/>
</clipPath>
</defs>
</svg>
